<?xml version="1.0" encoding="utf-8"?>
<!-- Generator: Adobe Illustrator 19.0.0, SVG Export Plug-In . SVG Version: 6.00 Build 0)  -->
<svg version="1.1" id="Layer_1" xmlns="http://www.w3.org/2000/svg" xmlns:xlink="http://www.w3.org/1999/xlink" x="0px" y="0px"
	 viewBox="0 0 1000 1000" style="enable-background:new 0 0 1000 1000;" xml:space="preserve">
<style type="text/css">
	.st0{fill:#E5E4E8;}
	.st1{fill:#8A8B98;}
</style>
<path id="XMLID_1164_" class="st0" d="M541.4,456c23.1-21.6,46.2-43.2,69.2-64.9c29.3-27.6,58.6-55.3,88-82.9
	c1.3-1.2,2.6-3.7,4.5-1.8c2.2,2.3-0.6,3.7-2,5c-31.7,30-63.5,60-95.2,90c-19.8,18.7-39.5,37.5-59.2,56.2c-1.9,1.8-3.9,3.6-5.8,5.4
	c0.3,0.4,0.7,0.7,1,1.1c2.2-1.7,4.3-3.4,6.5-5.1c56.1-42.8,112.1-85.6,168.2-128.4c0.3-0.3,0.6-0.6,1-0.8c1.5-0.9,3.1-3.3,4.7-1.3
	c1.9,2.4-0.9,3.6-2.4,4.8c-5.6,4.4-11.3,8.8-17,13.1c-50.9,38.9-101.8,77.7-152.6,116.6c-1,0.8-1.8,1.7-2.7,2.6
	c-0.5,0.3-1,0.7-1.5,1c-1.4,0.9-2.7,1.7-4.4,2.8c2.8,0.9,4-0.5,5.3-1.9c0.5-0.2,1.1-0.4,1.6-0.6c61-37.2,122-74.5,183.1-111.6
	c2.2-1.3,5.2-5.4,7.3-2.3c2.3,3.5-2.9,4.3-5,5.6c-59.6,36.6-119.3,73.1-179.1,109.5c-1.8,1.1-3.5,2.2-5.7,3.4
	c2.9,1.6,4.7-0.4,6.5-1.3c63.1-29.9,126.2-60,189.4-89.8c2.3-1.1,5.8-5.4,7.8-1.3c1.6,3.5-3.6,3.8-5.9,4.9
	c-55.4,26.5-111,52.9-166.5,79.2c-11.1,5.3-22.2,10.5-33,16.6c9.2-3.2,18.5-6.3,27.7-9.5c60.5-21.3,121-42.6,181.5-63.8
	c0.4-0.1,0.8-0.2,1.2-0.3c2.2-0.6,5.3-3.2,6.4,0.2c1,3-2.9,3-4.8,3.6c-22.9,8.2-45.9,16.2-68.8,24.2
	c-45.1,15.8-90.2,31.6-135.3,47.4c-1.1,0.4-2.2,0.9-3,2.4c9.1-2.1,18.1-4.1,27.2-6.3c62.7-14.8,125.3-29.7,188-44.5
	c1.9-0.4,4.9-1.6,5.2,1.4c0.3,2.7-3,2.5-4.8,3c-39.8,9.5-79.6,18.9-119.4,28.2c-33,7.8-66.1,15.6-99.1,23.7c8.6,0.7,17-1.6,25.5-2.6
	c32.8-3.9,65.6-8.1,98.3-12.3c33-4.2,66-8.5,98.9-12.7c0.8-0.1,1.7-0.2,2.5-0.3c1.6-0.2,3.3-0.1,3.4,1.8c0.1,1.8-1.5,2.2-3.1,2.4
	c-10,1.3-20,2.5-30.1,3.8c-28.2,3.6-56.4,7.1-84.6,10.7c-27.8,3.6-55.5,7.3-83.3,10.8c-15.4,2-30.9,3.9-46.4,5.8
	c-1.8,0.2-4,1.2-5.1-1.1c-1.2-2.5,2.1-2.1,2.6-3.3c2.6-5.6,8.6-9.7,7.1-16.9c4.8-1.8-1.8-7.8,3.5-9.5c0,0,0-0.8-0.2-1.1
	c-2-3.4-2-3.4,0.5-6.4c0.5-0.6,1.1-1.2,0.1-1.9l-0.2,0.2c1.8,1.3,2.2-0.2,2.7-1.3L541.4,456z"/>
<path id="XMLID_1163_" class="st0" d="M447,529.7c-56.3,30.4-112.7,60.9-169,91.3c-6.8,3.7-13.6,7.4-20.5,11
	c-1.7,0.9-3.9,3.3-5.4,0.8c-1.9-3.2,1.9-3.6,3.5-4.5c36.9-20,73.9-40,110.8-60c26.4-14.3,52.8-28.6,79.2-42.9c1-0.6,2-1.3,2.5-2.9
	c-6,2.4-11.9,4.7-17.9,7.1c-61.5,25.3-122.9,50.6-184.3,75.9c-0.6,0.2-1.1,0.8-1.7,0.8c-1.7,0.2-3.7,2.5-4.9-0.3
	c-1.1-2.6,1.4-2.9,3.1-3.6c6.8-2.8,13.5-5.7,20.3-8.5c60.9-25,121.8-50,182.7-75.1c1.1-0.5,2.1-1.1,2.9-2.6
	c-11.2,3.3-22.4,6.5-33.6,9.8c-60.2,17.6-120.4,35.3-180.6,52.9c-1.7,0.5-4.1,2-4.5-1c-0.4-2.9,2.6-2.7,4.4-3.3
	c34.4-10.1,68.8-20.3,103.2-30.4c36.6-10.7,73.1-21.4,109.5-33.2c-8.9,1.5-17.8,3-26.7,4.6c-38.5,7-76.9,14-115.4,21
	c-24.4,4.5-48.8,9-73.2,13.3c-2.8,0.5-7.7,2.9-8.4-0.3c-1.1-4.7,4.6-3.1,7-3.6c33.2-6.3,66.5-12.2,99.8-18.3
	c37.3-6.8,74.6-13.6,111.9-20.9c-9.3-1.5-18.4,0.2-27.6,0.9c-45.8,3.1-91.6,6.7-137.4,10.1c-17.9,1.3-35.7,2.7-53.6,4.1
	c-1.7,0.1-3.8,0.9-4.2-1.4c-0.4-2.7,1.9-2.7,3.8-2.8c24.4-1.7,48.8-3.4,73.2-5.2c31.1-2.3,62.2-4.8,93.3-7.2
	c26-1.9,52.1-3.8,78.1-5.6c1.7-0.1,4.1-1.4,5.1,0.9c1.3,2.9-2,2.3-3,3.5c-4.6,5.5-7.3,12.2-10.4,18.6l1.7,9.5
	c0.4,1.5-0.8,2.2-1.5,3.1c-1,1.3-4.1,0.9-3.2,3.8l0.1-0.1c-1.5-2.2-2.7-0.3-3.4,0.5c-13.9,14.7-30.2,26.7-45.5,39.8
	c-38,32.7-76.4,65.1-114.7,97.4c-2.1,1.8-4.9,6.6-7.3,3.7c-2.8-3.4,2.8-5.1,5-7c52-44.4,104-88.6,156.1-132.8
	c1.3-1.1,2.5-2.3,3.7-3.5c1.1-0.7,3.2-1.6,2.1-2.8c-1.4-1.5-2.6,0.6-3.6,1.7c-20.9,14.1-41.8,28.2-62.6,42.4
	c-37.5,25.6-75,51.3-112.4,76.9c-1,0.7-2,1.5-3.1,2.2c-1.2,0.7-2.5,0.7-3.4-0.5c-1-1.4,0.1-2.3,1.1-3c3.8-2.6,7.6-5.3,11.4-7.9
	c55.2-37.8,110.3-75.5,165.5-113.3c1-0.7,2-1.5,3-2.3c1.4-0.5,2.6-1.2,3.2-3.6C449.3,528.5,448.1,529.1,447,529.7z"/>
<path id="XMLID_1162_" class="st0" d="M456.2,539.6c1.9,1.6,3.6-3.7,5.5-0.3c1.3,2.2-1.5,3.1-2.1,4.7c-0.7,1-2.8,1.8-1.2,3.1
	c1.1,0.9,1.8-0.9,2.5-1.7c6.8,0.9,2.1,3.9,0.8,5.7c-12.5,16.4-25.2,32.7-37.8,49.1c-29.7,38.5-59.5,77.1-89.3,115.5
	c-1.8,2.4-3.6,8-6.8,5.7c-3.4-2.5,1.7-5.5,3.4-7.8c41.6-54.1,83.4-108.1,125.1-162.1c0.8-1.1,1.4-2.3,2.2-3.7c-3.1-1-3.9,1.2-5,2.4
	c-45.8,47.9-91.5,95.8-137.2,143.7c-2.6,2.7-5.3,5.4-8,8.1c-1,1-2.2,1.5-3.3,0.5c-1.3-1.1-0.7-2.3,0.3-3.3c2.2-2.3,4.4-4.6,6.5-6.9
	c47.7-49.9,95.3-99.8,142.9-149.7c0.8-0.8,2.8-1.3,1.5-3.2C456.3,539.5,456.2,539.6,456.2,539.6z"/>
<path id="XMLID_1161_" class="st0" d="M538.9,456.9c-1.5,0.3-2.5,2.4-4.4,0.8c-2.7-2.3,2.5-3.6,0.6-5.7l-0.1,0
	c2.9,0.3,3.5-1.7,3.9-3.9l-0.1,0.1c8.8-7.5,15.5-16.9,23-25.6c38.4-44.5,76.7-89.1,115-133.6c0.4-0.5,0.8-1,1.2-1.5
	c1.1-1.3,2.1-3,4.1-1.5c2.2,1.7,0,3-0.9,4.1c-3.9,4.7-7.8,9.4-11.8,14c-42.2,49-84.4,98-126.5,147.1c-1,1.1-3.9,2.2-1.5,4.7
	c0,0,0.1-0.2,0.1-0.2c-2.1-2-2.2,0.1-2.7,1.3L538.9,456.9z"/>
<path id="XMLID_1160_" class="st0" d="M535.1,452c-3.4-1.3-4.5-2.6-1.9-6.3c40.3-57.8,80.3-115.8,120.6-173.7c1.2-1.7,2-6,5.1-3.5
	c2.8,2.2-0.8,4.5-2.1,6.2c-38.4,55.6-76.9,111.1-115.2,166.7c-1.3,1.9-4.7,3.5-2.7,6.9c0,0,0.1-0.1,0.1-0.1
	c-3.1-0.6-3.5,1.6-3.9,3.9L535.1,452z"/>
<path id="XMLID_1159_" class="st0" d="M634.9,254.8c-0.5,0.9-1,2-1.6,3.1c-33.4,61-66.7,121.9-100.2,182.8c-0.9,1.6-1.4,4.9-4.2,3.2
	c-2.7-1.6-0.1-3.7,0.7-5.3c33.2-60.8,66.5-121.6,99.7-182.4c0.9-1.6,1.6-3.7,3.7-3.9C633.9,252.3,635,253.3,634.9,254.8z"/>
<path id="XMLID_1158_" class="st0" d="M352.9,738.6c-0.9,0-1.7-0.4-2-1.3c-0.6-1.7,0.7-2.7,1.4-3.9c6.5-10.6,13-21.1,19.5-31.7
	c29.8-48.3,59.7-96.6,89.5-144.8c0.8-1.3,1.5-2.5,2.4-3.7c0.7-1,1.7-1.3,2.7-0.5c0.8,0.7,1.4,1.5,0.7,2.7c-0.7,1.1-1.2,2.2-1.9,3.3
	c-36.3,58.8-72.7,117.7-109,176.5C355.3,736.4,355,738.4,352.9,738.6z"/>
<path id="XMLID_1157_" class="st0" d="M379,752.7c-3.3-0.5-2.8-2.4-1.9-4.2c1.8-4,3.9-7.9,5.8-11.9c27.7-57.7,55.4-115.3,83.1-173
	c0.3-0.6,0.5-1.2,0.7-1.7c0.8-1.5,1.6-3.3,3.8-2.2c2.3,1.2,0.7,2.9,0,4.3c-5.1,10.8-10.3,21.6-15.5,32.4
	c-24.4,50.6-48.8,101.3-73.2,151.9C381,749.9,380.6,751.8,379,752.7z"/>
<path id="XMLID_1156_" class="st0" d="M608.4,242.5c-0.4,1.1-0.9,2.5-1.4,3.9c-26.1,62.3-52.1,124.5-78.2,186.8
	c-0.4,1-0.8,1.9-1.2,2.9c-0.6,1.2-1.3,2.3-2.8,1.6c-1.4-0.7-1.3-2.1-1-3.3c0.3-1.2,0.9-2.3,1.4-3.5c26-62,52-124.1,77.9-186.1
	c0.6-1.4,1.1-2.8,1.8-4c0.3-0.5,1.4-1,2-0.9C608,240.1,608.7,241,608.4,242.5z"/>
<path id="XMLID_1155_" class="st0" d="M580.8,232.9c-0.9,3.2-1.8,6.7-2.9,10.1c-18.1,60.6-36.2,121.3-54.5,181.9
	c-0.7,2.3,0,7.6-4.1,6.2c-3.2-1.1-0.5-5.1,0.3-7.7c18.7-62.9,37.4-125.7,56.1-188.6c0.3-1,0.8-2,1-3c0.4-1.6,1.4-2,2.8-1.7
	C581,230.5,580.8,231.7,580.8,232.9z"/>
<path id="XMLID_1154_" class="st0" d="M476.6,568.7c-0.1,0.3-0.6,1.3-0.9,2.3c-22.4,62.9-44.9,125.8-67.3,188.7
	c-0.1,0.2-0.1,0.4-0.2,0.6c-0.9,1.5-0.8,4.3-3.5,3.4c-2.9-1-1-3-0.5-4.7c3.2-9.1,6.3-18.2,9.5-27.2c19-53.3,38-106.5,57-159.8
	c0.6-1.8,1.4-3.5,2.2-5.2c0.6-1.2,1.7-1.1,2.7-0.8C476.6,566.3,476.8,567.1,476.6,568.7z"/>
<path id="XMLID_1153_" class="st0" d="M482.7,574.5c-2.5,10.6-4.9,21.2-7.5,31.8c-13,53.5-26,107.1-39,160.6c-0.1,0.6,0,1.4-0.3,1.9
	c-0.8,1.4-0.5,4.4-3.4,3.4c-2.1-0.8-1.3-2.7-0.9-4.3c2-8.3,3.9-16.7,5.9-25.1c13.4-55.4,26.9-110.7,40.3-166.1c0.2-1,0.4-2.1,0.8-3
	c0.5-1.2,1.2-2.3,2.8-1.6C482.8,572.5,483.2,573.4,482.7,574.5z"/>
<path id="XMLID_1152_" class="st0" d="M552.3,227c-4.6,24.8-9.1,49.6-13.7,74.4c-7.5,39.8-15,79.7-22.5,119.5c-0.4,2,0.1,5-2.8,4.7
	c-3.5-0.4-1.5-3.2-1.2-5c9.5-51.2,19-102.4,28.5-153.6c2.3-12.6,4.7-25.2,7.1-37.8c0.2-1,0.2-2.1,0.6-3.1c0.5-1.2,0.3-3.4,2.4-3.1
	C552.8,223.4,552.9,225.2,552.3,227z"/>
<path id="XMLID_1151_" class="st0" d="M523.5,224.7c-2.8,34.4-5.6,68.4-8.4,102.4c-1.9,23.5-3.7,47.1-5.5,70.6
	c-0.5,6.5-0.9,13-1.5,19.5c-0.1,1.7-0.4,3.6-2.9,3.2c-2-0.4-1.7-2-1.6-3.5c2.3-27.3,4.6-54.6,6.9-81.9c1.9-22.9,3.6-45.8,5.4-68.7
	c1.1-13.9,2.2-27.7,3.5-41.6c0.2-1.9-1.2-5.7,2.3-5.5C525,219.5,523.1,223,523.5,224.7z"/>
<path id="XMLID_1150_" class="st0" d="M460.2,773.3c2.8-20.9,5.6-41.3,8.3-61.8c3.6-27.1,7.2-54.2,10.7-81.3
	c2.2-16.5,4.3-33,6.5-49.4c0.2-1.7,0.6-3.6,2.9-3.2c2,0.3,1.7,1.9,1.5,3.5c-3.4,25.4-6.8,50.9-10.2,76.3
	c-3.6,27.1-7.2,54.2-10.8,81.3c-1.5,11.5-3.1,22.9-4.8,34.4c-0.3,1.7,1,5-2.6,4.5C458.8,777.1,461.1,774.3,460.2,773.3z"/>
<path id="XMLID_1149_" class="st0" d="M496.2,672.5c-1.2,40.2-2.1,71.6-3,103c-0.1,1.8,0.6,4.5-2.2,4.4c-2.9,0-1.8-2.8-1.8-4.4
	c1.1-41.1,2.2-82.2,3.3-123.3c0.6-21.3,1.2-42.6,1.8-63.9c0-1.5,0-3,0.1-4.4c0.1-1.2,0.9-1.9,2-1.9c1.3,0,1.9,0.8,1.9,2
	c0.1,1.5,0,3-0.1,4.4C497.6,619.4,496.8,650.4,496.2,672.5z"/>
<path id="XMLID_1148_" class="st0" d="M496.7,317.8c0.8,30.5,1.7,61.1,2.4,91.6c0.1,2.4,1.9,6.7-1.9,6.8c-3.5,0.1-2.5-4.1-2.5-6.6
	c-1.4-60.3-2.7-120.5-4.1-180.8c0-1.3-0.3-2.6,0-3.8c0.5-2.2-1.8-6.2,1.8-6.2c3.7-0.1,1.9,4,2,6.1c0.9,31,1.7,61.9,2.6,92.9
	C496.9,317.8,496.8,317.8,496.7,317.8z"/>
<path id="XMLID_1147_" class="st0" d="M504.6,595.5c-0.2-2.1-0.3-4.2-0.5-6.3c-0.1-1.6-0.1-3.2,2-3.2c2,0,2.1,1.5,2.2,3.1
	c0.8,11.8,1.7,23.6,2.6,35.3c2.4,32.2,4.9,64.3,7.3,96.5c1.4,17.9,2.7,35.7,4,53.6c0.1,1.7,1.3,4.4-1.5,4.7
	c-3.3,0.4-2.6-2.9-2.7-4.6c-1.2-13.9-2.2-27.7-3.2-41.6c-2.4-31.7-4.9-63.5-7.2-95.2C506.4,623.7,505.5,609.6,504.6,595.5
	C504.6,595.5,504.6,595.5,504.6,595.5z"/>
<path id="XMLID_1146_" class="st0" d="M489.4,409.3c-0.2,1.4,0.8,3.7-2,3.7c-2.6,0-2-2.3-2.2-3.8c-2.5-18.8-4.9-37.5-7.4-56.3
	c-3.7-28.3-7.3-56.7-11-85c-1.8-14-3.7-27.9-5.4-41.9c-0.2-1.9-1.3-5,1.6-5.4c3.1-0.4,2.3,3,2.6,4.8c2.9,21.7,5.7,43.4,8.5,65
	c3.2,24.6,6.3,49.2,9.4,73.8C485.6,379.2,487.5,394.2,489.4,409.3z"/>
<path id="XMLID_1145_" class="st0" d="M551.5,773.6c0.2,0.6-0.5,1.8-1.8,2c-2.3,0.3-2.7-1.7-3-3.3c-1.3-6.8-2.5-13.6-3.7-20.5
	c-9.5-52.7-19-105.4-28.4-158.1c-0.3-1.8-2.3-4.5,1.2-4.9c2.6-0.3,2.4,2.3,2.8,4.1c10.7,59.3,21.5,118.6,32.2,177.9
	C550.8,771.5,551.1,772.1,551.5,773.6z"/>
<path id="XMLID_1144_" class="st0" d="M479.2,406.7c0.3,2.4,0.2,4.2-1.7,4.1c-2.3,0-2.1-2.3-2.5-3.8c-3.9-16.1-7.7-32.2-11.5-48.3
	c-10-42.6-20-85.3-30.1-127.9c-0.4-1.8-1.8-4.1,0.7-4.8c3.1-0.9,2.9,2.3,3.4,4.1c13.9,58.5,27.8,117.1,41.6,175.6
	C479.2,406.3,479.2,406.9,479.2,406.7z"/>
<path id="XMLID_1143_" class="st0" d="M406.3,234c2.8,0.4,2.8,2.8,3.5,4.7c8.3,23.7,16.7,47.4,25.1,71.1c11,31.2,22,62.5,32.8,93.7
	c0.6,1.8,3.4,4.7,0,5.9c-3.3,1.3-3.1-2.4-3.7-4.3c-3.1-8.5-6-17-9-25.5c-16.4-46.6-32.8-93.3-49.1-140
	C405.2,238,402.7,235.6,406.3,234z"/>
<path id="XMLID_1142_" class="st0" d="M524.8,593.9c-0.2-2-0.5-3.5,1.2-3.7c2.3-0.3,2.4,1.8,2.9,3.4c4,13.5,8,26.9,12,40.4
	c12.5,42.8,25.1,85.7,37.6,128.6c0.2,0.8,0.7,1.6,0.8,2.4c0.1,1.4,1,3.2-1,3.8c-2.4,0.7-2.6-1.3-3-2.9c-3.4-11.7-6.9-23.3-10.3-35
	c-13.1-44.6-26.1-89.3-39.2-133.9C525.3,595.7,524.9,594.5,524.8,593.9z"/>
<path id="XMLID_1141_" class="st0" d="M537.4,590.4c2.2,0.6,2.4,2.6,3.1,4.3c16.3,39.5,32.6,79,49,118.5
	c5.5,13.4,11.1,26.7,16.5,40.1c0.7,1.7,3.1,4.2,0.2,5.4c-3.2,1.3-3.3-2.2-4.1-4.1c-21.8-52.7-43.5-105.3-65.2-158.1
	C536,594.7,533.3,592.1,537.4,590.4z"/>
<path id="XMLID_1140_" class="st0" d="M379.9,245.2c2.3,0.6,2.5,2.9,3.3,4.7c16.4,34.5,32.8,68.9,49.2,103.4
	c7.8,16.5,15.6,33,23.4,49.5c0.5,1.1,1.3,2.2,1.7,3.4c0.4,1.4,1,3.1-0.9,3.8c-1.5,0.5-2.2-0.7-2.8-1.9c-1.6-3.2-3.2-6.4-4.7-9.6
	c-23.2-48.9-46.4-97.7-69.5-146.6c-0.6-1.3-1.3-2.7-1.7-4.1C377.4,246.4,378,245.4,379.9,245.2z"/>
<path id="XMLID_1139_" class="st0" d="M548.6,589.8c2.7,0.5,3,2.7,3.9,4.3c20.8,38.4,41.6,76.8,62.3,115.3
	c5.8,10.7,11.7,21.4,17.4,32.1c0.7,1.4,3.1,3.2,0.5,4.8c-3.1,1.9-3.4-1.5-4.2-3c-26.9-49.4-53.6-98.9-80.4-148.4
	c-0.7-1.2-2-2.4-1.3-4C547.2,590.3,548.2,590,548.6,589.8z"/>
<path id="XMLID_1138_" class="st0" d="M446.8,409.3c-0.4,0.7-0.6,1.7-1.2,2c-0.6,0.3-1.9,0.2-2.3-0.2c-1-1-1.7-2.4-2.5-3.6
	c-28.8-47.1-57.5-94.3-86.3-141.4c-0.5-0.9-1.2-1.7-1.6-2.7c-0.5-1.2-2.3-2.5-0.3-3.8c2-1.3,2.9,0.1,3.9,1.7
	c6.3,10.4,12.7,20.8,19.1,31.2c22.8,37.3,45.5,74.5,68.3,111.8C444.8,405.8,445.7,407.5,446.8,409.3z"/>
<path id="XMLID_1137_" class="st0" d="M659,729.6c-0.7,0.7-1.1,1.5-1.8,1.9c-1.6,0.8-2.3-0.6-3-1.5c-3.4-4.8-6.6-9.7-10-14.6
	c-27.9-40.7-55.9-81.4-83.7-122.2c-1-1.4-3.9-3.4-1.3-5.3c3-2.1,3.8,1.5,4.9,3.2c30.7,44.7,61.3,89.4,91.9,134.2
	C657.1,726.6,658,728,659,729.6z"/>
<path id="XMLID_1136_" class="st0" d="M434.9,411.8c0.2,1.6-0.3,2.2-1.2,2.6c-1.9,0.8-2.7-0.9-3.5-1.9c-5.8-7.5-11.5-15.1-17.3-22.6
	c-27.1-35.5-54.3-70.9-81.3-106.5c-1.6-2-5.8-4.8-3-7c3.3-2.7,4.7,2.4,6.2,4.3c32.7,42.6,65.3,85.3,97.9,128
	C433.6,409.8,434.4,411.1,434.9,411.8z"/>
<path id="XMLID_1135_" class="st0" d="M574.3,583.7c0,0,0.7,1.4,1.6,2.5c33.8,39.9,67.7,79.7,101.6,119.6c0.8,1,1.7,1.9,2.4,3
	c0.9,1.4,3.7,2.6,1,4.5c-2.5,1.8-3.2-1-4.3-2.2c-1.9-1.9-3.6-4.1-5.4-6.2c-32.8-38.6-65.5-77.2-98.3-115.7c-1.2-1.4-3.1-2.5-2.3-4.8
	C570.9,583.6,571.7,583.3,574.3,583.7z"/>
<path id="XMLID_1134_" class="st0" d="M423.5,416.5c0.1,1.3-0.2,2.1-1.1,2.4c-1.8,0.7-2.8-0.7-3.8-1.7c-6.7-7-13.3-14.1-19.9-21.2
	c-29.8-31.6-59.7-63.1-89.5-94.7c-0.6-0.6-1.2-1.2-1.7-1.9c-1.1-1.3-2.9-2.7-1.3-4.3c2-2.1,3.3,0.2,4.5,1.5
	c12.2,12.8,24.4,25.7,36.6,38.5c24.3,25.7,48.6,51.5,72.9,77.3C421.4,413.9,423.1,414.9,423.5,416.5z"/>
<path id="XMLID_1133_" class="st0" d="M412.4,423.2c-0.5,0.6-0.8,1.5-1.5,1.8c-1.4,0.7-2.3-0.6-3.2-1.4
	c-6.8-5.7-13.5-11.5-20.2-17.2c-32.7-28.1-65.5-56.3-98.2-84.4c-0.6-0.5-1.3-1.1-1.9-1.7c-1.1-1.1-3-2.2-1.3-4.1
	c1.7-2,3-0.1,4.2,0.9c9.3,7.9,18.5,15.9,27.8,23.9c29.4,25.2,58.8,50.4,88.2,75.7C408.4,418.6,411,420.2,412.4,423.2z"/>
<path id="XMLID_1132_" class="st0" d="M703.1,692.7c-0.3,0.2-1,0.9-1.7,1.1c-1.2,0.5-1.9-0.6-2.6-1.2c-4.6-4.3-9.2-8.6-13.8-13
	c-33.4-31.9-66.7-63.8-100-95.7c-0.5-0.4-0.9-0.9-1.3-1.3c-1.2-1.2-2.8-2.3-1-4.1c1.7-1.7,2.6,0.2,3.6,1.1c3.3,2.9,6.5,6,9.7,9
	c34.6,33,69.2,66.1,103.7,99.1C701,688.9,702.8,689.9,703.1,692.7z"/>
<path id="XMLID_1131_" class="st0" d="M722,669.8c-2,3.5-3.9,1.1-5.6-0.2c-11.2-8.6-22.3-17.2-33.5-25.9
	c-28.8-22.3-57.7-44.5-86.5-66.8c-1.7-1.3-5-2.6-2.8-5.2c1.8-2.2,3.6,0.6,5.2,1.8c39.8,30.8,79.7,61.5,119.5,92.3
	C719.8,666.9,721.7,667.7,722,669.8z"/>
<path id="XMLID_1130_" class="st0" d="M401.7,430.6c-1.4,3.1-3.1,1.9-5,0.6c-11.8-8.2-23.5-16.3-35.3-24.4
	c-29.8-20.6-59.5-41.2-89.3-61.8c-0.3-0.2-0.8-0.3-1.1-0.6c-1.2-1.5-4.7-2-2.9-4.7c1.7-2.6,3.7-0.1,5.3,1
	c14.2,9.8,28.4,19.6,42.5,29.4c27.5,19.1,55,38.1,82.5,57.2C399.7,428.2,401.6,428.6,401.7,430.6z"/>
<path id="XMLID_1129_" class="st0" d="M255.2,363.6c0.8,0.4,1.9,1,3,1.6c43,23.5,86.1,47.1,129.1,70.7c0.7,0.4,1.5,0.7,2.2,1.2
	c1.2,0.8,2.7,1.5,1.5,3.4c-1.1,1.8-2.4,1-3.7,0.3c-8.8-4.8-17.7-9.7-26.5-14.5c-34.6-18.9-69.2-37.8-103.8-56.7
	c-1.5-0.8-2.9-1.7-4.1-2.8c-0.4-0.4-0.4-1.6-0.2-2.3C252.9,363.5,253.9,363.3,255.2,363.6z"/>
<path id="XMLID_1128_" class="st0" d="M606.1,562.7c1.2,0.7,2.5,1.4,3.7,2.1c41.8,25.8,83.7,51.6,125.5,77.5
	c1.4,0.9,4.3,1.6,3.2,3.9c-1.3,2.7-3.5,0.9-5.3-0.2c-42.4-26.2-84.7-52.3-127.1-78.4c-1.2-0.8-2.9-1.3-2.5-3.2
	C603.8,563.4,604.7,562.6,606.1,562.7z"/>
<path id="XMLID_1127_" class="st0" d="M752.8,620.1c-0.6,1.9-2.1,2.1-3.5,1.5c-2.5-1.1-4.9-2.4-7.4-3.5c-41-19.7-82-39.4-123-59.1
	c-1.1-0.5-2.2-1.2-3.4-1.7c-1.7-0.6-2.5-1.8-1.7-3.4c0.7-1.3,2.3-1,3.4-0.5c4.6,2.1,9.1,4.3,13.6,6.4
	c39.1,18.8,78.1,37.7,117.2,56.5C749.8,617.4,752.1,617.8,752.8,620.1z"/>
<path id="XMLID_1126_" class="st0" d="M381.8,449.4c-0.3,2.4-1.5,2.7-3.5,1.8c-4.6-2-9.3-3.8-13.9-5.7
	c-39.8-16.7-79.6-33.4-119.4-50.1c-1.4-0.6-2.7-1.1-4.1-1.7c-1.2-0.5-1.3-1.6-1-2.6c0.4-1.3,1.5-1.4,2.5-1.1
	c1.6,0.5,3.2,1.1,4.7,1.7c43.1,18,86.2,36,129.2,54.1C378.3,446.6,381,446.7,381.8,449.4z"/>
<path id="XMLID_1125_" class="st0" d="M233.4,417.7c12,3.5,24.1,7,36.1,10.6c33.1,9.9,66.1,19.9,99.2,29.9c0.6,0.2,1.3,0.1,1.9,0.3
	c1.5,0.6,3.6,1,2.8,3.3c-0.8,2.4-2.6,1.2-4.2,0.7c-14.8-4.4-29.7-8.7-44.5-13.1c-29.3-8.8-58.5-17.6-87.8-26.4
	c-1.4-0.4-2.8-0.9-4.2-1.3c-1.6-0.3-3.1-0.9-2.8-2.7C230.2,417,231.9,417.4,233.4,417.7z"/>
<path id="XMLID_1124_" class="st0" d="M764,593.1c-1,2.4-2.5,2.2-4.6,1.4c-8.6-3.2-17.3-6.2-26-9.3c-35.5-12.7-71-25.3-106.4-38
	c-1.8-0.7-5.6-0.4-4.2-3.9c1.1-2.8,3.7-0.6,5.5,0c43.8,15.6,87.6,31.2,131.4,46.8C761.4,590.7,763.3,591,764,593.1z"/>
<path id="XMLID_1123_" class="st0" d="M225.9,445.8c19.4,3.6,37.9,7,56.5,10.5c26,4.9,52,9.8,77.9,14.7c1,0.2,2.1,0.1,3.1,0.5
	c1.3,0.5,3.3,0.7,2.9,2.6c-0.4,2.1-2.2,1.9-4.1,1.6c-11.1-2.1-22.3-4.1-33.4-6.2c-32.8-6.2-65.6-12.4-98.4-18.6
	c-1.4-0.3-2.9-0.5-4.3-0.8c-1.5-0.4-3.7-0.4-3.1-2.9C223.6,445.1,225.4,445.8,225.9,445.8z"/>
<path id="XMLID_1122_" class="st0" d="M772,565c-0.6,3.2-2.5,2-4.3,1.5c-17.1-4.1-34.3-8.2-51.4-12.3c-27.3-6.6-54.6-13.2-82-19.8
	c-1.9-0.4-4.5-0.4-3.9-2.9c0.7-2.9,3-1.6,5.1-1.1c44,10.7,88.1,21.3,132.1,31.9C769.4,562.7,771.6,562.5,772,565z"/>
<path id="XMLID_1121_" class="st0" d="M225.9,474.9c28.9,2.4,57.9,4.8,86.8,7.2c13,1.1,26,2,39,2.9c2.1,0.2,4.2,0.3,6.3,0.6
	c1.3,0.2,2.5,0.9,2.2,2.5c-0.3,1.5-1.5,1.9-2.9,1.8c-1.9-0.2-3.8-0.6-5.6-0.7c-28.9-2.3-57.9-4.4-86.8-6.7
	c-13.6-1.1-27.3-2.4-40.9-3.7c-1.8-0.2-5.1,1.2-4.6-2.3c0.4-3.1,3.4-1.1,5.3-1.6C225,474.7,225.5,474.9,225.9,474.9z"/>
<path id="XMLID_1120_" class="st0" d="M642.6,516.5c17.3,2.3,34.8,4.6,52.3,6.9c24.4,3.2,48.8,6.4,73.2,9.9c3.3,0.5,9.4-0.4,8.9,3.1
	c-0.6,4.3-5.9,1.3-9.2,0.9c-33.2-4.3-66.4-8.7-99.5-13c-8.8-1.2-17.5-2.4-26.3-3.7c-1.9-0.3-5.1,0.5-4.9-2.4
	C637.4,514.9,640.5,516.8,642.6,516.5z"/>
<path id="XMLID_1119_" class="st0" d="M224.3,536.9c-1.3-0.2-3.2,0.8-3.7-1.4c-0.6-2.6,1.5-2.6,3.1-2.8c15.2-2,30.4-4,45.7-6
	c25-3.2,50-6.5,75-9.6c2.9-0.4,7.5-2.4,8.1,1.1c0.6,3.7-4.4,2.6-6.9,3c-40,5.3-80,10.4-120.1,15.5
	C225.1,536.8,224.7,536.8,224.3,536.9z"/>
<path id="XMLID_1118_" class="st0" d="M286.1,507.8c-20.9,0-41.7,0-62.6-0.1c-1.8,0-4.9,1.5-5.1-1.8c-0.2-3.4,3-2,4.8-2.1
	c42.3-1.2,84.6-2.3,126.9-3.4c0.2,0,0.4,0,0.6,0c1.8,0.4,5.1-1.1,5.2,1.9c0.1,3.2-3.2,2.7-5.4,2.7c-7.4,0.2-14.7,0.2-22.1,0.2
	c-14.1,0-28.2,0-42.3,0C286.1,506.2,286.1,507,286.1,507.8z"/>
<path id="XMLID_1117_" class="st0" d="M649.6,489.9c-0.8,0-3.3,0.9-3.5-1.9c-0.2-2.8,2.7-2.4,4.3-2.5c12.8-1.1,25.6-2,38.4-3
	c27.1-2,54.1-4.1,81.2-6c3.1-0.2,8.5-2.2,8.9,1.3c0.4,4.3-5.3,2.7-8.1,3c-25.6,2.1-51.2,3.8-76.8,5.6
	C679.5,487.4,665,488.6,649.6,489.9z"/>
<path id="XMLID_1116_" class="st0" d="M711.3,507.4c-21.3-0.6-42.5-1.2-63.8-1.9c-1.7-0.1-5,1.1-5-2.1c-0.1-3.5,3.1-2,4.8-2
	c42.9,1.2,85.9,2.4,128.8,3.7c1.6,0,3.8-0.5,3.5,2.2c-0.2,2.7-2.5,1.7-3.9,1.7c-21.5,0-43,0-64.4,0
	C711.3,508.6,711.3,508,711.3,507.4z"/>
<path id="XMLID_1115_" class="st0" d="M650.8,473.6c-1.2-0.1-2.7,0.3-2.9-1.5c-0.3-2.1,1.3-2.3,2.7-2.6c10.1-1.9,20.2-3.9,30.3-5.7
	c29.9-5.4,59.9-10.8,89.9-16.2c1.8-0.3,4.2-1.4,4.7,1.3c0.6,2.8-2.4,2.7-3.9,2.9c-39.8,7.3-79.7,14.5-119.6,21.8
	C651.6,473.5,651.2,473.5,650.8,473.6z"/>
<path id="XMLID_1114_" class="st0" d="M352.1,534.4c-0.7,3.3-3.7,2.8-5.6,3.3c-20.4,4.9-40.8,9.6-61.2,14.4
	c-18.4,4.3-36.7,8.6-55.1,12.9c-1.5,0.4-3.4,1.9-4.2-0.6c-0.8-2.7,1.5-3,3.3-3.4c39.1-9.3,78.3-18.5,117.4-27.7
	C348.7,532.8,351,531.6,352.1,534.4z"/>
<path id="XMLID_1113_" class="st1" d="M907,455.7c1.7,0.5,4.9-1.5,5.1,1.5c0.2,2.6-3,2.2-5,2.4c-40.9,4.2-81.8,8.4-122.6,12.5
	c-3.4,0.3-6.7,0.6-10.1,0.9c-1.5,0.1-3.3,0.5-3.7-1.4c-0.5-2.6,2-2.3,3.4-2.5c14-1.5,28.1-3,42.1-4.4c28.7-2.9,57.5-5.9,86.2-8.8
	C903.9,455.9,905.4,455.8,907,455.7z"/>
<path id="XMLID_1112_" class="st0" d="M649.8,457.2c-0.3,0.1-1.6-0.6-1.8-1.9c-0.4-2.4,2-2.5,3.3-3c13-3.9,26.1-7.7,39.2-11.5
	c24.1-7,48.2-14.1,72.3-21.1c0.8-0.2,1.6-0.5,2.4-0.7c1.5-0.3,3.2-0.5,3.6,1.4c0.3,1.8-1.3,2.2-2.8,2.6c-10.5,3-20.9,6.1-31.3,9.2
	c-26.5,7.8-53,15.6-79.5,23.4C653.7,456.1,652.3,456.5,649.8,457.2z"/>
<path id="XMLID_1111_" class="st1" d="M92.7,564.2c-0.3,0.1-1.9-0.1-2-1.6c-0.2-2.4,2.2-2.3,3.7-2.5c11.6-1.9,23.3-3.7,34.9-5.5
	c29.1-4.5,58.2-9,87.3-13.5c3.1-0.5,6.2-1,9.3-1.5c1.5-0.2,3.2-0.5,3.6,1.5c0.4,2.2-1.6,2.1-2.9,2.3c-10,1.6-19.9,3.3-29.9,4.8
	c-31.6,4.9-63.2,9.7-94.8,14.6C99.2,563.3,96.5,563.7,92.7,564.2z"/>
<path id="XMLID_1110_" class="st1" d="M212.6,511.6c3.4-0.2,6.7-0.3,10.1-0.5c1.6-0.1,3.9-0.7,4,1.7c0.1,2.1-2.3,2.1-3.9,2.2
	c-10.3,0.6-20.6,1.1-30.9,1.6c-33.5,1.6-67,3.2-100.4,4.9c-0.8,0-1.7,0.2-2.5,0.1c-1.8-0.1-4.5,0.8-4.6-1.9c-0.1-2.8,2.8-1.9,4.5-2
	c32.6-1.7,65.3-3.3,97.9-5c8.6-0.4,17.2-0.9,25.9-1.4C212.6,511.5,212.6,511.6,212.6,511.6z"/>
<path id="XMLID_1109_" class="st1" d="M217.3,781.7c-0.8-0.6-1.5-0.8-1.7-1.3c-0.6-1.4,0.4-2.3,1.3-3.2c5.1-5.1,10.1-10.2,15.2-15.2
	c22.4-22.3,44.9-44.6,67.3-66.9c0.4-0.4,0.9-0.9,1.4-1.3c1.5-1.2,3-4.1,5.1-1.8c1.6,1.8-0.9,3.3-2.2,4.5
	c-18.7,18.6-37.4,37.2-56.1,55.7c-8.8,8.8-17.6,17.6-26.5,26.3C219.9,779.6,218.6,780.6,217.3,781.7z"/>
<path id="XMLID_1108_" class="st0" d="M352.7,551.2c-0.2,2.8-2.7,2.6-4.2,3.2c-30.2,10.7-60.4,21.3-90.7,31.9
	c-6.1,2.1-12.2,4.4-18.4,6.4c-1.8,0.6-4.3,2.7-5.3-0.4c-1-2.9,2.2-2.9,4-3.5c31-10.9,62-21.8,93-32.7c5.7-2,11.4-4,17.2-6
	C349.9,549.4,351.9,548.5,352.7,551.2z"/>
<path id="XMLID_1107_" class="st1" d="M761.7,416.6c-1.8,0.3-2.9,0-3.1-1.3c-0.3-1.6,1.1-2.1,2.2-2.5c7.6-2.5,15.2-5,22.8-7.4
	c33.2-10.7,66.4-21.4,99.6-31.9c2.1-0.7,5.6-3.3,6.6-0.2c1.2,3.5-3.3,3-5.3,3.7c-40.1,13.1-80.3,26-120.5,38.9
	C763.1,416.3,762.1,416.5,761.7,416.6z"/>
<path id="XMLID_1106_" class="st1" d="M769,444.5c-1.2-0.1-2.9,0.4-3-1.4c-0.2-2,1.6-2.2,3-2.5c13.4-2.8,26.7-5.6,40.1-8.4
	c29.8-6.2,59.7-12.4,89.5-18.6c1.7-0.4,4.2-1.8,4.7,1c0.5,2.8-2.6,2.4-4.1,2.7c-42.8,9.1-85.6,18-128.3,27
	C770.3,444.5,769.6,444.5,769,444.5z"/>
<path id="XMLID_1105_" class="st1" d="M105.8,605.5c-2,0.3-3.6,0.5-3.8-1.1c-0.3-2.3,2-2.4,3.5-2.8c15.6-4.2,31.3-8.3,47-12.5
	c25.6-6.8,51.2-13.6,76.8-20.3c0.8-0.2,1.7-0.3,2.5-0.5c1.5-0.5,3.1-1.1,3.8,0.7c0.9,2.5-1.5,2.7-2.9,3.1
	c-9.5,2.6-19.1,5.1-28.6,7.6c-31.7,8.4-63.4,16.7-95.1,25.1C107.5,605.1,106.3,605.4,105.8,605.5z"/>
<path id="XMLID_1104_" class="st1" d="M244.4,596.8c-0.4,2.4-2.6,2.6-4.3,3.3c-28.8,11-57.7,22-86.6,33
	c-10.2,3.9-20.4,7.8-30.7,11.6c-1.8,0.7-4.4,2.8-5.5,0.2c-1.2-2.9,2.2-3,4-3.7c31.6-12.1,63.2-24.1,94.9-36.1
	c8.1-3.1,16.1-6.1,24.1-9.2C242,595.2,243.5,594.5,244.4,596.8z"/>
<path id="XMLID_1103_" class="st0" d="M759.3,392.8c-0.4,2.8-2.7,2.8-4.3,3.5c-17.6,7.3-35.3,14.5-52.9,21.7
	c-15.9,6.6-31.7,13.2-47.6,19.8c-1.7,0.7-3.5,1.3-5.3,1.9c-1.1,0.3-2.1,0.2-2.6-1.1c-0.4-1.2,0.2-2.1,1.1-2.6
	c0.9-0.5,1.9-0.9,2.9-1.3c34.1-14,68.2-28.1,102.3-42.1C754.9,391.8,757.4,389.6,759.3,392.8z"/>
<path id="XMLID_1102_" class="st0" d="M247.7,620.6c-1.3,0-2.4-0.1-2.6-1.5c-0.3-1.6,0.8-2.1,2-2.7c7.6-3.6,15.1-7.3,22.6-10.9
	c26.5-12.6,53-25.1,79.5-37.5c1.7-0.8,4.2-3.9,5.7-0.5c1.4,3.1-2.4,3.4-4.2,4.3c-33.2,15.9-66.5,31.6-99.8,47.4
	C249.7,619.7,248.6,620.2,247.7,620.6z"/>
<path id="XMLID_1101_" class="st1" d="M750.8,389.9c-1.3,0-2-0.4-2.3-1.3c-0.5-1,0.3-1.7,0.9-2.1c2-1.1,4.1-2.1,6.2-3
	c36.5-16.1,73-32.3,109.5-48.4c0.6-0.3,1.1-0.7,1.7-0.8c2-0.2,4.6-3.4,5.9-0.2c1.1,2.6-2.5,2.9-4.2,3.6
	c-24.2,10.8-48.4,21.4-72.6,32.1c-13.6,6-27.3,12.1-40.9,18.2C753.6,388.8,752,389.4,750.8,389.9z"/>
<path id="XMLID_1100_" class="st1" d="M851.8,297.6c-0.5,1.9-2,2.4-3.2,3.1c-36.1,20.8-72.3,41.6-108.5,62.3c-1.3,0.7-3,2.7-4.3,0.5
	c-1.5-2.5,1.2-3.1,2.7-4c35.9-20.7,71.9-41.4,107.9-62.1c1.4-0.8,2.8-2.2,4.6-1.2C851.3,296.6,851.5,297.3,851.8,297.6z"/>
<path id="XMLID_1099_" class="st1" d="M138.5,684.1c-0.6-0.3-1.7-0.6-1.9-1.1c-0.8-1.9,0.8-2.5,2.1-3.2c7.9-4,15.7-8.1,23.6-12.1
	c29.3-14.8,58.5-29.6,87.8-44.4c0.9-0.5,1.8-1.1,2.8-1.5c1.2-0.5,2.6-0.7,3.2,0.9c0.5,1.2-0.4,2-1.4,2.5c-2,1.1-4.1,2.1-6.2,3.2
	c-35.1,17.8-70.1,35.6-105.2,53.4C141.8,682.5,140.3,683.2,138.5,684.1z"/>
<path id="XMLID_1098_" class="st1" d="M826.9,263.2c0,2.2-1.9,2.8-3.2,3.7c-20.3,14.7-40.5,29.4-60.8,44.1
	c-12.6,9.1-25.2,18.2-37.9,27.2c-1.3,0.9-2.9,3.6-4.7,1.3c-1.7-2.2,0.9-3.2,2.4-4.2c33-24,66.1-47.9,99.1-71.8
	C823.2,262.4,825.1,260.1,826.9,263.2z"/>
<path id="XMLID_1097_" class="st0" d="M260.8,646.7c-0.6-0.4-1.4-0.8-1.7-1.4c-0.8-1.8,0.6-2.6,1.9-3.4c6.4-3.9,12.9-7.9,19.3-11.8
	c24.3-14.9,48.7-29.8,73-44.7c0.9-0.5,1.8-1.1,2.7-1.6c1.4-0.7,2.8-1.3,3.8,0.5c0.9,1.6-0.5,2.3-1.4,3c-0.6,0.5-1.4,0.9-2.1,1.3
	c-30.4,18.6-60.9,37.2-91.3,55.7C263.7,645.2,262.4,645.8,260.8,646.7z"/>
<path id="XMLID_1096_" class="st0" d="M643.6,423.5c-0.2-0.5-0.5-1.3-0.8-2.1c-0.4-1.2,0-2,1.1-2.6c2.9-1.6,5.8-3.3,8.8-4.9
	c29.3-15.8,58.6-31.7,88-47.4c1.6-0.9,3.8-3.5,5.4-1c1.9,3.1-1.7,3.6-3.5,4.6c-31.5,17.1-63,34.2-94.5,51.3
	C647,422,645.8,422.5,643.6,423.5z"/>
<path id="XMLID_1095_" class="st1" d="M270.3,647.7c-0.1,2-1.4,2.6-2.7,3.4c-34.1,22.1-68.2,44.2-102.3,66.3
	c-0.2,0.1-0.3,0.3-0.5,0.3c-1.6,0.7-3.3,3.1-4.9,0.8c-1.8-2.5,1.2-3.1,2.5-4c4.3-3,8.8-5.7,13.3-8.6c29.7-19.2,59.4-38.4,89.2-57.5
	C266.3,647.5,268.1,644.4,270.3,647.7z"/>
<path id="XMLID_1094_" class="st1" d="M798.8,232.2c-0.5,2.5-2.7,3.7-4.4,5.2c-25.7,23.1-51.5,46.1-77.3,69.2
	c-3.5,3.1-6.8,6.3-10.3,9.3c-1.3,1.1-2.8,3.5-4.6,1.1c-1.4-1.9,0.8-2.9,2-4c12.7-11.4,25.4-22.8,38.1-34.2
	c16.3-14.6,32.7-29.2,49-43.9c1.6-1.4,3.1-2.9,4.8-4.1C797.5,229.8,798.4,230.6,798.8,232.2z"/>
<path id="XMLID_1093_" class="st1" d="M768.2,204.2c-0.8,1-1.4,2.1-2.2,3c-26.5,29.2-52.9,58.5-79.5,87.7c-1.1,1.2-2.3,4-4.4,2
	c-2.1-2,0.6-3.3,1.7-4.6c26.3-29.1,52.6-58.3,78.9-87.3c1.1-1.2,1.9-3,4.1-2.3C767.3,202.9,767.7,203.6,768.2,204.2z"/>
<path id="XMLID_1092_" class="st1" d="M187.6,752.3c-0.7-0.5-1.4-0.8-1.7-1.3c-0.8-1.2,0.1-2,0.9-2.6c3.7-3.1,7.5-6.2,11.2-9.2
	c27.2-21.9,54.5-43.8,81.7-65.8c0.7-0.5,1.2-1.2,2-1.6c1.5-0.9,3.1-3.4,4.8-1.3c1.8,2.2-1,3.2-2.4,4.3c-31,25-62,50-93,75
	C190.1,750.7,188.8,751.5,187.6,752.3z"/>
<path id="XMLID_1091_" class="st0" d="M366.5,601.2c-0.1,2.7-2.2,3.4-3.6,4.5c-20.7,15.9-41.5,31.7-62.2,47.6
	c-6.7,5.1-13.3,10.3-20.1,15.4c-1.4,1.1-3.2,3.1-4.8,0.9c-1.7-2.3,1-3.3,2.3-4.3c27.6-21.2,55.2-42.3,82.8-63.3
	C362.7,600.7,364.5,598.7,366.5,601.2z"/>
<path id="XMLID_1090_" class="st0" d="M731.5,341.7c-0.5,2-1.9,2.6-3.1,3.4c-28.6,19.6-57.2,39.2-85.9,58.7
	c-1.6,1.1-3.4,3.6-5.2,0.7c-1.5-2.5,1.4-3.1,2.8-4c28.6-19.6,57.2-39.2,85.8-58.8c1.3-0.9,2.5-2.4,4.3-1.7
	C730.8,340.3,731.1,341.2,731.5,341.7z"/>
<path id="XMLID_1089_" class="st1" d="M733.9,181.1c-0.4,0.5-1.1,1.5-1.8,2.5c-22.2,30.5-44.5,60.9-66.7,91.4
	c-0.5,0.7-1,1.4-1.6,1.9c-1.1,1-1.7,3.7-3.8,1.8c-1.9-1.6,0.2-3,1.1-4.3c22.7-31.2,45.4-62.3,68.2-93.5c0.9-1.3,1.7-3.2,3.9-2.6
	C734,178.7,734.2,179.6,733.9,181.1z"/>
<path id="XMLID_1088_" class="st1" d="M350.4,730.2c-0.3,0.5-0.9,1.5-1.6,2.6c-20.3,31.2-40.7,62.3-61,93.5
	c-0.6,0.9-1.3,1.7-1.9,2.5c-0.8,1-1.5,2.2-3,1.1c-1.4-1-0.9-2.1-0.1-3.3c2.3-3.5,4.6-7,6.9-10.5c18.5-28.3,37.1-56.7,55.6-85
	c0.7-1.1,1.4-2.1,2.2-3.1c0.6-0.7,1.4-1,2.2-0.5C350.4,727.9,351.1,728.4,350.4,730.2z"/>
<path id="XMLID_1087_" class="st1" d="M327.6,712.4c-0.7,1-1.4,2.3-2.3,3.4c-24,29.5-48.1,59.1-72.2,88.6c-1.1,1.4-2.2,4.7-4.6,2.8
	c-2.5-1.9,0.5-3.6,1.6-5.1c23.4-28.8,46.7-57.5,70.1-86.2c1.3-1.6,2.6-3.3,4.1-4.8C325.6,709.9,326.9,709.9,327.6,712.4z"/>
<path id="XMLID_1086_" class="st1" d="M698.4,160.2c-0.5,0.8-1.2,1.9-1.8,3c-18.7,32.2-37.5,64.4-56.3,96.6c-0.9,1.6-1.6,5-4.2,3.4
	c-2.8-1.6,0.1-3.6,1-5.2c18.7-32.3,37.4-64.5,56.1-96.7c0.9-1.6,1.3-3.8,3.7-3.8C698.1,157.5,698.6,158.7,698.4,160.2z"/>
<path id="XMLID_1085_" class="st0" d="M296,692.7c-1.9-0.4-2.2-1.8-1.3-3.3c0.6-1.1,1.7-1.9,2.6-2.7c23.6-22.3,47.3-44.6,70.9-66.9
	c0.8-0.7,1.5-1.5,2.3-2.2c1.3-1.2,2.9-2.2,4.3-0.4c1.3,1.7-0.6,2.6-1.6,3.5c-9.1,8.7-18.3,17.4-27.5,26.1
	c-15.3,14.5-30.7,29-46,43.5C298.7,691.4,297.8,692.8,296,692.7z"/>
<path id="XMLID_1084_" class="st0" d="M631.5,389.2c-0.8-0.5-1.8-0.8-2.1-1.4c-0.8-1.4,0.4-2.3,1.3-3.1c4.1-3.6,8.2-7.2,12.4-10.8
	c21.5-18.3,43.1-36.6,64.7-54.8c1.4-1.2,3-4.2,5.1-1.9c2.4,2.7-1.1,4-2.6,5.3c-24.9,21.2-49.8,42.4-74.7,63.6
	C634.4,387.1,633,388.1,631.5,389.2z"/>
<path id="XMLID_1083_" class="st1" d="M320.7,848.9c-2.6-0.4-2.4-1.7-1.4-3.5c2.7-5,5.2-10.1,7.8-15.1
	c14.4-28.1,28.8-56.2,43.3-84.3c0.8-1.6,1.1-5.2,3.9-3.9c3.2,1.5,0.3,4.1-0.6,5.9c-16.6,32.5-33.2,64.8-49.9,97.2
	C323.1,846.6,322.7,848.4,320.7,848.9z"/>
<path id="XMLID_1082_" class="st1" d="M660.9,142.9c-0.4,1.1-0.8,2.1-1.2,3c-15.1,33.5-30.1,67.1-45.2,100.6c-0.4,1-0.8,2-1.3,2.9
	c-0.6,1.1-1.7,1.5-2.6,0.9c-0.5-0.3-0.9-1.5-0.7-2.2c0.3-1.4,1-2.8,1.6-4.1c14.7-32.8,29.4-65.6,44.2-98.4c0.6-1.3,1.3-2.6,1.9-4
	c0.4-0.8,1-1.4,2-1.2C660.7,140.8,660.9,141.9,660.9,142.9z"/>
<path id="XMLID_1081_" class="st1" d="M584.8,240.3c-2.5-0.5-2-2.5-1.6-4c1.1-4,2.5-8,3.8-12c9.8-29.9,19.6-59.8,29.4-89.8
	c0.3-0.8,0.5-1.6,0.8-2.4c0.8-1.6,0.5-5,3.6-3.8c2.5,0.9,0.7,3.4,0.2,5c-4,12.6-8.3,25.1-12.4,37.6c-7.1,21.5-14.1,43-21.2,64.5
	C586.9,237.2,586.9,239.3,584.8,240.3z"/>
<path id="XMLID_1080_" class="st0" d="M693.8,297.6c-1.1,1.3-1.9,2.5-2.9,3.6c-21.9,23-43.9,46-65.9,68.9c-1.3,1.3-2.6,4.3-4.9,1.8
	c-1.7-1.8,0.5-3.4,1.8-4.7c22.1-23.1,44.2-46.3,66.4-69.4c1.1-1.1,1.9-3,4-2.3C692.9,295.8,693.3,296.8,693.8,297.6z"/>
<path id="XMLID_1079_" class="st1" d="M401.8,756c-0.4,1-0.8,2.4-1.3,3.8c-12.6,32.7-25.3,65.4-37.9,98.1c-0.2,0.6-0.6,1.1-0.8,1.7
	c-0.8,1.8-0.7,5-3.7,3.7c-2.3-1-0.5-3.4,0.1-5c5.6-14.5,11.2-29,16.8-43.5c7.3-18.8,14.5-37.6,21.8-56.4c0.5-1.4,1-2.8,1.8-4
	c0.3-0.5,1.4-0.8,2.2-0.7C401.7,753.8,401.9,754.7,401.8,756z"/>
<path id="XMLID_1078_" class="st0" d="M318.1,713.5c-1.2-0.7-1.8-1-2.2-1.4c-1-1.3-0.2-2.4,0.6-3.3c3.5-4.2,7-8.4,10.6-12.6
	c17.6-20.4,35.1-40.8,52.7-61.2c1.3-1.5,2.5-4.4,4.8-2.7c2.6,1.9-0.1,3.6-1.4,5.1c-20.5,24-41.1,47.9-61.7,71.8
	C320.4,710.6,319.3,712.1,318.1,713.5z"/>
<path id="XMLID_1077_" class="st1" d="M429,766c-3.9,14.4-7.8,28.8-11.7,43.1c-5.5,20.3-10.9,40.5-16.4,60.8c-0.5,1.7-0.4,4.5-3,3.8
	c-2.7-0.7-1-3.3-0.6-4.8c9.1-34.1,18.3-68.1,27.5-102.1c0.5-1.7,0.4-4.3,2.8-4.2C429.7,762.6,429.2,764.5,429,766z"/>
<path id="XMLID_1076_" class="st0" d="M398.3,648.6c-1,1.5-1.7,2.8-2.6,4c-17.2,24.9-34.4,49.8-51.7,74.6c-1.1,1.6-2,4.8-4.5,3.3
	c-2.9-1.9,0-4.1,1.1-5.8c17-24.8,34.1-49.5,51.2-74.2c0.8-1.2,1.8-2.4,2.8-3.4c0.5-0.5,1.4-1.1,2.2-0.2
	C397.5,647.4,397.9,648,398.3,648.6z"/>
<path id="XMLID_1075_" class="st0" d="M609.8,357.6c-0.5-0.3-1.2-0.4-1.5-0.9c-1.1-1.6,0.2-2.7,1.1-3.8c4.7-6.2,9.5-12.3,14.2-18.5
	c14.1-18.3,28.3-36.6,42.5-54.8c1.1-1.4,1.7-4.8,4.5-2.7c2.8,2.1-0.2,3.7-1.3,5.1c-18.7,24.3-37.4,48.6-56.2,72.9
	C612.3,355.9,611.7,357.4,609.8,357.6z"/>
<path id="XMLID_1074_" class="st1" d="M555.2,229.1c2.5-11.6,5.1-23.3,7.6-35c5-23.4,10.1-46.8,15.1-70.2c0.4-1.7-0.1-4.5,2.6-4.1
	c2.7,0.5,1.4,3.2,1.1,4.8c-7.4,34.7-15,69.4-22.5,104.1c-0.4,1.6-0.3,3.8-2.5,3.8C554.5,232.6,555.4,230.4,555.2,229.1z"/>
<path id="XMLID_1073_" class="st1" d="M541.5,121.7c-2.9,26.4-5.7,52.7-8.6,79.1c-0.8,7.3-1.3,14.7-2.2,22c-0.2,1.8,0.4,5.2-2.5,4.9
	c-3.5-0.3-1.3-3.3-1.1-5.1c3.4-34,7-67.9,10.4-101.8c0.1-0.8,0-1.7,0.3-2.5c0.4-1.3,0.5-3.3,2.5-3c1.5,0.3,1.3,1.9,1.3,3.2
	c0,1.1-0.2,2.1-0.3,3.1C541.4,121.7,541.5,121.7,541.5,121.7z"/>
<path id="XMLID_1072_" class="st1" d="M457.2,772.2c-3.3,20.9-6.7,42.1-10.1,63.2c-1.9,12.2-3.9,24.5-5.8,36.7
	c-0.3,1.7-0.6,3.3-0.9,5c-0.3,1.4-0.1,3.3-2.2,3.1c-2.6-0.2-1.9-2.3-1.7-3.9c1.7-10.4,3.4-20.7,5-31.1c3.7-23.2,7.4-46.5,11.2-69.7
	c0.2-1.5,0.6-2.9,0.9-4.3c0.3-1.4,0.3-3.2,2.6-2.4C457.8,769.3,457.6,770.6,457.2,772.2z"/>
<path id="XMLID_1071_" class="st0" d="M412.4,662c-0.6,1.4-1.1,2.5-1.7,3.6c-14,25.5-28,51.1-42,76.5c-0.9,1.6-1.2,4.9-4.1,3.5
	c-2.9-1.4-0.5-3.5,0.4-5.1c13.9-25.6,27.9-51.1,41.9-76.7c0.6-1.1,1.1-2.3,1.9-3.2c0.4-0.5,1.6-0.6,2.2-0.4
	C411.6,660.4,412,661.3,412.4,662z"/>
<path id="XMLID_1070_" class="st0" d="M596,343.2c-2.6-1.1-1.6-2.8-0.4-4.7c5.2-8.4,10.3-16.8,15.5-25.3
	c10.3-16.6,20.6-33.3,30.9-49.9c1-1.6,1.5-4.9,4.2-3.4c3.4,1.9,0.1,4-0.9,5.7c-15.2,24.7-30.4,49.4-45.7,74.1
	C598.9,341.1,598.7,343.1,596,343.2z"/>
<path id="XMLID_1069_" class="st1" d="M458.9,124.8c0,0.1,0-0.8,0-1.6c0.1-1.4-0.5-3.3,1.8-3.2c1.9,0.1,2,1.8,2.2,3.3
	c0.8,8.6,1.7,17.2,2.5,25.8c2.4,23.7,4.8,47.4,7.2,71.1c0.1,1.3,0.4,2.5,0.3,3.8c-0.1,1.5,1,3.8-1.8,3.8c-2,0-1.9-1.8-2-3.3
	c-2.5-24.7-5-49.5-7.6-74.2C460.7,142.1,459.8,133.9,458.9,124.8z"/>
<path id="XMLID_1068_" class="st1" d="M476.8,870.8c1.7-31.5,3.4-63.1,5.1-94.6c0.1-1.8-0.3-4.6,2.1-4.6c2.8,0,1.7,2.9,1.7,4.5
	c-1.4,28-3,55.9-4.5,83.9c-0.3,6.1-0.5,12.2-0.8,18.3c-0.1,1.7-0.2,4-2.2,4c-2.5,0-1.6-2.4-1.7-4c-0.1-2.5,0-5.1,0-7.6
	C476.6,870.8,476.7,870.8,476.8,870.8z"/>
<path id="XMLID_1067_" class="st1" d="M519.8,873.4c0,1.3,0,2.5,0,3.8c-0.1,1.2,0.2,2.7-1.6,2.9c-2.2,0.2-2.1-1.5-2.2-3
	c-0.3-4.4-0.7-8.8-0.9-13.2c-1.4-27.8-2.7-55.5-4.1-83.3c-0.1-1.5-0.1-3,0-4.4c0.1-1.7-0.8-4.6,1.9-4.5c2.5,0,1.9,2.8,1.9,4.6
	c1.6,32.4,3.2,64.7,4.7,97.1C519.6,873.4,519.7,873.4,519.8,873.4z"/>
<path id="XMLID_1066_" class="st1" d="M539.5,772c0-1.3-0.4-2.9,1.3-3.1c2.9-0.3,2.6,2.4,2.8,4c2.3,13.9,4.4,27.8,6.5,41.8
	c2.7,17.9,5.4,35.8,8,53.6c0.3,1.9,2.3,4.7-0.7,5.3c-3.7,0.7-2.6-3.3-2.9-5c-3.8-23.2-7.3-46.5-10.8-69.8
	C542.4,789.8,540.9,780.9,539.5,772z"/>
<path id="XMLID_1065_" class="st1" d="M444.6,230c0.2,0.6,0.1,2.1-1.4,2.3c-2.9,0.4-2.5-2.5-2.8-3.9c-4-18.7-7.8-37.5-11.7-56.2
	c-2.7-13-5.4-25.9-8-38.9c-0.4-1.9-2.2-4.7,0.9-5.2c2.8-0.5,2.5,3,2.9,4.8c5.3,24.9,10.4,49.8,15.6,74.7
	C441.5,214.8,442.9,222,444.6,230z"/>
<path id="XMLID_1064_" class="st1" d="M383.5,140.3c3.2,0.6,3,3.1,3.6,4.9c9.2,28.6,18.5,57.2,27.6,85.9c0.8,2.6,4.4,6.8,0.8,8
	c-3.4,1.2-3.5-4.3-4.4-6.9c-9.3-28.3-18.4-56.8-27.4-85.2C383,144.9,381.2,142.5,383.5,140.3z"/>
<path id="XMLID_1063_" class="st1" d="M597,860.5c0.1,1.6,0.2,3-1.6,3.1c-2.1,0.1-2-1.7-2.4-3.1c-3-11.4-6.1-22.7-9.1-34.1
	c-5.1-19.3-10.2-38.6-15.3-57.9c-0.5-1.9-1.9-4.8,0.6-5.4c2.8-0.7,2.5,2.7,3,4.5c8.1,30.3,16.1,60.5,24.1,90.8
	C596.4,859.2,596.8,860,597,860.5z"/>
<path id="XMLID_1062_" class="st0" d="M391.5,758.7c-3.2-0.9-1.7-2.7-1-4.4c3.4-8.1,6.8-16.2,10.2-24.3
	c7.4-17.8,14.8-35.6,22.3-53.3c0.8-1.8,0.9-5.6,4.3-3.8c2.6,1.4,0.2,3.8-0.5,5.5c-10.5,25.3-21,50.6-31.7,75.9
	C394.3,755.9,394.3,758.5,391.5,758.7z"/>
<path id="XMLID_1061_" class="st1" d="M498.2,171.5c0-16.9,0-33.7,0.1-50.6c0-1.8-1.2-5.1,1.8-5.1c2.9,0,1.9,3.2,1.9,5.1
	c0,32.3,0,64.5,0,96.8c0,1.7-0.1,3.4-0.2,5.1c-0.1,1.6,0.2,3.9-2.3,3.6c-2-0.2-1.3-2.3-1.3-3.6C498.1,205.6,498.1,188.6,498.2,171.5
	C498.2,171.5,498.2,171.5,498.2,171.5z"/>
<path id="XMLID_1060_" class="st0" d="M622.1,247.7c-0.9,1.8-1.5,3.2-2.1,4.5c-11.8,24.6-23.6,49.1-35.4,73.7
	c-0.6,1.3-1.2,2.7-2,3.9c-0.4,0.5-1.7,0.7-2.3,0.5c-0.5-0.2-1.1-1.4-1-2c0.3-1.4,0.8-2.8,1.5-4.1c11.9-24.8,23.8-49.5,35.7-74.3
	c0.5-1.1,1.2-2.2,1.8-3.3c0.5-0.8,1.3-1.3,2.1-0.8C621.1,246.3,621.6,247.2,622.1,247.7z"/>
<path id="XMLID_1059_" class="st1" d="M596.7,753.8c1.8,0.2,2.2,1.8,2.7,3.1c11.2,29.5,22.5,58.9,33.7,88.4c0.6,1.6,1.6,3.6-0.8,4.1
	c-2.6,0.6-2.7-2.2-3.3-3.8c-8.2-21.4-16.3-42.8-24.4-64.2c-2.9-7.7-5.9-15.3-8.8-23C595.2,756.8,593.7,754.8,596.7,753.8z"/>
<path id="XMLID_1058_" class="st1" d="M348,156.6c2,0.1,2.4,1.7,3,3c12.6,28.6,25.2,57.2,37.8,85.8c0.6,1.5,2,3.5-0.2,4.3
	c-2.1,0.8-2.5-1.5-3.2-3c-12.7-28.6-25.4-57.1-38.1-85.7C346.7,159.5,344.9,157.6,348,156.6z"/>
<path id="XMLID_1057_" class="st0" d="M445.7,685.5c-2.3,7.4-4.6,14.8-6.8,22.2c-5.6,18.8-11.1,37.7-16.8,56.5
	c-0.5,1.7-0.2,5.1-3.3,4.3c-2.9-0.8-1.3-3.4-0.7-5.3c7.5-25.2,15-50.4,22.5-75.7c0.3-1,0.5-2,0.9-3c0.5-1.3,1.4-2.2,2.9-1.6
	C445.5,683.3,445.8,684.3,445.7,685.5z"/>
<path id="XMLID_1056_" class="st1" d="M622.9,742.2c2.5,0.2,2.6,2.4,3.4,4c9.7,19.1,19.4,38.3,29.2,57.4c3.9,7.7,7.8,15.4,11.8,23.1
	c0.9,1.7,2.3,3.8-0.1,4.8c-2.1,0.9-2.5-1.6-3.2-3c-13.7-27-27.5-54-41.2-81C621.9,746,619.6,743.9,622.9,742.2z"/>
<path id="XMLID_1055_" class="st0" d="M564.4,319.1c-3.3-0.8-2.2-2.8-1.6-4.5c3-8.7,6.1-17.4,9.2-26c5.8-16.3,11.7-32.7,17.5-49
	c0.3-0.8,0.7-1.5,1-2.3c0.5-1.6,0.9-3.6,3.3-2.6c1.7,0.8,1.1,2.6,0.7,3.9c-2.3,6.7-4.9,13.4-7.2,20c-6.6,18.5-13.1,37.1-19.7,55.6
	C566.8,316,566.8,318.5,564.4,319.1z"/>
<path id="XMLID_1054_" class="st1" d="M314.4,176c1.6,0.2,2.1,1.4,2.7,2.5c15.3,26.6,30.6,53.2,45.8,79.9c0.8,1.4,2.2,3.3,0.3,4.4
	c-2.1,1.2-2.7-1.2-3.5-2.5c-15.2-26.4-30.5-52.8-45.7-79.2C313,179.3,311.4,177.4,314.4,176z"/>
<path id="XMLID_1053_" class="st1" d="M647.9,728.1c1.9,0.3,2.6,1.8,3.3,3c16,24.7,32,49.4,48,74.2c0.9,1.4,3.1,3.3,0.6,4.8
	c-2.1,1.3-2.8-1.2-3.7-2.5c-16.2-24.9-32.2-49.8-48.4-74.7c-0.8-1.2-1.8-2.4-1.2-4C646.8,728.5,647.6,728.3,647.9,728.1z"/>
<path id="XMLID_1052_" class="st1" d="M254.5,224.8c1.6,0.1,2.3,1.3,3.1,2.2c19.4,21.6,38.8,43.2,58.2,64.9c1,1.1,3.1,2.6,1.2,4.2
	c-1.8,1.6-3-0.5-4-1.7c-19.4-21.6-38.8-43.2-58.2-64.9c-0.9-1-2.5-1.9-1.6-3.7C253.5,225.3,254.1,225.1,254.5,224.8z"/>
<path id="XMLID_1051_" class="st1" d="M339.8,275.6c0.3,1.5,0,2.3-0.8,2.7c-0.5,0.2-1.4,0.2-1.7-0.2c-1-1-2-2.2-2.8-3.4
	c-16.8-23.2-33.6-46.4-50.3-69.6c-0.6-0.9-1.2-1.7-1.8-2.6c-0.8-1.1-1.2-2.5,0-3.4c1.4-1,2.4,0.3,3.1,1.2
	c3.8,5.1,7.5,10.1,11.2,15.3c13.7,18.9,27.3,37.9,41,56.9C338.4,273.7,339.2,274.9,339.8,275.6z"/>
<path id="XMLID_1050_" class="st0" d="M464.2,695.5c-1.8,9.7-3.6,20.2-5.6,30.8c-2.8,14.9-5.6,29.7-8.5,44.6c-0.4,1.9,0.3,4.9-3,4.3
	c-3.1-0.6-1.2-3.1-0.9-4.7c4.6-25.2,9.3-50.4,14-75.6c0.3-1.7,0.5-3.6,2.8-3.3C464.7,691.8,464.4,693.4,464.2,695.5z"/>
<path id="XMLID_1049_" class="st1" d="M670.9,711.2c2.1,0.1,2.9,1.8,3.9,3.1c18,22.2,36,44.5,54,66.8c1.1,1.4,3.1,3.1,0.9,4.8
	c-1.9,1.5-2.9-0.8-3.9-2c-18.2-22.6-36.4-45.2-54.6-67.9c-0.8-1-2.6-1.9-1.7-3.7C669.8,711.8,670.5,711.5,670.9,711.2z"/>
<path id="XMLID_1048_" class="st0" d="M566.7,229.4c-3.5,14.7-6.9,29.2-10.4,43.6c-2.6,10.8-5.2,21.6-7.9,32.3
	c-0.4,1.5-0.1,4.5-3.1,3.6c-2.7-0.8-1.3-3.1-0.9-4.8c5.8-24.2,11.7-48.4,17.5-72.6c0.2-1,0.8-2,0.9-3c0.2-1.5,0.9-2.4,2.4-2.3
	C567.4,226.5,566.6,228.3,566.7,229.4z"/>
<path id="XMLID_1047_" class="st1" d="M230.2,253.4c0.6,0.5,1.6,1.2,2.5,2.1c20.6,18.6,41.2,37.2,61.8,55.9c1.2,1.1,4.1,2.3,2.5,4.3
	c-2,2.5-3.8-0.2-5.2-1.5c-20.8-18.8-41.5-37.6-62.2-56.4c-1-0.9-2.8-1.6-2-3.5C227.9,253.6,228.7,253.1,230.2,253.4z"/>
<path id="XMLID_1046_" class="st0" d="M537.7,226.7c-3.1,23.7-6.1,47-9.3,70.3c-0.2,1.7,0,4.5-2.7,4.2c-3.5-0.4-1.7-3.1-1.4-5
	c3.1-23.1,6.1-46.2,9.3-69.3c0.3-2.3-0.8-6.3,2.6-6C540.3,221.2,536.8,225,537.7,226.7z"/>
<path id="XMLID_1045_" class="st1" d="M712.2,670.5c1.3,0.9,2.3,1.6,3.3,2.3c20.9,17,41.8,34,62.6,51.1c1.5,1.2,4.4,2.4,2.4,4.8
	c-1.8,2.1-3.3-0.6-4.6-1.6c-21.1-17.1-42.2-34.2-63.2-51.4c-1.2-1-3.2-1.8-2.4-3.9C710.5,671.3,711.5,671,712.2,670.5z"/>
<path id="XMLID_1044_" class="st0" d="M484.4,704.7c-1.9,24.2-3.6,46.9-5.4,69.5c-0.2,1.9,0.4,5-2.7,4.8c-3.3-0.2-1.9-3.2-1.8-5
	c1.9-23.5,3.9-47,5.9-70.5c0.1-0.8,0-1.7,0.1-2.5c0-1.7,0.7-3,2.5-2.8c1.6,0.2,1.6,1.7,1.5,3C484.5,702.8,484.4,704.5,484.4,704.7z"
	/>
<path id="XMLID_1043_" class="st1" d="M207.2,283.7c1.1,0.8,2.1,1.5,3.1,2.2c22.1,16.1,44.2,32.3,66.2,48.4c1.4,1.1,4,2.1,2,4.3
	c-1.5,1.7-3-0.4-4.3-1.3c-22.1-16.1-44.2-32.2-66.3-48.4c-1.3-0.9-3.1-1.8-2.3-3.9C205.9,284.5,206.6,284.2,207.2,283.7z"/>
<path id="XMLID_1042_" class="st1" d="M263.8,360.8c-0.5,2.2-1.4,3-3.2,2.1c-2-1.1-4-2.2-6-3.4c-21.4-12.5-42.8-25-64.2-37.5
	c-1.6-0.9-5-1.5-3.2-4.2c1.6-2.6,3.7,0.2,5.3,1.1c22.4,12.9,44.7,25.9,67,38.9C261,358.6,262.4,359.8,263.8,360.8z"/>
<path id="XMLID_1041_" class="st1" d="M729.5,647.5c1,0.6,2.3,1.3,3.6,2.1c21.3,14,42.6,28,63.9,42c0.5,0.3,1.1,0.6,1.6,1
	c1.3,1.1,4.1,1.8,2.7,4.1c-1.6,2.7-3.3,0-4.7-0.8c-14-9-27.9-18.2-41.8-27.3c-8.5-5.5-17-11-25.4-16.6c-1.2-0.8-2.6-1.6-2.1-3.5
	C727.6,647.7,728.2,647.1,729.5,647.5z"/>
<path id="XMLID_1040_" class="st1" d="M173.2,351.2c1.4,0.6,2.6,1,3.7,1.5c23.2,10.4,46.4,20.7,69.5,31.2c1.6,0.7,5.1,0.9,3.4,4
	c-1.3,2.3-3.4,0.2-5-0.5c-23.4-10.4-46.7-21-70.1-31.5c-1.4-0.6-3.6-0.8-3.2-3.1C171.7,352.1,172.7,351.6,173.2,351.2z"/>
<path id="XMLID_1039_" class="st1" d="M743.7,622.8c1.6,0.7,3,1.3,4.3,1.9c22.2,11.4,44.4,22.8,66.6,34.2c1.6,0.8,5.1,1.2,3.7,4
	c-1.4,2.7-3.7,0.2-5.4-0.6c-22.6-11.5-45.2-23.2-67.8-34.8c-1.6-0.8-3.9-1.3-3.3-3.9C741.9,623.2,743.1,623,743.7,622.8z"/>
<path id="XMLID_1038_" class="st0" d="M507.6,742c0,11.2,0,22.4,0,33.5c0,1.7,1,4.4-1.9,4.4c-2.8,0.1-2.2-2.6-2.3-4.3
	c-0.5-22.8-1-45.5-1.4-68.3c0-1.5-1.3-4.4,1.8-4.4c3-0.1,2,2.7,2.1,4.3c0.1,11.6,0.1,23.2,0.1,34.8C506.5,742,507.1,742,507.6,742z"
	/>
<path id="XMLID_1037_" class="st0" d="M504.7,257.1c0-11.2,0-22.3,0-33.5c0-1.9-0.9-4.9,2.2-4.9c3.2,0,2.2,3,2.2,4.9
	c-0.6,22.5-1.3,45-2,67.6c-0.1,1.9,0.3,4.5-2.1,4.6c-2.7,0-1.9-2.7-1.9-4.5c0-11.4,0-22.7,0-34.1
	C503.7,257.1,504.2,257.1,504.7,257.1z"/>
<path id="XMLID_1036_" class="st1" d="M755.8,596.5c1.2,0.4,2.4,0.8,3.6,1.3c22.3,8.7,44.7,17.3,67,26c1,0.4,2,0.7,2.9,1.2
	c1.3,0.6,3,1.2,2.2,3.2c-0.9,2.2-2.5,0.7-3.7,0.3c-10.2-3.9-20.4-7.7-30.6-11.7c-13.7-5.3-27.4-10.7-41.1-16.1
	c-1.3-0.5-3.1-0.7-2.7-2.7C753.5,596.7,754.7,596.4,755.8,596.5z"/>
<path id="XMLID_1035_" class="st1" d="M239.9,413.7c-0.7,2.5-2.7,1.7-4.3,1.2c-9.6-3.1-19.1-6.3-28.7-9.5
	c-14.2-4.7-28.4-9.3-42.5-13.9c-1.7-0.6-4.6-0.6-3.9-3c0.9-3,3.6-1.1,5.4-0.6c23.4,7.6,46.7,15.3,70,23.1
	C237.2,411.5,239.2,411.3,239.9,413.7z"/>
<path id="XMLID_1034_" class="st0" d="M476.1,222.7c-0.3-1.7-0.3-3.8,2.1-3.6c2.2,0.1,2.1,2.3,2.2,3.9c0.9,11.3,1.7,22.7,2.6,34
	c0.8,10.3,1.5,20.6,2.3,30.9c0.1,1.7,0.5,3.9-1.6,4.2c-2.7,0.5-2.8-2-2.9-3.8C479.2,266.5,477.6,244.6,476.1,222.7z"/>
<path id="XMLID_1033_" class="st1" d="M692.9,691.6c1,0.9,1.9,1.7,2.8,2.6c19.8,19.8,39.6,39.7,59.3,59.6c1.2,1.2,3.8,2.4,1.9,4.4
	c-1.9,2-3.4-0.5-4.6-1.7c-19.8-19.8-39.6-39.7-59.3-59.6c-1.1-1.1-3-2-1.8-4.1C691.5,692.3,692.2,692.1,692.9,691.6z"/>
<path id="XMLID_1032_" class="st0" d="M536.5,773.4c-0.2,1.7,1.1,3.8-1.6,4.2c-2.6,0.4-2.3-1.7-2.5-3.4c-2.8-21.6-5.6-43.3-8.4-64.9
	c-0.2-1.7-0.8-3.7,1.5-4.1c2.3-0.4,2.7,1.7,2.9,3.3C531.1,730.3,533.8,752,536.5,773.4z"/>
<path id="XMLID_1031_" class="st1" d="M837.4,592.7c-9-2.4-18.3-5-27.6-7.5c-14.6-3.9-29.2-7.8-43.7-11.9c-1.5-0.4-4.5-0.2-3.6-3
	c0.7-2.2,2.8-1,4.4-0.6c23.7,6.4,47.4,12.7,71.1,19.1c1.6,0.4,3.7,0.6,3.1,3C840.7,593.3,839,592.8,837.4,592.7z"/>
<path id="XMLID_1030_" class="st1" d="M156.2,423.6c21.6,4.6,43.1,9.2,64.7,13.9c2.5,0.5,4.9,1.1,7.4,1.7c1.7,0.4,4.6,0,3.8,2.8
	c-0.7,2.4-3.2,1.1-4.9,0.8c-16.4-3.5-32.9-7.1-49.3-10.6c-7.4-1.6-14.8-3-22.2-4.7c-1.3-0.3-3.4-0.4-3-2.4
	C153,423.1,154.6,423.1,156.2,423.6z"/>
<path id="XMLID_1029_" class="st1" d="M844.6,556.7c-16.7-2.7-32-5.2-47.3-7.6c-8.5-1.4-17-2.7-25.5-4.1c-1.4-0.2-4,0.3-3.4-2.4
	c0.5-2.3,2.5-1.6,4.2-1.3c23.2,3.7,46.4,7.3,69.6,11.1c1.7,0.3,4.3,0,4.4,2.6C846.6,556.9,844.8,556.7,844.6,556.7z"/>
<path id="XMLID_1028_" class="st1" d="M154,460.4c22,2.2,45.1,4.6,68.1,6.9c1,0.1,2.1,0.3,3.1,0.6c1.3,0.4,3.4,0.1,2.8,2.4
	c-0.5,1.8-2.1,1.5-3.7,1.3c-10.9-1.2-21.8-2.2-32.6-3.3c-11.5-1.2-23-2.5-34.5-3.7c-1.7-0.2-3.3-0.4-5-0.8c-1.3-0.3-3.5-0.1-3.2-2.1
	C149.3,459.6,151.3,459.7,154,460.4z"/>
<path id="XMLID_1027_" class="st0" d="M462.7,288c0.1,1.3,0,2.7-1.6,3c-2.7,0.5-2.5-1.9-2.7-3.3c-1.9-9.7-3.7-19.4-5.5-29
	c-1.9-10.7-3.7-21.5-5.6-32.2c-0.3-1.5-0.6-3.2,1.3-3.6c1.8-0.4,2.5,1.1,2.8,2.7c3.8,20.6,7.5,41.2,11.3,61.9
	C462.7,287.6,462.7,287.8,462.7,288z"/>
<path id="XMLID_1026_" class="st1" d="M780.7,512.7c22.1,1.3,42.9,2.5,63.6,3.7c1.5,0.1,3.9-0.6,3.7,2.1c-0.2,2.5-2.4,1.9-4,1.8
	c-22.9-1.2-45.8-2.5-68.6-3.8c-1.6-0.1-3.9,0.3-3.8-2.1c0.1-2.6,2.5-1.6,4-1.6C777.8,512.6,779.9,512.7,780.7,512.7z"/>
<path id="XMLID_1025_" class="st0" d="M565.4,769.5c-0.2,1.2,0.4,2.7-1.4,3c-3.1,0.5-2.7-2.2-3.1-3.7c-4.1-16.7-8-33.4-11.9-50.1
	c-0.7-2.9-1.3-5.7-2-8.6c-0.4-1.7-1.9-3.9,0.9-4.7c2.9-0.9,2.8,2.1,3.2,3.6c2.4,10,4.6,20,7,30C560.5,749.2,563,759.4,565.4,769.5z"
	/>
<path id="XMLID_1024_" class="st1" d="M779.1,487.4c-2-1-7,2.4-7.1-1.9c-0.1-3.5,4.9-1.6,7.4-1.8c20.5-1.3,41.1-2.3,61.7-3.3
	c1.9-0.1,4.9-1.2,4.9,2c0,2.4-2.9,1.7-4.6,1.8C820.9,485.2,800.3,486.3,779.1,487.4z"/>
<path id="XMLID_1023_" class="st1" d="M160,535.7c-0.8,0.1-1.7,0.2-2.5,0.2c-1.4,0-3.4,0.7-3.7-1.3c-0.4-2.5,1.9-2.4,3.4-2.6
	c13.6-1.4,27.2-2.7,40.8-4c8.6-0.8,17.2-1.8,25.8-2.5c1.5-0.1,3.9-0.9,4.1,1.5c0.1,2.1-2.1,2.1-3.8,2.3
	C202.7,531.5,181.3,533.7,160,535.7C160,535.8,160,535.8,160,535.7z"/>
<path id="XMLID_1022_" class="st0" d="M420.6,229.4c1.7,0.1,2.1,1.8,2.5,3.1c5.5,18.6,11,37.3,16.5,56c0.4,1.5,1,3-0.9,3.7
	c-2.5,1-2.8-1.3-3.2-2.7c-5.6-18.6-11-37.3-16.5-55.9C418.3,231.7,418.2,230.2,420.6,229.4z"/>
<path id="XMLID_1021_" class="st0" d="M570.4,702.9c2-0.3,2.7,0.7,3.1,2c6.6,18.6,13.1,37.1,19.6,55.7c0.4,1.3,0.9,3.2-1,3.8
	c-1.9,0.6-2.4-0.9-3-2.4c-6.5-18.6-13.1-37.1-19.6-55.7C569.1,704.8,568.6,703.3,570.4,702.9z"/>
<path id="XMLID_1020_" class="st1" d="M772.2,458.7c-1.8-0.2-3.8,0.5-3.8-1.7c0-1.9,1.9-2,3.3-2.2c14.3-2.2,28.7-4.4,43-6.6
	c7.1-1.1,14.1-2.3,21.2-3.4c1.6-0.2,3.7-1.1,4.1,1.3c0.4,2.6-2.1,2.2-3.5,2.5c-18,2.9-36.1,5.7-54.2,8.5
	C778.9,457.7,775.4,458.2,772.2,458.7z"/>
<path id="XMLID_1019_" class="st1" d="M187.9,500.2c-11.4,0-22.8,0-34.1,0c-1.6,0-4.4,0.9-4.2-2.1c0.1-2.3,2.5-1.7,4.1-1.7
	c22.8,0,45.5,0,68.3,0.1c1.7,0,4.4-0.7,4.2,2.2c-0.1,2.4-2.6,1.6-4.1,1.6C210.7,500.3,199.3,500.3,187.9,500.2
	C187.9,500.3,187.9,500.3,187.9,500.2z"/>
<path id="XMLID_1018_" class="st1" d="M164.9,571.3c-1.6-0.1-3.6,0.6-3.6-1.6c0-2.2,2.2-2.1,3.8-2.4c18.3-3.8,36.5-7.6,54.8-11.4
	c2.7-0.6,5.3-1.2,8-1.7c1.5-0.3,3.6-1.5,4.1,1c0.5,2.5-2,2.5-3.4,2.8c-11.7,2.5-23.4,4.8-35.1,7.2
	C184,567.2,174.4,569.3,164.9,571.3z"/>
<path id="XMLID_1017_" class="st1" d="M239.6,583c0,1.8-1.3,2.1-2.5,2.5c-20.3,6.6-40.6,13.2-61,19.7c-1.1,0.4-2.8,0.8-3.3-0.7
	c-0.7-1.8,0.7-2.5,2.3-3c20.4-6.5,40.7-13,61.1-19.6C237.9,581.3,238.9,581.5,239.6,583z"/>
<path id="XMLID_1016_" class="st1" d="M765.7,430.5c-1.5,0.1-2.9,0.2-3-1.6c0-1.5,1.2-1.9,2.5-2.3c6.5-1.6,13-3.4,19.4-5.1
	c13.6-3.6,27.1-7.2,40.7-10.8c1.6-0.4,4.1-1.9,4.7,0.8c0.6,2.6-2.2,2.4-3.9,2.9c-19.6,5.3-39.3,10.5-58.9,15.7
	C766.8,430.3,766.1,430.4,765.7,430.5z"/>
<path id="XMLID_1015_" class="st0" d="M416.9,293.8c0.1,1.2-0.6,2-1.6,2.3c-2,0.5-2.5-1.2-3-2.5c-3.5-8.5-7-17-10.5-25.5
	c-3.3-8.1-6.7-16.2-10-24.4c-0.6-1.5-1.9-3.3,0.5-4.2c2.3-0.9,2.8,1.2,3.4,2.7c6.8,16.4,13.5,32.8,20.3,49.2
	C416.3,292.2,416.5,293,416.9,293.8z"/>
<path id="XMLID_1014_" class="st0" d="M620.6,751.5c-0.2,0.4-0.5,1.2-1.1,1.6c-1,0.8-2,0.3-2.6-0.7c-0.5-0.7-0.8-1.5-1.1-2.2
	c-7.5-15.9-15.1-31.7-22.6-47.6c-0.7-1.6-2.6-3.5,0.1-4.7c2.2-1,2.8,1.2,3.5,2.6c7.6,16,15.3,32.1,22.9,48.1
	C620,749.4,620.2,750.2,620.6,751.5z"/>
<path id="XMLID_1013_" class="st1" d="M817.5,378.4c-0.1,1.8-1.5,2.2-2.6,2.6c-19,7.3-38,14.5-57,21.7c-1.2,0.5-2.9,1.6-3.7-0.6
	c-0.7-2,1-2.6,2.3-3.1c19-7.3,38-14.5,57-21.7C815,376.8,816.8,376.1,817.5,378.4z"/>
<path id="XMLID_1012_" class="st1" d="M189.9,638c-1.1,0.3-1.7,0-2.2-0.9c-0.5-0.9-0.2-1.8,0.5-2.2c1.2-0.8,2.6-1.4,3.9-2
	c17.1-7.6,34.2-15.2,51.3-22.8c0.6-0.3,1.1-0.6,1.7-0.8c1.5-0.3,3.4-2,4.4,0.2c1.2,2.4-1.3,2.7-2.7,3.3c-8.4,3.8-16.9,7.6-25.3,11.3
	c-9.2,4.1-18.5,8.1-27.7,12.2C192.5,637,191.2,637.5,189.9,638z"/>
<path id="XMLID_1011_" class="st1" d="M801.2,346.8c-0.3,2-1.6,2.3-2.7,2.8c-17.3,8.8-34.5,17.6-51.8,26.3c-1.3,0.6-3.1,2.5-4.2-0.1
	c-1-2.4,1.4-2.7,2.7-3.4c17-8.7,34.1-17.4,51.2-26C798.1,345.6,800,344.1,801.2,346.8z"/>
<path id="XMLID_1010_" class="st0" d="M366.5,251.8c1.8,0.1,2.3,1.6,3,2.8c7.9,14.5,15.8,29,23.6,43.6c0.6,1.2,1.8,2.7,0.1,3.9
	c-2.1,1.4-3-0.3-3.8-1.8c-8-14.9-16.1-29.8-24.1-44.7C364.2,253.8,364.1,252.4,366.5,251.8z"/>
<path id="XMLID_1009_" class="st1" d="M228.5,696.9c-1.1-0.1-2-0.3-2.2-1.2c-0.3-1.5,0.9-2.2,1.9-3c7.8-5.7,15.6-11.3,23.5-17
	c7.5-5.4,15-10.8,22.5-16.2c1.2-0.9,2.6-2.1,3.8-0.4c1.2,1.6-0.3,2.6-1.5,3.5c-15.3,11.1-30.6,22.2-45.9,33.3
	C229.8,696.4,229,696.6,228.5,696.9z"/>
<path id="XMLID_1008_" class="st1" d="M207.5,668.9c-0.7-0.3-1.3-0.5-1.7-0.9c-0.6-0.7-0.6-1.7,0.1-2.3c1.3-1,2.7-1.9,4.2-2.8
	c15.7-9,31.4-18.1,47.1-27c1.5-0.8,3.6-3.1,4.9-1c1.7,2.7-1.6,3.4-3.2,4.3c-16,9.3-32.1,18.5-48.2,27.8
	C209.7,667.7,208.6,668.3,207.5,668.9z"/>
<path id="XMLID_1007_" class="st1" d="M782.2,318.3c-1.1,0.8-2,1.6-3,2.3c-15.4,10-30.8,19.9-46.2,29.9c-1.5,0.9-3.5,3-4.9,0.7
	c-1.4-2.3,1.6-3.1,3-4c15.2-9.9,30.4-19.7,45.6-29.6c1.4-0.9,2.8-2.1,4.6-1C781.6,316.8,781.8,317.5,782.2,318.3z"/>
<path id="XMLID_1006_" class="st0" d="M616.3,690.1c2.2,0,2.6,1.7,3.3,2.9c8.4,13.7,16.8,27.5,25.2,41.3c0.9,1.4,3,3.3,0.5,4.8
	c-2.5,1.6-3.1-1-4-2.5c-8.4-13.7-16.9-27.5-25.2-41.2c-0.8-1.3-2.3-2.7-1.1-4.5C615.4,690.4,616.1,690.3,616.3,690.1z"/>
<path id="XMLID_1005_" class="st1" d="M296.9,682.6c-0.9,0.9-1.6,1.9-2.5,2.7c-13,11.7-26,23.4-39.1,35c-1.2,1-2.7,3.8-4.6,1.8
	c-2.2-2.4,0.8-3.7,2.2-4.9c12.8-11.6,25.7-23.1,38.6-34.6c1.1-1,2-3,4.1-1.8C296.1,681.2,296.3,681.9,296.9,682.6z"/>
<path id="XMLID_1004_" class="st1" d="M759.3,292.4c-0.3,0.2-1.5,1-2.7,1.9c-13.5,10.8-26.9,21.7-40.4,32.5c-1.3,1-2.8,3.6-4.6,1.4
	c-1.6-2,0.7-3.2,2.2-4.4c13.6-11,27.2-22,40.9-32.9c1.1-0.8,1.9-2.5,3.7-1.9C759.2,289.3,759.5,290.1,759.3,292.4z"/>
<path id="XMLID_1003_" class="st1" d="M279,746.6c-1.6-1-2.2-1.2-2.6-1.7c-1.1-1.3-0.2-2.4,0.6-3.3c3.5-4,7.1-7.8,10.6-11.7
	c7.9-8.7,15.9-17.5,23.8-26.2c1.3-1.4,2.6-4.3,4.9-1.9c1.9,2-1,3.3-2.1,4.5c-11.1,12.4-22.3,24.7-33.4,37.1
	C280,744.3,279.6,745.6,279,746.6z"/>
<path id="XMLID_1002_" class="st0" d="M638.2,679.9c1.9,0.1,2.6,1.5,3.5,2.7c9.1,11.8,18.1,23.7,27.1,35.5c0.9,1.2,2.9,2.5,1,4.3
	c-2.4,2.1-3.3-0.4-4.3-1.7c-9.2-12-18.4-24-27.5-36c-0.9-1.1-2.1-2.2-1.1-3.9C637.1,680.3,637.8,680.1,638.2,679.9z"/>
<path id="XMLID_1001_" class="st1" d="M693.3,307.5c-1.3-0.2-1.6-1.3-1.2-2.3c0.6-1.3,1.6-2.4,2.7-3.4
	c11.4-11.5,22.9-22.9,34.4-34.3c1.3-1.3,2.7-4.4,4.9-2c2.3,2.4-1.1,3.6-2.3,4.8c-11.5,11.7-23.2,23.2-34.8,34.8
	C696,306.1,695.1,307.4,693.3,307.5z"/>
<path id="XMLID_1000_" class="st0" d="M340.7,267.2c2.3-0.3,2.8,0.9,3.6,2c8.7,12.7,17.4,25.3,26.1,38c0.8,1.2,2.1,2.5,0.4,3.8
	c-1.9,1.5-3.2,0-4.1-1.4c-8.6-12.7-17.2-25.4-25.9-38.1C339.6,269.6,339.2,268.2,340.7,267.2z"/>
<path id="XMLID_999_" class="st1" d="M705.6,242.9c0.8,0.5,1.4,0.8,1.7,1.2c0.9,1.3,0.1,2.4-0.7,3.4c-3.6,4.4-7.2,8.8-10.8,13.1
	c-6.8,8.3-13.5,16.6-20.4,24.9c-1,1.2-2,4.1-4.3,2c-1.8-1.6,0.3-3,1.3-4.2c10.2-12.6,20.4-25.1,30.6-37.6
	C703.8,244.8,704.7,243.9,705.6,242.9z"/>
<path id="XMLID_998_" class="st1" d="M338.6,722c-0.2,0.3-0.8,1.2-1.4,2c-9.3,12.8-18.5,25.5-27.9,38.2c-1,1.4-1.8,4.8-4.5,2.7
	c-2.2-1.7,0.4-3.4,1.3-4.8c9.4-12.9,18.9-25.8,28.4-38.7c0.9-1.2,1.6-2.7,3.4-2.1C338.8,719.6,339,720.5,338.6,722z"/>
<path id="XMLID_997_" class="st0" d="M692.6,702.3c-0.3,0.5-0.5,1.2-1,1.5c-1.1,0.6-2,0.1-2.8-0.7c-10.1-10.7-20.2-21.4-30.4-32.1
	c-1-1.1-1.2-2.4-0.1-3.3c0.8-0.7,2.1-0.7,2.9,0.2c10.3,10.9,20.5,21.8,30.7,32.7C692.3,701,692.4,701.7,692.6,702.3z"/>
<path id="XMLID_996_" class="st1" d="M363,736.9c-0.8,1.5-1.4,2.8-2.1,4.1c-7.4,12.7-14.7,25.4-22.2,38.1c-0.8,1.4-1.3,4.3-3.8,3.1
	c-2.7-1.3-0.5-3.2,0.3-4.7c7.7-13.3,15.3-26.5,23.1-39.7c0.8-1.3,1.4-3.4,3.6-2.8C362.4,735,362.7,736.2,363,736.9z"/>
<path id="XMLID_995_" class="st0" d="M349.8,320.6c0.3,1.2-0.2,1.8-1,2.1c-1.4,0.6-2.4-0.1-3.3-1.1c-4.5-5.3-9-10.6-13.5-15.9
	c-4.8-5.6-9.5-11.2-14.3-16.9c-1-1.2-2-2.4-0.4-3.7c1.2-1,2.4-0.2,3.3,0.8c9.4,11.1,18.9,22.1,28.3,33.2
	C349.2,319.7,349.5,320.2,349.8,320.6z"/>
<path id="XMLID_994_" class="st1" d="M500.3,793c0,6.3,0,12.6,0,18.9c0,1.5-0.2,3.2-2.2,3c-1.5-0.2-1.6-1.8-1.6-3
	c0-12.4,0.1-24.8,0.1-37.2c0-1.3,0.1-2.7,1.8-2.7c1.5,0,1.9,1.3,2,2.7C500.4,780.8,500.4,786.9,500.3,793
	C500.3,793,500.3,793,500.3,793z"/>
<path id="XMLID_993_" class="st1" d="M678.8,227.2c-0.5,1-1,2.1-1.7,3.2c-8.2,12.5-16.3,25-24.6,37.5c-1,1.5-2,4.1-4.1,2.8
	c-2.2-1.4,0-3.3,0.9-4.8c8.3-12.7,16.6-25.4,24.9-38.1c0.8-1.2,1.3-2.8,3.2-2.5C678.4,225.4,678.7,226.1,678.8,227.2z"/>
<path id="XMLID_992_" class="st1" d="M648.2,212.3c-0.4,0.9-0.9,2.1-1.4,3.2c-6.4,12.5-12.9,25-19.4,37.5c-0.8,1.5-1.4,4.5-3.6,3.5
	c-3.1-1.4-0.4-3.7,0.4-5.3c6.5-13,13.2-25.8,19.9-38.7c0.6-1.2,1-3,3.1-2.5C648.1,210.4,648.3,211.2,648.2,212.3z"/>
<path id="XMLID_991_" class="st1" d="M388.4,750.7c-0.2,0.5-0.5,1.3-0.9,2c-5.9,13.2-11.8,26.4-17.8,39.6c-0.7,1.5-0.9,4.4-3.6,3.2
	c-2-0.9-0.8-2.9-0.1-4.4c6-13.4,12.1-26.8,18.1-40.1c0.6-1.3,1-3,2.8-2.9C388.2,748.1,388.7,749.1,388.4,750.7z"/>
<path id="XMLID_990_" class="st1" d="M598.1,245.2c-2.4-0.8-1.8-2.3-1.2-4c5.2-13.5,10.4-27.1,15.6-40.6c0.5-1.4,1.4-3,3.2-2
	c1.8,1,0.7,2.7,0.2,3.9c-3.8,10-7.7,20-11.6,30c-1.3,3.3-2.5,6.7-3.8,10C600.1,243.7,599.6,245,598.1,245.2z"/>
<path id="XMLID_989_" class="st0" d="M329.1,334.6c-0.3,2.1-1.3,3-3.1,2.2c-1.1-0.5-2-1.5-2.9-2.4c-8.4-8-16.8-16-25.1-24.1
	c-1.4-1.4-4.2-2.7-2-5c1.8-1.9,3.3,0.4,4.6,1.7c8.6,8.2,17.1,16.3,25.6,24.5C327.3,332.5,328.3,333.6,329.1,334.6z"/>
<path id="XMLID_988_" class="st0" d="M680.3,652.2c0.7,0.5,1.9,1.3,3,2.3c9,7.7,17.9,15.4,26.8,23.1c1.4,1.2,3.7,2.5,2,4.5
	c-1.7,2.1-3.3,0-4.7-1.2c-9.3-8-18.5-15.9-27.8-23.9c-1.1-0.9-2.5-1.8-1.9-3.5C678,652.6,678.7,652.1,680.3,652.2z"/>
<path id="XMLID_987_" class="st1" d="M399.3,805.8c-2.1-0.2-2.2-1.3-1.6-3c4.6-13.9,9.1-27.9,13.7-41.8c0.4-1.3,1.1-3,3.1-2.1
	c2.1,0.9,0.8,2.5,0.4,3.8c-4.3,13.3-8.7,26.7-13.1,40C401.3,803.8,401.2,805.5,399.3,805.8z"/>
<path id="XMLID_986_" class="st1" d="M443.1,769.1c-3,13.7-6,27.4-9,41.1c-0.3,1.2-0.6,2.7-2.3,2.2c-1.4-0.4-1.6-1.6-1.3-3
	c3-13.7,5.8-27.4,8.8-41.2c0.2-1.2,0.8-2.6,2.5-2.2C443.5,766.4,443.2,767.8,443.1,769.1z"/>
<path id="XMLID_985_" class="st1" d="M569.1,232.6c3.7-13.6,7.4-26.9,11.1-40.3c0.3-1.2,0.7-2.7,2.4-2.4c2,0.4,1.7,2,1.3,3.5
	c-3.6,13.4-7.3,26.7-10.9,40.1c-0.4,1.3-1,2.6-2.4,2.4C568.3,235.7,569.5,233.7,569.1,232.6z"/>
<path id="XMLID_984_" class="st0" d="M309.5,352c-0.8,2.1-2.2,1.9-3.8,0.7c-9.3-7.2-18.6-14.4-27.9-21.5c-1.3-1-2.2-2.2-0.9-3.7
	c1.1-1.3,2.2-0.6,3.3,0.2c9.3,7.2,18.6,14.4,27.9,21.6C308.9,349.9,309.6,350.5,309.5,352z"/>
<path id="XMLID_983_" class="st0" d="M698.1,634.3c1,0.7,1.7,1.1,2.4,1.6c9.1,6.3,18.3,12.5,27.3,18.9c1.4,1,3.9,2,2.1,4.3
	c-1.4,1.9-3,0.3-4.3-0.6c-9.3-6.4-18.6-12.8-27.8-19.3c-1.1-0.8-2.7-1.7-1.5-3.5C696.8,635.1,697.6,634.8,698.1,634.3z"/>
<path id="XMLID_982_" class="st1" d="M471.5,773.5c-1.4,13.6-2.6,25.9-3.9,38.2c-0.2,1.5-0.1,3.9-2.4,3.6c-2.4-0.3-1.4-2.7-1.3-4.1
	c1.2-12.3,2.5-24.6,3.9-36.9c0.2-1.6-0.4-4,1.9-3.9C472.5,770.4,471.5,773.1,471.5,773.5z"/>
<path id="XMLID_981_" class="st1" d="M541.2,225.4c1.9-12,3.9-24.4,5.9-36.8c0.2-1.4,0-3.9,2.6-3.3c1.7,0.4,1.5,2,1.2,3.7
	c-2.1,12.4-3.9,24.8-6,37.2c-0.3,1.5-0.3,4-2.4,3.7C540.2,229.7,541.4,227.3,541.2,225.4z"/>
<path id="XMLID_980_" class="st1" d="M512.4,219.6c0.7-10.7,1.4-21.4,2.1-32.1c0.1-1.4-0.3-3.6,1.8-3.4c2.7,0.2,2,2.7,1.9,4.5
	c-0.7,11.3-1.3,22.7-2.1,34c-0.1,1.7,0.8,4.5-2.2,4.2c-2.8-0.3-1.5-3-1.7-4.7C512.2,221.3,512.4,220.4,512.4,219.6z"/>
<path id="XMLID_979_" class="st0" d="M715.7,615.3c0.6,0.3,1.5,0.8,2.4,1.3c8.3,4.5,16.6,9,24.9,13.6c1.3,0.7,3.7,1.1,2.7,3.4
	c-1.2,2.7-3.1,1.1-4.7,0.2c-8.7-4.7-17.3-9.5-26-14.2c-1.1-0.6-2.3-1.3-2.1-2.7C713.1,615.7,714.1,615.3,715.7,615.3z"/>
<path id="XMLID_978_" class="st1" d="M532.5,806.6c-0.3,1.7,1,4.4-1.9,4.5c-2.2,0.1-1.9-2.3-2-3.9c-1.1-10.7-2.2-21.3-3.3-32
	c-0.2-1.9-0.9-4.3,1.8-4.5c2.4-0.1,1.8,2.5,1.9,3.9C530.2,785.2,531.4,795.9,532.5,806.6z"/>
<path id="XMLID_977_" class="st0" d="M291.7,370.7c-0.8,2.1-2.3,1.9-3.9,0.9c-8.7-5.4-17.4-10.7-26.1-16.1c-1.4-0.9-3-2.2-1.4-4
	c1.3-1.6,2.7-0.1,3.8,0.5c8.4,5.1,16.7,10.3,25,15.5C290.3,368.1,291.9,368.6,291.7,370.7z"/>
<path id="XMLID_976_" class="st1" d="M487.2,213.9c0,3.4,0,6.7,0,10.1c0,1.1,0.1,2.2-1.3,2.5c-1.6,0.3-2.4-0.8-2.5-2.1
	c-0.6-12-1.2-24-1.7-36c0-1.1,0.3-2.2,1.7-2.2c2.2-0.1,2.1,1.7,2.2,3.1c0.5,8.2,0.9,16.4,1.3,24.6
	C487.1,213.9,487.1,213.9,487.2,213.9z"/>
<path id="XMLID_975_" class="st1" d="M450,196.4c0.1-2.1-1-4.4,1.4-4.7c2.1-0.3,2.3,1.9,2.5,3.6c1.5,10.1,3,20.3,4.7,30.4
	c0.3,1.8,0.7,3.8-1.4,4.2c-2.4,0.4-2.2-2.1-2.4-3.6C453.1,216.1,451.5,206,450,196.4z"/>
<path id="XMLID_974_" class="st0" d="M275.7,390.5c-0.3,2.3-1.3,3.1-3.1,2.2c-8.5-4-17-8-25.5-12.1c-1.1-0.5-2.1-1.6-1.3-3.1
	c0.7-1.4,1.6-1.5,3.1-0.8c8.5,4.1,17,8.1,25.5,12.2C275,389.3,275.4,390.1,275.7,390.5z"/>
<path id="XMLID_973_" class="st1" d="M564.3,801c-0.2,1.1,0.4,2.6-1.4,2.9c-1.6,0.3-2.1-1.1-2.4-2.3c-2.2-10.6-4.4-21.3-6.5-31.9
	c-0.2-1.2-0.6-2.7,0.9-3.2c1.5-0.6,2.4,0.7,2.7,1.9C559.8,779.2,562,790.1,564.3,801z"/>
<path id="XMLID_972_" class="st1" d="M594.8,790.2c0.2,1.8,0.1,2.9-1.1,3.3c-1.4,0.5-1.9-0.7-2.2-1.6c-3.3-9.9-6.5-19.9-9.7-29.9
	c-0.4-1.1-0.6-2.6,1-3.2c1.3-0.4,2.1,0.5,2.4,1.5C588.5,770.5,591.7,780.7,594.8,790.2z"/>
<path id="XMLID_971_" class="st0" d="M756.2,608.8c-0.4-0.2-0.9-0.4-1.5-0.7c-8.1-3.4-16.2-6.8-24.3-10.2c-1.4-0.6-3.1-1.1-2.7-2.9
	c0.6-2.4,2.8-1.6,4.2-1c8.2,3.3,16.3,6.7,24.4,10.2c1.3,0.6,2.9,1.2,2,3.2C758,608.3,757.5,609,756.2,608.8z"/>
<path id="XMLID_970_" class="st1" d="M430.4,232.8c0.2,1.1,0.3,2.1-1,2.6c-1.7,0.6-2.3-0.5-2.7-1.8c-2.8-10.1-5.5-20.2-8.2-30.4
	c-0.4-1.3,0.2-2.7,1.7-2.9c1.1-0.1,1.8,0.9,2.1,2C425,212.4,427.7,222.6,430.4,232.8z"/>
<path id="XMLID_969_" class="st1" d="M624.5,778.3c-0.5,0.5-0.9,1.3-1.6,1.6c-1.2,0.6-2-0.4-2.4-1.4c-4-9-8-18-12-27.1
	c-0.4-0.9-0.4-2.2,0.8-2.7c1.1-0.5,2.1,0,2.6,1.1c4.1,9.2,8.1,18.4,12.2,27.7C624.2,777.6,624.3,777.8,624.5,778.3z"/>
<path id="XMLID_968_" class="st1" d="M403,241.5c0.3,1.7,0,2.6-1.3,2.8c-1.6,0.2-2.1-0.9-2.6-2.2c-2.4-6.2-4.8-12.5-7.2-18.7
	c-1-2.5-1.9-5.1-2.8-7.6c-0.4-1.2-0.9-2.5,0.8-3.1c1.2-0.5,2,0.2,2.5,1.3C396,223.3,399.6,232.7,403,241.5z"/>
<path id="XMLID_967_" class="st0" d="M261.8,413.5c-0.3,2.2-1.6,2.6-3.2,2c-7.5-2.6-15-5.2-22.6-7.9c-1.1-0.4-1.7-1.2-1.5-2.4
	c0.2-1.2,1.1-2,2.2-1.6c8.1,2.8,16.2,5.6,24.2,8.5C261.4,412.3,261.6,413.1,261.8,413.5z"/>
<path id="XMLID_966_" class="st1" d="M635.6,735.5c1.7,0,2.2,1.3,2.8,2.3c4.1,7.1,8.1,14.2,12.2,21.3c0.8,1.4,2.3,3.1-0.1,4.2
	c-1.7,0.8-2.6-1-3.3-2.2c-4.2-7.3-8.3-14.6-12.5-21.8C633.8,737.7,633,736.2,635.6,735.5z"/>
<path id="XMLID_965_" class="st0" d="M765.6,581.2c-7.8-2.4-15.8-4.9-23.8-7.4c-1.1-0.4-1.7-1.2-1.3-2.4c0.4-1.2,1.4-1.7,2.5-1.4
	c8,2.4,16,4.9,24,7.4c1.3,0.4,1.4,1.4,1.2,2.5C767.9,581.3,766.8,581.3,765.6,581.2z"/>
<path id="XMLID_964_" class="st1" d="M362.2,227.4c1.1,0.2,1.7,1,2.2,2c3.9,7.7,7.9,15.3,11.8,23c0.6,1.2,1,2.6-0.4,3.3
	c-1.8,0.9-2.6-0.6-3.3-2c-3.8-7.5-7.5-15-11.3-22.5C360.3,229.5,359.7,228.2,362.2,227.4z"/>
<path id="XMLID_963_" class="st1" d="M335.6,245.2c1.8-0.1,2.4,1.1,3.1,2.1c4.1,6.3,8.3,12.6,12.4,19c0.8,1.2,1.8,2.6,0.2,3.9
	c-1.9,1.5-2.6-0.4-3.3-1.5c-4.3-6.5-8.5-13-12.7-19.5C334.3,247.7,333.3,246.2,335.6,245.2z"/>
<path id="XMLID_962_" class="st1" d="M659.9,719.5c0.9,0.8,1.9,1.5,2.6,2.5c4.3,5.9,8.6,11.9,12.9,17.9c1,1.4,2.5,2.9,0.6,4.3
	c-1.5,1.1-2.6-0.6-3.5-1.8c-4.5-6.1-8.9-12.2-13.4-18.3C657.9,722.3,657.3,720.9,659.9,719.5z"/>
<path id="XMLID_961_" class="st1" d="M312.4,265.1c0.7,0.6,1.4,1,1.9,1.6c4.4,5.4,8.7,10.8,13,16.2c0.9,1.1,2.2,2.5,0.7,3.8
	c-1.6,1.4-2.6-0.2-3.5-1.3c-4.4-5.3-8.7-10.7-13.1-16.1c-0.8-1-1.7-2-0.7-3.3C311,265.6,311.7,265.5,312.4,265.1z"/>
<path id="XMLID_960_" class="st0" d="M772.4,552.6c-6.7-1.2-12.9-2.2-19.1-3.4c-1.4-0.3-3.2-0.8-2.7-2.7c0.4-1.6,1.8-2,3.5-1.6
	c6.1,1.3,12.3,2.3,18.5,3.5c1.5,0.3,3.1,0.9,2.8,2.6C775,552.7,773.5,553.2,772.4,552.6z"/>
<path id="XMLID_959_" class="st0" d="M247.4,440.4c-6.7-1.7-12.8-3.2-18.9-4.7c-1.7-0.4-2.9-1-2.4-2.9c0.4-1.6,2-1.4,3.1-1.1
	c6.3,1.4,12.6,2.9,18.9,4.5c1.7,0.4,2.5,1.5,1.8,3.3C249.4,441.2,248,440.4,247.4,440.4z"/>
<path id="XMLID_958_" class="st1" d="M682.1,701.6c0.5,0.3,1,0.4,1.2,0.7c5.4,5.9,10.8,11.8,16.1,17.7c0.8,0.9,0.6,2.1-0.3,2.8
	c-0.9,0.7-2,0.4-2.8-0.5c-5-5.6-10.1-11.3-15.1-16.9c-0.8-0.9-1.1-1.8-0.4-2.8C681.1,702.1,681.7,701.9,682.1,701.6z"/>
<path id="XMLID_957_" class="st1" d="M701.9,681.6c2-0.3,18.5,14.8,18.3,16.4c-0.4,2.1-1.7,2.3-3.2,1.1c-5.2-4.6-10.4-9.3-15.4-14
	C700.2,683.7,700.8,682.4,701.9,681.6z"/>
<path id="XMLID_956_" class="st1" d="M307.3,304.8c-0.7,1.9-2,2.2-3.3,0.9c-5-4.9-9.8-9.8-14.6-14.8c-0.8-0.8-1-1.8-0.1-2.8
	c0.7-0.7,1.5-0.9,2.2-0.2c5.2,5.2,10.4,10.4,15.5,15.7C307.2,303.8,307.2,304.3,307.3,304.8z"/>
<path id="XMLID_955_" class="st1" d="M288,325.8c-0.2,2.1-1.4,2.6-3,1.4c-5-3.9-9.9-7.9-14.7-11.9c-1-0.8-0.9-1.8-0.1-2.8
	c0.7-0.8,1.5-0.9,2.2-0.3c5.1,4.1,10.1,8.2,15.2,12.4C287.8,324.9,287.9,325.4,288,325.8z"/>
<path id="XMLID_954_" class="st0" d="M763.5,518.7c3.1,0.2,7.9,0.5,12.7,0.8c1.5,0.1,3.2,0.6,3,2.4c-0.2,1.7-1.8,2.1-3.4,2
	c-4.8-0.4-9.6-0.7-14.4-1.2c-1.7-0.2-3.7-0.5-3.2-2.8C758.5,518.4,760.2,518,763.5,518.7z"/>
<path id="XMLID_953_" class="st0" d="M236.3,466.1c-4.3-0.5-8.4-1-12.5-1.5c-1.5-0.2-3.2-0.5-3-2.4c0.2-2.4,2.1-2,3.8-1.8
	c3.9,0.6,7.8,1,11.7,1.7c1.8,0.3,5-1,4.8,2.3C240.9,467.8,237.9,465.6,236.3,466.1z"/>
<path id="XMLID_952_" class="st1" d="M737.8,672.3c-0.3,1.8-1.1,2.8-2.9,1.6c-5.1-3.6-10.2-7.4-15.3-11.2c-1-0.7-1.3-1.8-0.4-2.7
	c0.5-0.5,1.8-0.7,2.2-0.4c5.3,3.8,10.6,7.6,15.8,11.5C737.5,671.4,737.6,671.9,737.8,672.3z"/>
<path id="XMLID_951_" class="st1" d="M752.8,645.6c-0.1,1.9-1.5,2.2-2.7,1.6c-5-2.7-9.9-5.6-14.7-8.5c-0.7-0.4-1.3-1.2-0.9-2.1
	c0.4-0.9,1.2-1.4,2-1.1c5.7,2.2,10.7,5.6,15.8,9C752.6,644.7,752.7,645.2,752.8,645.6z"/>
<path id="XMLID_950_" class="st0" d="M770.8,495.4c-2.5-1.4-7.3,1.8-7.4-2.1c-0.1-4.3,4.9-2.2,7.5-2.3c2.9-0.1,8.3-2.5,8.4,1.5
	C779.4,497.4,773.6,493.7,770.8,495.4z"/>
<path id="XMLID_949_" class="st1" d="M271.1,349.2c-0.4,1.4-1.5,2-2.4,1.4c-5-3-9.9-6.1-14.7-9.3c-0.4-0.3-0.6-1.6-0.3-2.3
	c0.4-1.2,1.7-1.3,2.6-0.7c4.7,3.1,9.3,6.2,14,9.4C270.7,348,270.9,348.7,271.1,349.2z"/>
<path id="XMLID_948_" class="st0" d="M227.1,494.1c-3.2-1.3-8.5,1.1-8.4-2.7c0.2-4.8,5.4-2,8.2-2c2.6,0.1,7.8-1.6,7.6,2.4
	C234.4,496.1,229.3,492.2,227.1,494.1z"/>
<path id="XMLID_947_" class="st1" d="M242.2,365.1c4.8,2.6,9.4,5.1,13.9,7.7c0.4,0.2,0.4,1.6,0.1,2.2c-0.5,1.2-1.6,1-2.7,0.5
	c-4.1-2.1-8.2-4.2-12.3-6.4c-1-0.5-1.8-1.4-1.1-2.5C240.5,366,241.3,365.7,242.2,365.1z"/>
<path id="XMLID_946_" class="st1" d="M764.7,617.3c0,2.1-1.4,2.5-2.9,1.9c-4.2-1.8-8.3-3.7-12.5-5.6c-1-0.4-1.7-1.2-1.3-2.5
	c0.3-1,1.2-1.4,1.9-1.1c4.8,2,9.5,4.1,14.2,6.2C764.4,616.3,764.5,616.9,764.7,617.3z"/>
<path id="XMLID_945_" class="st1" d="M233.1,394.2c2.8,1.1,6.7,2.7,10.5,4.3c1.1,0.4,1.6,1.3,1,2.5c-0.4,0.8-1.2,1.2-2.1,0.9
	c-3.9-1.4-7.8-2.9-11.7-4.4c-1.2-0.5-1.3-1.6-0.9-2.6C230.3,394,231.1,393.7,233.1,394.2z"/>
<path id="XMLID_944_" class="st1" d="M770.3,590.2c-3.2-1.1-6.8-2.3-10.3-3.5c-1-0.4-2.1-0.8-1.8-2.1c0.3-1.4,1.4-2,2.9-1.5
	c3.6,1.2,7.2,2.3,10.7,3.6c1,0.4,1.8,1.2,1.5,2.4C772.9,590.5,771.7,590.2,770.3,590.2z"/>
<path id="XMLID_943_" class="st1" d="M768.1,555.2c0.4,0.1,0.8,0.2,1.2,0.3c3.3,0.9,7.1,0.2,9.7,3.1c0.6,0.7-0.1,1.9-0.8,2
	c-3.8,0.7-7.3-1-10.9-1.8c-1.1-0.2-1.9-0.9-1.6-2.2C766,555.4,767,555.1,768.1,555.2z"/>
<path id="XMLID_942_" class="st1" d="M224.6,423c3.4,0.9,6.6,1.7,9.8,2.7c1.1,0.3,1.9,1.3,1.3,2.4c-0.3,0.6-1.4,1.2-1.9,1.1
	c-3.4-0.8-6.9-1.7-10.3-2.7c-0.8-0.2-1.4-1-1.2-1.9C222.7,423.4,223.6,423,224.6,423z"/>
<path id="XMLID_941_" class="st1" d="M776.4,530.7c-1.7-0.9-5.7,1.5-5.9-2.1c-0.1-3.5,3.6-1.7,5.5-1.6c2.1,0.1,5.5-0.4,5.5,2.6
	C781.5,531.9,778.7,531.2,776.4,530.7z"/>
<path id="XMLID_940_" class="st1" d="M225.1,457.2c-2.2-0.6-5.7,0.3-6.5-3c-0.4-1.6,1.9-2.1,3.3-1.4c2.5,1.2,7-1.4,7.5,3.2
	C229.7,458.1,226.8,456.9,225.1,457.2z"/>
<path id="XMLID_939_" class="st1" d="M222,482.2c1.9,0.6,4.7-0.7,4.8,1.9c0.2,2.7-2.5,2.2-4.2,2c-1.9-0.2-4.9,0.6-4.9-2.3
	C217.8,481,220.8,482.8,222,482.2z"/>
<path id="XMLID_938_" class="st1" d="M776.1,501.7c-1.5-0.5-3.9,0.9-4-1.6c-0.1-2.9,2.6-2.1,4.3-2.1c1.7-0.1,4.5-0.7,4.3,2.1
	C780.4,502.9,777.6,501.1,776.1,501.7z"/>
</svg>
