<?xml version="1.0" encoding="utf-8"?>
<!-- Generator: Adobe Illustrator 19.0.0, SVG Export Plug-In . SVG Version: 6.00 Build 0)  -->
<svg version="1.1" id="Layer_1" xmlns="http://www.w3.org/2000/svg" xmlns:xlink="http://www.w3.org/1999/xlink" x="0px" y="0px"
	 viewBox="0 0 100 100" style="enable-background:new 0 0 100 100;" xml:space="preserve">
<style type="text/css">
	.st0{fill:#DAA02B;}
	.st1{fill:#FFFFFF;}
</style>
<g id="XMLID_1580_">
	<g id="XMLID_1586_">
		<g id="XMLID_1672_">
			<g id="XMLID_1675_">
				<rect id="XMLID_1676_" x="51.2" y="7.7" class="st0" width="0.2" height="4.7"/>
			</g>
			<g id="XMLID_1673_">
				<rect id="XMLID_1674_" x="51.2" y="38.1" class="st0" width="0.2" height="4.7"/>
			</g>
		</g>
		<g id="XMLID_1667_">
			<g id="XMLID_1670_">
				
					<rect id="XMLID_1671_" x="43.2" y="7.6" transform="matrix(0.1736 0.9848 -0.9848 0.1736 47.3854 -41.0935)" class="st0" width="10" height="0.2"/>
			</g>
			<g id="XMLID_1668_">
				
					<rect id="XMLID_1669_" x="49.4" y="42.7" transform="matrix(0.1737 0.9848 -0.9848 0.1737 87.079 -18.1764)" class="st0" width="10" height="0.2"/>
			</g>
		</g>
		<g id="XMLID_1662_">
			<g id="XMLID_1665_">
				
					<rect id="XMLID_1666_" x="43.7" y="10.9" transform="matrix(0.342 0.9397 -0.9397 0.342 40.6139 -36.1205)" class="st0" width="4.7" height="0.2"/>
			</g>
			<g id="XMLID_1663_">
				
					<rect id="XMLID_1664_" x="54.1" y="39.4" transform="matrix(0.342 0.9397 -0.9397 0.342 74.3064 -27.0927)" class="st0" width="4.7" height="0.2"/>
			</g>
		</g>
		<g id="XMLID_1657_">
			<g id="XMLID_1660_">
				
					<rect id="XMLID_1661_" x="37.4" y="9.7" transform="matrix(0.5 0.866 -0.866 0.5 29.6708 -31.813)" class="st0" width="10" height="0.2"/>
			</g>
			<g id="XMLID_1658_">
				
					<rect id="XMLID_1659_" x="55.2" y="40.6" transform="matrix(0.5 0.866 -0.866 0.5 65.3238 -31.813)" class="st0" width="10" height="0.2"/>
			</g>
		</g>
		<g id="XMLID_1652_">
			<g id="XMLID_1655_">
				
					<rect id="XMLID_1656_" x="39.2" y="13.5" transform="matrix(0.6428 0.766 -0.766 0.6428 25.2248 -26.9822)" class="st0" width="4.7" height="0.2"/>
			</g>
			<g id="XMLID_1653_">
				
					<rect id="XMLID_1654_" x="58.7" y="36.8" transform="matrix(0.6428 0.766 -0.766 0.6428 50.0499 -33.6341)" class="st0" width="4.7" height="0.2"/>
			</g>
		</g>
		<g id="XMLID_1647_">
			<g id="XMLID_1650_">
				
					<rect id="XMLID_1651_" x="32.7" y="13.7" transform="matrix(0.766 0.6428 -0.6428 0.766 17.6453 -20.9923)" class="st0" width="10" height="0.2"/>
			</g>
			<g id="XMLID_1648_">
				
					<rect id="XMLID_1649_" x="60" y="36.6" transform="matrix(0.766 0.6428 -0.6428 0.766 38.7661 -33.1864)" class="st0" width="10" height="0.2"/>
			</g>
		</g>
		<g id="XMLID_1642_">
			<g id="XMLID_1645_">
				
					<rect id="XMLID_1646_" x="35.8" y="17.5" transform="matrix(0.866 0.5 -0.5 0.866 13.8981 -16.7248)" class="st0" width="4.7" height="0.2"/>
			</g>
			<g id="XMLID_1643_">
				
					<rect id="XMLID_1644_" x="62.1" y="32.7" transform="matrix(0.866 0.5 -0.5 0.866 25.0269 -27.8538)" class="st0" width="4.7" height="0.2"/>
			</g>
		</g>
		<g id="XMLID_1637_">
			<g id="XMLID_1640_">
				
					<rect id="XMLID_1641_" x="29.6" y="19" transform="matrix(0.9397 0.342 -0.342 0.9397 8.6095 -10.6741)" class="st0" width="10" height="0.2"/>
			</g>
			<g id="XMLID_1638_">
				
					<rect id="XMLID_1639_" x="63.1" y="31.2" transform="matrix(0.9397 0.342 -0.342 0.9397 14.8007 -21.3975)" class="st0" width="10" height="0.2"/>
			</g>
		</g>
		<g id="XMLID_1632_">
			<g id="XMLID_1635_">
				
					<rect id="XMLID_1636_" x="34" y="22.4" transform="matrix(0.9848 0.1736 -0.1736 0.9848 4.4599 -5.9701)" class="st0" width="4.7" height="0.2"/>
			</g>
			<g id="XMLID_1633_">
				
					<rect id="XMLID_1634_" x="63.9" y="27.7" transform="matrix(0.9848 0.1736 -0.1736 0.9848 5.8317 -11.0897)" class="st0" width="4.7" height="0.2"/>
			</g>
		</g>
		<g id="XMLID_1627_">
			<g id="XMLID_1630_">
				<rect id="XMLID_1631_" x="28.5" y="25.1" class="st0" width="10" height="0.2"/>
			</g>
			<g id="XMLID_1628_">
				<rect id="XMLID_1629_" x="64.2" y="25.1" class="st0" width="10" height="0.2"/>
			</g>
		</g>
		<g id="XMLID_1622_">
			<g id="XMLID_1625_">
				
					<rect id="XMLID_1626_" x="36.2" y="25.4" transform="matrix(0.1736 0.9848 -0.9848 0.1736 57.3646 -12.8462)" class="st0" width="0.2" height="4.7"/>
			</g>
			<g id="XMLID_1623_">
				
					<rect id="XMLID_1624_" x="66.2" y="20.1" transform="matrix(0.1736 0.9848 -0.9848 0.1736 76.9112 -46.6998)" class="st0" width="0.2" height="4.7"/>
			</g>
		</g>
		<g id="XMLID_1617_">
			<g id="XMLID_1620_">
				
					<rect id="XMLID_1621_" x="34.5" y="26.2" transform="matrix(0.3421 0.9397 -0.9397 0.3421 52.0639 -11.9375)" class="st0" width="0.2" height="10"/>
			</g>
			<g id="XMLID_1618_">
				
					<rect id="XMLID_1619_" x="68" y="14" transform="matrix(0.3422 0.9396 -0.9396 0.3422 62.6434 -51.4403)" class="st0" width="0.2" height="10"/>
			</g>
		</g>
		<g id="XMLID_1612_">
			<g id="XMLID_1615_">
				
					<rect id="XMLID_1616_" x="38" y="30.3" transform="matrix(0.5001 0.866 -0.866 0.5001 47.3723 -16.6661)" class="st0" width="0.2" height="4.7"/>
			</g>
			<g id="XMLID_1613_">
				
					<rect id="XMLID_1614_" x="64.4" y="15.1" transform="matrix(0.4997 0.8662 -0.8662 0.4997 47.3973 -47.0772)" class="st0" width="0.2" height="4.7"/>
			</g>
		</g>
		<g id="XMLID_1607_">
			<g id="XMLID_1610_">
				
					<rect id="XMLID_1611_" x="37.5" y="31.6" transform="matrix(0.6428 0.766 -0.766 0.6428 41.4445 -15.7699)" class="st0" width="0.2" height="10"/>
			</g>
			<g id="XMLID_1608_">
				
					<rect id="XMLID_1609_" x="64.9" y="8.7" transform="matrix(0.643 0.7659 -0.7659 0.643 33.6277 -44.8691)" class="st0" width="0.2" height="10"/>
			</g>
		</g>
		<g id="XMLID_1602_">
			<g id="XMLID_1605_">
				
					<rect id="XMLID_1606_" x="41.4" y="34.4" transform="matrix(0.766 0.6428 -0.6428 0.766 33.3147 -18.0747)" class="st0" width="0.2" height="4.7"/>
			</g>
			<g id="XMLID_1603_">
				
					<rect id="XMLID_1604_" x="60.9" y="11.1" transform="matrix(0.7662 0.6426 -0.6426 0.7662 22.9012 -36.0763)" class="st0" width="0.2" height="4.7"/>
			</g>
		</g>
		<g id="XMLID_1597_">
			<g id="XMLID_1600_">
				
					<rect id="XMLID_1601_" x="42.3" y="35.5" transform="matrix(0.866 0.5 -0.5 0.866 25.9366 -15.7454)" class="st0" width="0.2" height="10"/>
			</g>
			<g id="XMLID_1598_">
				
					<rect id="XMLID_1599_" x="60.1" y="4.7" transform="matrix(0.866 0.5 -0.5 0.866 12.8858 -28.7969)" class="st0" width="0.2" height="10"/>
			</g>
		</g>
		<g id="XMLID_1592_">
			<g id="XMLID_1595_">
				
					<rect id="XMLID_1596_" x="45.9" y="37" transform="matrix(0.9396 0.3422 -0.3422 0.9396 16.2475 -13.3734)" class="st0" width="0.2" height="4.7"/>
			</g>
			<g id="XMLID_1593_">
				
					<rect id="XMLID_1594_" x="56.3" y="8.4" transform="matrix(0.9397 0.342 -0.342 0.9397 7.0947 -18.6489)" class="st0" width="0.2" height="4.7"/>
			</g>
		</g>
		<g id="XMLID_1587_">
			<g id="XMLID_1590_">
				
					<rect id="XMLID_1591_" x="48" y="37.7" transform="matrix(0.9848 0.1736 -0.1736 0.9848 8.1307 -7.7074)" class="st0" width="0.2" height="10"/>
			</g>
			<g id="XMLID_1588_">
				
					<rect id="XMLID_1589_" x="54.2" y="2.5" transform="matrix(0.9848 0.1736 -0.1736 0.9848 2.1305 -9.3149)" class="st0" width="0.2" height="10"/>
			</g>
		</g>
	</g>
	<g id="XMLID_1582_">
		<path id="XMLID_1583_" class="st0" d="M51.3,35.7c-5.8,0-10.6-4.8-10.6-10.6c0-5.8,4.8-10.6,10.6-10.6c5.8,0,10.6,4.8,10.6,10.6
			C61.9,31,57.1,35.7,51.3,35.7z M51.3,14.7c-5.7,0-10.4,4.7-10.4,10.4s4.7,10.4,10.4,10.4s10.4-4.7,10.4-10.4S57,14.7,51.3,14.7z"
			/>
	</g>
	<circle id="XMLID_1581_" class="st0" cx="51.3" cy="25.1" r="9.3"/>
</g>
<g id="XMLID_1518_">
	<g id="XMLID_1555_">
		<g id="XMLID_1576_">
			<path id="XMLID_1577_" class="st1" d="M52.3,89.6L52.3,89.6l-6.3-4l-2.6-24.6l0,0l6.7-10.5l0.1,0.1l7.8,9.3l-0.7,25.7l0,0
				L52.3,89.6z M46.2,85.5l6.1,3.9l5-3.9L57.9,60l-7.7-9.2l-6.6,10.3L46.2,85.5z"/>
		</g>
		<g id="XMLID_1574_">
			<polygon id="XMLID_1575_" class="st1" points="50.8,63.9 50.8,63.8 43.5,61.2 43.6,61 50.8,63.7 58,59.9 58,60 			"/>
		</g>
		<g id="XMLID_1572_">
			
				<rect id="XMLID_1573_" x="38.9" y="76.9" transform="matrix(6.117457e-002 0.9981 -0.9981 6.117457e-002 125.1884 20.7709)" class="st1" width="25.2" height="0.2"/>
		</g>
		<polygon id="XMLID_1571_" class="st1" points="44.1,60.9 50.6,63.1 50.2,51.2 		"/>
		<path id="XMLID_1570_" class="st1" d="M55.4,59.9c0.2,0.2,0.4,0.2,0.6,0.1c0.1-0.2,0.1-0.4,0-0.6c-0.1-0.2-0.3-0.3-0.5-0.1
			C55.3,59.4,55.3,59.7,55.4,59.9z"/>
		<path id="XMLID_1569_" class="st1" d="M46.3,82.5c0.1,0.2,0.4,0.3,0.5,0.1C47,82.5,47,82.2,47,82c-0.1-0.2-0.3-0.3-0.5-0.2
			C46.2,81.9,46.2,82.2,46.3,82.5z"/>
		<path id="XMLID_1568_" class="st1" d="M46.5,85c0.1,0.2,0.4,0.3,0.5,0.1c0.2-0.2,0.2-0.4,0.1-0.6c-0.1-0.2-0.3-0.3-0.5-0.2
			C46.4,84.4,46.4,84.7,46.5,85z"/>
		<path id="XMLID_1567_" class="st1" d="M48.3,86.1c0.2,0.2,0.4,0.2,0.6,0.1c0.1-0.2,0.1-0.4,0-0.6c-0.1-0.2-0.3-0.3-0.5-0.1
			C48.1,85.5,48.1,85.9,48.3,86.1z"/>
		<path id="XMLID_1566_" class="st1" d="M51.6,62c0.1,0.2,0.4,0.3,0.5,0.1c0.2-0.1,0.2-0.4,0.1-0.6c-0.1-0.2-0.3-0.3-0.5-0.2
			C51.5,61.4,51.5,61.7,51.6,62z"/>
		<path id="XMLID_1565_" class="st1" d="M51.6,67.5c0.1,0.2,0.4,0.3,0.5,0.1c0.2-0.1,0.2-0.4,0.1-0.6c-0.1-0.2-0.3-0.3-0.5-0.2
			C51.5,66.9,51.5,67.2,51.6,67.5z"/>
		<path id="XMLID_1564_" class="st1" d="M53.5,61c0.1,0.2,0.3,0.2,0.4,0.1c0.1-0.1,0.1-0.3,0-0.5c-0.1-0.1-0.2-0.2-0.4-0.1
			C53.4,60.6,53.4,60.8,53.5,61z"/>
		<path id="XMLID_1563_" class="st1" d="M46.2,80.1c0.1,0.2,0.3,0.2,0.4,0.1c0.1-0.1,0.1-0.3,0-0.5c-0.1-0.1-0.2-0.2-0.4-0.1
			C46.1,79.7,46.1,79.9,46.2,80.1z"/>
		<path id="XMLID_1562_" class="st1" d="M48.2,83.5c0.1,0.2,0.3,0.2,0.4,0.1c0.1-0.1,0.1-0.3,0-0.5c-0.1-0.1-0.2-0.2-0.4-0.1
			C48.1,83.1,48.1,83.3,48.2,83.5z"/>
		<path id="XMLID_1561_" class="st1" d="M50.6,87.3c0.1,0.2,0.3,0.2,0.4,0.1c0.1-0.1,0.1-0.3,0-0.5c-0.1-0.1-0.2-0.2-0.4-0.1
			C50.5,86.9,50.5,87.1,50.6,87.3z"/>
		<path id="XMLID_1560_" class="st1" d="M54,59.3c0.1,0.1,0.3,0.1,0.4,0c0.1-0.1,0.1-0.3,0-0.4c-0.1-0.1-0.2-0.2-0.3-0.1
			C53.9,59,53.9,59.2,54,59.3z"/>
		<path id="XMLID_1559_" class="st1" d="M50.6,53.1c0.1,0.1,0.3,0.1,0.4,0c0.1-0.1,0.1-0.3,0-0.4c-0.1-0.1-0.2-0.2-0.3-0.1
			C50.5,52.7,50.5,52.9,50.6,53.1z"/>
		<path id="XMLID_1558_" class="st1" d="M50.8,54.9c0.1,0.1,0.2,0.1,0.2,0.1c0.1-0.1,0.1-0.2,0-0.3c0-0.1-0.1-0.1-0.2-0.1
			C50.8,54.6,50.8,54.8,50.8,54.9z"/>
		<path id="XMLID_1557_" class="st1" d="M51.4,65.1c0.1,0.1,0.2,0.1,0.2,0.1c0.1-0.1,0.1-0.2,0-0.3c0-0.1-0.1-0.1-0.2-0.1
			C51.4,64.9,51.4,65,51.4,65.1z"/>
		<path id="XMLID_1556_" class="st1" d="M54.3,58c0.1,0.2,0.3,0.2,0.5,0c0.1-0.1,0.1-0.4,0-0.5c-0.1-0.1-0.3-0.2-0.4-0.1
			C54.2,57.6,54.2,57.8,54.3,58z"/>
	</g>
	<g id="XMLID_1544_">
		<g id="XMLID_1551_">
			<path id="XMLID_1552_" class="st1" d="M62.4,88.3l-2.7-0.4l-1.5-1.1l0,0l2-20.9l0,0l4.5-5.9l2.8,6.6l0,0l-3.4,21L62.4,88.3z
				 M59.8,87.7l2.6,0.4l1.6-0.7l3.4-20.9l-2.6-6.3l-4.3,5.6l-2,20.8L59.8,87.7z"/>
		</g>
		<g id="XMLID_1549_">
			<polygon id="XMLID_1550_" class="st1" points="65.1,67.5 62.4,67.3 62.4,67.3 60.3,65.9 60.4,65.8 62.4,67.1 65.1,67.3 
				67.4,66.4 67.5,66.6 			"/>
		</g>
		<g id="XMLID_1547_">
			<polygon id="XMLID_1548_" class="st1" points="62.5,88.2 62.3,88.2 65,67.4 64.7,60.5 62.5,67.2 59.9,87.8 59.7,87.8 62.3,67.2 
				62.3,67.2 64.8,59.7 65.2,67.4 65.2,67.4 			"/>
		</g>
		<polygon id="XMLID_1546_" class="st1" points="65.4,67.7 67,67.2 63.9,87.1 62.9,87.7 		"/>
		<polygon id="XMLID_1545_" class="st1" points="62.6,67 65,67.2 64.6,60.8 		"/>
	</g>
	<g id="XMLID_1529_">
		<g id="XMLID_1540_">
			<path id="XMLID_1541_" class="st1" d="M41,89L41,89l-2.5-1l0,0l-2.9-15.1l2.3-4.7l3.4,3.2l0,0l2.8,15.4l-1.2,1.5L41,89z
				 M38.6,87.9l2.4,0.9l1.8-0.6l1.1-1.4l-2.8-15.3l-3.2-3l-2.2,4.5L38.6,87.9z"/>
		</g>
		<g id="XMLID_1538_">
			<polygon id="XMLID_1539_" class="st1" points="38,73.7 35.6,73 35.7,72.9 38,73.5 39.7,72.6 41.1,71.4 41.2,71.5 39.8,72.7 			
				"/>
		</g>
		<g id="XMLID_1536_">
			
				<rect id="XMLID_1537_" x="31.7" y="81.2" transform="matrix(0.1906 0.9817 -0.9817 0.1906 111.7189 26.988)" class="st1" width="15.6" height="0.2"/>
		</g>
		<g id="XMLID_1534_">
			
				<rect id="XMLID_1535_" x="33.4" y="80.4" transform="matrix(0.1938 0.981 -0.981 0.1938 112.2271 24.3508)" class="st1" width="15.9" height="0.2"/>
		</g>
		<polygon id="XMLID_1533_" class="st1" points="35.8,73.2 37.8,73.8 40.7,88.7 38.6,87.8 		"/>
		<polygon id="XMLID_1532_" class="st1" points="40.9,71.4 38,68.6 39.7,72.4 		"/>
		<g id="XMLID_1530_">
			
				<rect id="XMLID_1531_" x="38.1" y="82.9" transform="matrix(0.1957 0.9807 -0.9807 0.1957 115.1924 25.4725)" class="st1" width="7.9" height="0.2"/>
		</g>
	</g>
	<g id="XMLID_1527_">
		<path id="XMLID_1528_" class="st1" d="M56.6,97.8c-1,0-1.9-0.2-2.6-0.4c-1-0.3-2-0.7-3-1.1c-1.3-0.5-2.7-1.1-4.1-1.3
			c-2-0.4-4.1-0.2-6.1-0.1c-1.1,0.1-2.2,0.2-3.2,0.2c-0.5,0-1.1,0-1.6-0.2c-0.6-0.2-1.1-0.7-1.5-1.1c-1.2-1.2-2.4-2.5-1.9-4.4
			c0.9-3.5,3.9-4.7,5.3-5.2l0.1,0.1c-1.4,0.6-4.3,1.7-5.2,5.1c-0.5,1.9,0.6,3.1,1.8,4.3c0.4,0.4,0.9,0.8,1.5,1
			c0.5,0.2,1,0.2,1.5,0.2c1.1,0,2.2-0.1,3.2-0.2c2-0.2,4.1-0.3,6.2,0.1c1.4,0.3,2.8,0.8,4.1,1.3c1,0.4,2,0.8,3,1.1
			c1.4,0.4,4.1,0.8,5.8-0.7c0.4-0.3,0.6-0.7,0.9-1.1c0.3-0.4,0.6-0.7,0.9-1.1c1.5-1.4,3.7-1.4,5.8-1.4l5.2,0.1c0.5,0,1.2,0,1.7-0.3
			c0.3-0.2,0.6-0.5,0.9-1c0.6-1.3,0.7-2.8,0.3-4.2c-0.3-0.7-0.7-1.5-1.3-2.3c-1.2-1.5-2.5-2.7-3.9-3.4c-1.7-0.9-3.4-1.1-5.1-0.8
			l0-0.2c1.6-0.3,3.5-0.1,5.2,0.8c1.4,0.7,2.8,1.9,4,3.5c0.7,0.9,1.1,1.6,1.4,2.4c0.5,1.4,0.4,3-0.3,4.3c-0.3,0.5-0.6,0.9-0.9,1.1
			c-0.5,0.3-1.2,0.3-1.8,0.3l-5.2-0.1c-2.1-0.1-4.3,0-5.7,1.3c-0.3,0.3-0.6,0.7-0.9,1c-0.3,0.4-0.6,0.8-1,1.1
			C58.9,97.5,57.7,97.8,56.6,97.8z"/>
	</g>
	<g id="XMLID_1525_">
		<path id="XMLID_1526_" class="st1" d="M43.1,81.7L43,81.6c0.6-0.7,1.6-1.1,2.5-1.2l0,0.2C44.7,80.7,43.6,81,43.1,81.7z"/>
	</g>
	<g id="XMLID_1523_">
		<path id="XMLID_1524_" class="st1" d="M58.9,80.7c-0.5-0.3-1-0.4-1.4-0.4l0-0.2c0.6,0,1.2,0.3,1.5,0.4L58.9,80.7z"/>
	</g>
	<g id="XMLID_1521_">
		<path id="XMLID_1522_" class="st1" d="M33.3,93.8c-2.7-2.3-1.8-5.1-0.6-7l0.1,0.1c-1.2,1.9-2,4.5,0.6,6.8L33.3,93.8z"/>
	</g>
	<g id="XMLID_1519_">
		<path id="XMLID_1520_" class="st1" d="M58.4,96.5l-0.1-0.1c0.1-0.1,0.3-0.4,0.6-0.7c0.9-1.2,2.5-3.4,4.5-3l0,0.2
			c-1.9-0.3-3.5,1.7-4.4,3C58.8,96.1,58.6,96.3,58.4,96.5z"/>
	</g>
</g>
<g id="XMLID_1479_">
	<g id="XMLID_1516_">
		<circle id="XMLID_1517_" class="st1" cx="74.2" cy="75.7" r="0.3"/>
	</g>
	<g id="XMLID_1514_">
		<circle id="XMLID_1515_" class="st1" cx="69.2" cy="74.7" r="0.3"/>
	</g>
	<g id="XMLID_1512_">
		<circle id="XMLID_1513_" class="st1" cx="67.3" cy="72.7" r="0.2"/>
	</g>
	<g id="XMLID_1510_">
		<circle id="XMLID_1511_" class="st1" cx="64.6" cy="69.4" r="0.3"/>
	</g>
	<g id="XMLID_1508_">
		<circle id="XMLID_1509_" class="st1" cx="63.9" cy="63.2" r="0.2"/>
	</g>
	<g id="XMLID_1506_">
		<circle id="XMLID_1507_" class="st1" cx="64.3" cy="60.6" r="0.2"/>
	</g>
	<g id="XMLID_1504_">
		<circle id="XMLID_1505_" class="st1" cx="67.3" cy="54.7" r="0.1"/>
	</g>
	<g id="XMLID_1502_">
		<circle id="XMLID_1503_" class="st1" cx="59.4" cy="55.3" r="0.1"/>
	</g>
	<g id="XMLID_1500_">
		<circle id="XMLID_1501_" class="st1" cx="57.9" cy="51.3" r="0.3"/>
	</g>
	<g id="XMLID_1498_">
		<circle id="XMLID_1499_" class="st1" cx="52.8" cy="55.4" r="0.3"/>
	</g>
	<g id="XMLID_1496_">
		<circle id="XMLID_1497_" class="st1" cx="50.5" cy="53.2" r="0.2"/>
	</g>
	<g id="XMLID_1494_">
		<circle id="XMLID_1495_" class="st1" cx="47.8" cy="53.7" r="0.1"/>
	</g>
	<g id="XMLID_1492_">
		<circle id="XMLID_1493_" class="st1" cx="49.4" cy="54.6" r="0.3"/>
	</g>
	<g id="XMLID_1490_">
		<circle id="XMLID_1491_" class="st1" cx="43" cy="50.3" r="0.2"/>
	</g>
	<g id="XMLID_1488_">
		<circle id="XMLID_1489_" class="st1" cx="37.9" cy="52" r="0.3"/>
	</g>
	<g id="XMLID_1486_">
		<circle id="XMLID_1487_" class="st1" cx="39" cy="58.9" r="0.3"/>
	</g>
	<g id="XMLID_1484_">
		<circle id="XMLID_1485_" class="st1" cx="33.6" cy="62.9" r="0.3"/>
	</g>
	<g id="XMLID_1482_">
		<circle id="XMLID_1483_" class="st1" cx="31.1" cy="64.6" r="0.2"/>
	</g>
	<g id="XMLID_1480_">
		<circle id="XMLID_1481_" class="st1" cx="33.2" cy="68.5" r="0.3"/>
	</g>
</g>
<g id="XMLID_1450_">
	<g id="XMLID_1477_">
		<circle id="XMLID_1478_" class="st1" cx="36" cy="20.2" r="0.1"/>
	</g>
	<g id="XMLID_1475_">
		<circle id="XMLID_1476_" class="st1" cx="25.8" cy="17.5" r="0.2"/>
	</g>
	<g id="XMLID_1473_">
		<circle id="XMLID_1474_" class="st1" cx="37" cy="23.7" r="0.2"/>
	</g>
	<g id="XMLID_1471_">
		<circle id="XMLID_1472_" class="st1" cx="24.6" cy="27.3" r="0.3"/>
	</g>
	<g id="XMLID_1469_">
		<circle id="XMLID_1470_" class="st1" cx="32.9" cy="29.2" r="0"/>
	</g>
	<g id="XMLID_1467_">
		<circle id="XMLID_1468_" class="st1" cx="28.3" cy="35" r="0.3"/>
	</g>
	<g id="XMLID_1465_">
		<circle id="XMLID_1466_" class="st1" cx="36.6" cy="32.1" r="0.1"/>
	</g>
	<g id="XMLID_1463_">
		<circle id="XMLID_1464_" class="st1" cx="34.4" cy="35.8" r="0.1"/>
	</g>
	<g id="XMLID_1461_">
		<circle id="XMLID_1462_" class="st1" cx="38.5" cy="38.9" r="0.1"/>
	</g>
	<g id="XMLID_1459_">
		<circle id="XMLID_1460_" class="st1" cx="39.3" cy="39.9" r="0.1"/>
	</g>
	<g id="XMLID_1457_">
		<circle id="XMLID_1458_" class="st1" cx="39.3" cy="44.8" r="0.2"/>
	</g>
	<g id="XMLID_1455_">
		<circle id="XMLID_1456_" class="st1" cx="34.8" cy="47" r="0.2"/>
	</g>
	<g id="XMLID_1453_">
		<circle id="XMLID_1454_" class="st1" cx="38.1" cy="51" r="0.2"/>
	</g>
	<g id="XMLID_1451_">
		<circle id="XMLID_1452_" class="st1" cx="44.2" cy="51.7" r="0.2"/>
	</g>
</g>
<g id="XMLID_1425_">
	<g id="XMLID_1448_">
		<circle id="XMLID_1449_" class="st1" cx="66.7" cy="56.3" r="0.1"/>
	</g>
	<g id="XMLID_1446_">
		<circle id="XMLID_1447_" class="st1" cx="69" cy="52.7" r="0.1"/>
	</g>
	<g id="XMLID_1444_">
		<circle id="XMLID_1445_" class="st1" cx="56.7" cy="46.2" r="0.1"/>
	</g>
	<g id="XMLID_1442_">
		<circle id="XMLID_1443_" class="st1" cx="56.7" cy="40.4" r="0.2"/>
	</g>
	<g id="XMLID_1440_">
		<circle id="XMLID_1441_" class="st1" cx="66.3" cy="37.8" r="0.1"/>
	</g>
	<g id="XMLID_1438_">
		<circle id="XMLID_1439_" class="st1" cx="62.8" cy="33" r="0.3"/>
	</g>
	<g id="XMLID_1436_">
		<circle id="XMLID_1437_" class="st1" cx="60.7" cy="30.6" r="0.1"/>
	</g>
	<g id="XMLID_1434_">
		<circle id="XMLID_1435_" class="st1" cx="60.1" cy="29" r="0.1"/>
	</g>
	<g id="XMLID_1432_">
		<circle id="XMLID_1433_" class="st1" cx="64.6" cy="28.6" r="0.3"/>
	</g>
	<g id="XMLID_1430_">
		<circle id="XMLID_1431_" class="st1" cx="57.7" cy="23.4" r="0.1"/>
	</g>
	<g id="XMLID_1428_">
		<circle id="XMLID_1429_" class="st1" cx="59.4" cy="19.2" r="0.2"/>
	</g>
	<g id="XMLID_1426_">
		<circle id="XMLID_1427_" class="st1" cx="60.5" cy="17.3" r="0.1"/>
	</g>
</g>
<g id="XMLID_1368_">
	<g id="XMLID_1423_">
		<circle id="XMLID_1424_" class="st1" cx="56.8" cy="24.5" r="0.3"/>
	</g>
	<g id="XMLID_1421_">
		<circle id="XMLID_1422_" class="st1" cx="62.5" cy="22.8" r="0.1"/>
	</g>
	<g id="XMLID_1419_">
		<circle id="XMLID_1420_" class="st1" cx="67.6" cy="17.2" r="0.2"/>
	</g>
	<g id="XMLID_1417_">
		<circle id="XMLID_1418_" class="st1" cx="65.5" cy="10.6" r="0.1"/>
	</g>
	<g id="XMLID_1415_">
		<circle id="XMLID_1416_" class="st1" cx="57.8" cy="9.1" r="0.1"/>
	</g>
	<g id="XMLID_1413_">
		<circle id="XMLID_1414_" class="st1" cx="60" cy="6.1" r="0.1"/>
	</g>
	<g id="XMLID_1411_">
		<circle id="XMLID_1412_" class="st1" cx="58.2" cy="7" r="0.3"/>
	</g>
	<g id="XMLID_1409_">
		<circle id="XMLID_1410_" class="st1" cx="50.5" cy="9.3" r="0.1"/>
	</g>
	<g id="XMLID_1407_">
		<circle id="XMLID_1408_" class="st1" cx="45.2" cy="9.2" r="0.2"/>
	</g>
	<g id="XMLID_1405_">
		<circle id="XMLID_1406_" class="st1" cx="35.5" cy="2" r="0.1"/>
	</g>
	<g id="XMLID_1403_">
		<circle id="XMLID_1404_" class="st1" cx="41.6" cy="9.8" r="0.2"/>
	</g>
	<g id="XMLID_1401_">
		<circle id="XMLID_1402_" class="st1" cx="39.8" cy="11" r="0.1"/>
	</g>
	<g id="XMLID_1399_">
		<circle id="XMLID_1400_" class="st1" cx="32.6" cy="14.8" r="0.1"/>
	</g>
	<g id="XMLID_1397_">
		<circle id="XMLID_1398_" class="st1" cx="38.8" cy="15.9" r="0.3"/>
	</g>
	<g id="XMLID_1395_">
		<circle id="XMLID_1396_" class="st1" cx="33.5" cy="22.4" r="0"/>
	</g>
	<g id="XMLID_1393_">
		<circle id="XMLID_1394_" class="st1" cx="38.1" cy="26.9" r="0.3"/>
	</g>
	<g id="XMLID_1391_">
		<circle id="XMLID_1392_" class="st1" cx="34.8" cy="28.8" r="0.2"/>
	</g>
	<g id="XMLID_1389_">
		<circle id="XMLID_1390_" class="st1" cx="45.1" cy="30.9" r="0.1"/>
	</g>
	<g id="XMLID_1387_">
		<circle id="XMLID_1388_" class="st1" cx="45" cy="34.8" r="0.2"/>
	</g>
	<g id="XMLID_1385_">
		<circle id="XMLID_1386_" class="st1" cx="41.2" cy="42.1" r="0.2"/>
	</g>
	<g id="XMLID_1383_">
		<circle id="XMLID_1384_" class="st1" cx="46.4" cy="40.9" r="0.1"/>
	</g>
	<g id="XMLID_1381_">
		<circle id="XMLID_1382_" class="st1" cx="48.8" cy="45" r="0.3"/>
	</g>
	<g id="XMLID_1379_">
		<circle id="XMLID_1380_" class="st1" cx="51.6" cy="39" r="0.3"/>
	</g>
	<g id="XMLID_1377_">
		<circle id="XMLID_1378_" class="st1" cx="53.3" cy="42.3" r="0.2"/>
	</g>
	<g id="XMLID_1375_">
		<circle id="XMLID_1376_" class="st1" cx="62.1" cy="37.3" r="0.2"/>
	</g>
	<g id="XMLID_1373_">
		<circle id="XMLID_1374_" class="st1" cx="63.4" cy="40.5" r="0.1"/>
	</g>
	<g id="XMLID_1371_">
		<circle id="XMLID_1372_" class="st1" cx="64.5" cy="40.3" r="0.1"/>
	</g>
	<g id="XMLID_1369_">
		<circle id="XMLID_1370_" class="st1" cx="63.9" cy="47.3" r="0.1"/>
	</g>
</g>
</svg>
