<?xml version="1.0" encoding="utf-8"?>
<!-- Generator: Adobe Illustrator 19.0.0, SVG Export Plug-In . SVG Version: 6.00 Build 0)  -->
<svg version="1.1" id="Layer_1" xmlns="http://www.w3.org/2000/svg" xmlns:xlink="http://www.w3.org/1999/xlink" x="0px" y="0px"
	 viewBox="0 0 100 100" style="enable-background:new 0 0 100 100;" xml:space="preserve">
<style type="text/css">
	.st0{fill:#FFFFFF;}
	.st1{fill:#DAA02B;}
</style>
<g id="XMLID_3180_">
	<g id="XMLID_3189_">
		<g id="XMLID_3232_">
			<g id="XMLID_3233_">
				<rect id="XMLID_3234_" x="48.8" y="31.9" class="st0" width="0.2" height="7.3"/>
			</g>
		</g>
		<g id="XMLID_3229_">
			<g id="XMLID_3230_">
				
					<rect id="XMLID_3231_" x="36.3" y="31.8" transform="matrix(0.1736 0.9848 -0.9848 0.1736 67.7888 -17.0174)" class="st0" width="15.5" height="0.2"/>
			</g>
		</g>
		<g id="XMLID_3226_">
			<g id="XMLID_3227_">
				
					<rect id="XMLID_3228_" x="37.1" y="36.9" transform="matrix(0.342 0.9397 -0.9397 0.342 61.5677 -14.0148)" class="st0" width="7.3" height="0.2"/>
			</g>
		</g>
		<g id="XMLID_3223_">
			<g id="XMLID_3224_">
				
					<rect id="XMLID_3225_" x="27.2" y="35.1" transform="matrix(0.5 0.866 -0.866 0.5 47.9497 -12.7312)" class="st0" width="15.5" height="0.2"/>
			</g>
		</g>
		<g id="XMLID_3220_">
			<g id="XMLID_3221_">
				
					<rect id="XMLID_3222_" x="30" y="40.9" transform="matrix(0.6428 0.766 -0.766 0.6428 43.4681 -11.1478)" class="st0" width="7.3" height="0.2"/>
			</g>
		</g>
		<g id="XMLID_3217_">
			<g id="XMLID_3218_">
				
					<rect id="XMLID_3219_" x="19.9" y="41.2" transform="matrix(0.766 0.6428 -0.6428 0.766 33.0292 -8.0922)" class="st0" width="15.5" height="0.2"/>
			</g>
		</g>
		<g id="XMLID_3214_">
			<g id="XMLID_3215_">
				
					<rect id="XMLID_3216_" x="24.7" y="47.2" transform="matrix(0.866 0.5 -0.5 0.866 27.4544 -7.8666)" class="st0" width="7.3" height="0.2"/>
			</g>
		</g>
		<g id="XMLID_3211_">
			<g id="XMLID_3212_">
				
					<rect id="XMLID_3213_" x="15.1" y="49.6" transform="matrix(0.9397 0.342 -0.342 0.9397 18.3551 -4.8096)" class="st0" width="15.5" height="0.2"/>
			</g>
		</g>
		<g id="XMLID_3208_">
			<g id="XMLID_3209_">
				
					<rect id="XMLID_3210_" x="75" y="41.8" transform="matrix(0.3419 0.9397 -0.9397 0.3419 95.9501 -37.9045)" class="st0" width="0.2" height="15.5"/>
			</g>
		</g>
		<g id="XMLID_3205_">
			<g id="XMLID_3206_">
				
					<rect id="XMLID_3207_" x="69.3" y="43.5" transform="matrix(0.4999 0.8661 -0.8661 0.4999 75.571 -36.5261)" class="st0" width="0.2" height="7.3"/>
			</g>
		</g>
		<g id="XMLID_3202_">
			<g id="XMLID_3203_">
				
					<rect id="XMLID_3204_" x="70.1" y="33.4" transform="matrix(0.6427 0.7662 -0.7662 0.6427 56.6129 -39.0586)" class="st0" width="0.2" height="15.5"/>
			</g>
		</g>
		<g id="XMLID_3199_">
			<g id="XMLID_3200_">
				
					<rect id="XMLID_3201_" x="64" y="37.2" transform="matrix(0.7662 0.6426 -0.6426 0.7662 41.2294 -31.6266)" class="st0" width="0.2" height="7.3"/>
			</g>
		</g>
		<g id="XMLID_3196_">
			<g id="XMLID_3197_">
				
					<rect id="XMLID_3198_" x="62.7" y="27.2" transform="matrix(0.8661 0.4999 -0.4999 0.8661 25.8669 -26.6857)" class="st0" width="0.2" height="15.5"/>
			</g>
		</g>
		<g id="XMLID_3193_">
			<g id="XMLID_3194_">
				
					<rect id="XMLID_3195_" x="56.8" y="33.1" transform="matrix(0.9397 0.3419 -0.3419 0.9397 15.986 -17.2412)" class="st0" width="0.2" height="7.3"/>
			</g>
		</g>
		<g id="XMLID_3190_">
			<g id="XMLID_3191_">
				
					<rect id="XMLID_3192_" x="53.5" y="23.9" transform="matrix(0.9848 0.1738 -0.1738 0.9848 6.3125 -8.8371)" class="st0" width="0.2" height="15.5"/>
			</g>
		</g>
	</g>
	<g id="XMLID_3185_">
		<path id="XMLID_3186_" class="st0" d="M48.9,77.6c-4.9,0-9.6-1.9-13.1-5.4c-3.5-3.5-5.4-8.1-5.4-13.1c0-4.9,1.9-9.6,5.4-13.1
			c3.5-3.5,8.1-5.4,13.1-5.4c4.9,0,9.6,1.9,13.1,5.4c3.5,3.5,5.4,8.1,5.4,13.1c0,4.9-1.9,9.6-5.4,13.1
			C58.5,75.7,53.8,77.6,48.9,77.6z M48.9,40.8c-10.1,0-18.3,8.2-18.3,18.3c0,10.1,8.2,18.3,18.3,18.3s18.3-8.2,18.3-18.3
			C67.2,49,59,40.8,48.9,40.8z"/>
	</g>
	<g id="XMLID_3181_">
		<path id="XMLID_3182_" class="st0" d="M48.9,75.5c-9,0-16.4-7.4-16.4-16.4c0-9,7.4-16.4,16.4-16.4s16.4,7.4,16.4,16.4
			C65.2,68.1,57.9,75.5,48.9,75.5z M48.9,42.9c-8.9,0-16.2,7.3-16.2,16.2c0,8.9,7.3,16.2,16.2,16.2S65.1,68,65.1,59.1
			C65.1,50.2,57.8,42.9,48.9,42.9z"/>
	</g>
</g>
<g id="XMLID_3135_">
	<g id="XMLID_3172_">
		<path id="XMLID_3173_" class="st0" d="M48.9,65.2c-5.6,0-10.1-3.8-10.2-3.8l-0.1-0.1l0.1-0.1c0,0,4.6-3.8,10.2-3.8
			c5.6,0,10.1,3.8,10.2,3.8l0.1,0.1L59,61.4C59,61.5,54.4,65.2,48.9,65.2z M38.9,61.4c0.6,0.5,4.9,3.7,10,3.7s9.3-3.2,10-3.7
			c-0.6-0.5-4.9-3.7-10-3.7C43.8,57.7,39.5,60.9,38.9,61.4z"/>
	</g>
	<g id="XMLID_3170_">
		<path id="XMLID_3171_" class="st0" d="M59.3,61.1c-1.2-0.9-5.5-3.9-10.5-3.9c-4.9,0-8.9,2.8-10.4,3.9l-0.1-0.1
			c1.5-1.2,5.6-4,10.6-4c4.9,0,9,2.8,10.6,4L59.3,61.1z"/>
	</g>
	<g id="XMLID_3168_">
		<path id="XMLID_3169_" class="st0" d="M37.8,60.8l-0.1-0.1c1.6-1.3,6-4.4,11.2-4.4c5,0,9.4,3,11,4.3l-0.1,0.1
			c-1.6-1.3-5.9-4.3-10.9-4.3C43.8,56.4,39.4,59.4,37.8,60.8z"/>
	</g>
	<g id="XMLID_3164_">
		<path id="XMLID_3165_" class="st0" d="M48.9,65.2c-2.1,0-3.8-1.7-3.8-3.8c0-2.1,1.7-3.8,3.8-3.8c2.1,0,3.8,1.7,3.8,3.8
			C52.7,63.5,51,65.2,48.9,65.2z M48.9,57.7c-2,0-3.6,1.6-3.6,3.6c0,2,1.6,3.6,3.6,3.6c2,0,3.6-1.6,3.6-3.6
			C52.5,59.4,50.9,57.7,48.9,57.7z"/>
	</g>
	<circle id="XMLID_3163_" class="st0" cx="48.9" cy="61.4" r="1"/>
	<g id="XMLID_3161_">
		
			<rect id="XMLID_3162_" x="34.4" y="59.2" transform="matrix(0.7001 0.714 -0.714 0.7001 53.261 -8.178)" class="st0" width="3.8" height="0.2"/>
	</g>
	<g id="XMLID_3159_">
		<rect id="XMLID_3160_" x="48.7" y="48.4" class="st0" width="0.2" height="7.9"/>
	</g>
	<g id="XMLID_3157_">
		
			<rect id="XMLID_3158_" x="42.5" y="54.8" transform="matrix(0.2733 0.9619 -0.9619 0.2733 85.1504 -2.8539)" class="st0" width="4" height="0.2"/>
	</g>
	<g id="XMLID_3155_">
		
			<rect id="XMLID_3156_" x="38" y="56.7" transform="matrix(0.6071 0.7947 -0.7947 0.6071 60.8474 -9.4205)" class="st0" width="4" height="0.2"/>
	</g>
	<g id="XMLID_3153_">
		
			<rect id="XMLID_3154_" x="61.1" y="57.3" transform="matrix(0.7139 0.7002 -0.7002 0.7139 58.9551 -25.897)" class="st0" width="0.2" height="3.8"/>
	</g>
	<g id="XMLID_3151_">
		
			<rect id="XMLID_3152_" x="53" y="53.4" transform="matrix(0.9509 0.3095 -0.3095 0.9509 19.6695 -13.7296)" class="st0" width="0.2" height="3.6"/>
	</g>
	<g id="XMLID_3149_">
		
			<rect id="XMLID_3150_" x="57.6" y="54.8" transform="matrix(0.7995 0.6007 -0.6007 0.7995 45.6973 -23.2834)" class="st0" width="0.2" height="4.1"/>
	</g>
	<circle id="XMLID_3148_" class="st0" cx="34.9" cy="57.7" r="0.2"/>
	<circle id="XMLID_3147_" class="st0" cx="38.6" cy="55" r="0.2"/>
	<circle id="XMLID_3146_" class="st0" cx="59" cy="55" r="0.2"/>
	<circle id="XMLID_3145_" class="st0" cx="62.6" cy="57.7" r="0.2"/>
	<circle id="XMLID_3144_" class="st0" cx="53.7" cy="53.2" r="0.2"/>
	<circle id="XMLID_3143_" class="st0" cx="43.9" cy="52.9" r="0.2"/>
	<circle id="XMLID_3142_" class="st0" cx="48.8" cy="48.2" r="0.2"/>
	<polygon id="XMLID_3141_" class="st0" points="46.4,53.7 46.7,54.3 47,55 46.6,55 46.3,55.1 46.3,54.4 	"/>
	<polygon id="XMLID_3140_" class="st0" points="41.8,55 42.2,55.5 42.7,56 42.3,56.1 42,56.3 41.9,55.6 	"/>
	<polygon id="XMLID_3139_" class="st0" points="37.7,57.4 38.2,57.8 38.7,58.3 38.4,58.5 38.1,58.7 37.9,58 	"/>
	<polygon id="XMLID_3138_" class="st0" points="51.1,53.7 50.8,54.3 50.6,55 50.9,55 51.3,55.1 51.2,54.4 	"/>
	<polygon id="XMLID_3137_" class="st0" points="55.8,55 55.3,55.5 54.9,56 55.2,56.1 55.6,56.3 55.7,55.6 	"/>
	<polygon id="XMLID_3136_" class="st0" points="59.9,57.4 59.4,57.8 58.8,58.3 59.2,58.5 59.5,58.7 59.7,58 	"/>
</g>
<g id="XMLID_3131_">
	<path id="XMLID_3132_" class="st0" d="M49.2,89.3c-3.5,0-6.8-0.4-9.3-1.2c-2.5-0.8-3.9-1.8-3.9-3v-13l0.1,0.1
		c3.4,3.3,8,5.1,12.7,5.1c4.8,0,9.3-1.8,12.8-5.2l0,0h0.7v12.9c0,1.1-1.4,2.2-3.9,3C56,88.9,52.7,89.3,49.2,89.3z M36.2,72.6v12.6
		c0,1,1.4,2,3.8,2.8c2.5,0.8,5.7,1.2,9.2,1.2s6.8-0.4,9.2-1.2c2.4-0.7,3.8-1.8,3.8-2.8V72.4h-0.4c-3.5,3.4-8,5.2-12.9,5.2
		C44.1,77.6,39.6,75.8,36.2,72.6z"/>
</g>
<g id="XMLID_2405_">
	<path id="XMLID_3179_" class="st1" d="M25.3,20c0,2.5-1.1,3.1-3.2,1.8c2.1,1.2,2.1,2.5,0,3.7c2.1-1.2,3.2-0.6,3.2,1.9
		c0-2.5,1.1-3.1,3.2-1.8c-2.1-1.2-2.1-2.5,0-3.7C26.3,23.1,25.2,22.5,25.3,20z"/>
	<path id="XMLID_3178_" class="st1" d="M69.5,80.7c0,2.5-1.1,3.1-3.2,1.8c2.1,1.2,2.1,2.5,0,3.7c2.1-1.2,3.2-0.6,3.2,1.9
		c0-2.5,1.1-3.1,3.2-1.8c-2.1-1.2-2.1-2.5,0-3.7C70.5,83.7,69.4,83.1,69.5,80.7z"/>
	<path id="XMLID_3177_" class="st1" d="M26.7,78.7c0,1.1-0.5,1.4-1.4,0.8c0.9,0.6,0.9,1.1,0,1.6c1-0.5,1.4-0.3,1.4,0.8
		c0-1.1,0.5-1.4,1.4-0.8c-0.9-0.6-0.9-1.1,0-1.6C27.1,80.1,26.7,79.8,26.7,78.7z"/>
	<path id="XMLID_3176_" class="st1" d="M71.6,19.6c-1.3,2.4-3.9,4-6.9,4c-4.3,0-7.8-3.5-7.8-7.8c0-2.8,1.5-5.2,3.7-6.6
		c-0.9,1.3-1.5,2.9-1.5,4.6c0,4.2,3.4,7.6,7.6,7.6C68.6,21.4,70.3,20.8,71.6,19.6z"/>
	<path id="XMLID_3130_" class="st1" d="M38.8,65.9c-1.9,0.4-3.9,0.7-5.8,0.8c-2,0.2-3.9,0.2-5.9,0.1c-0.5,0-1-0.1-1.5-0.2
		c-0.5-0.1-1-0.2-1.5-0.3c-0.5-0.2-1-0.3-1.4-0.6c-0.2-0.1-0.4-0.3-0.6-0.5c-0.1-0.1-0.2-0.2-0.2-0.4c-0.1-0.1-0.1-0.3-0.1-0.4
		c-0.1-0.3,0-0.6,0-0.8c0.1-0.3,0.2-0.5,0.3-0.7c0.3-0.4,0.6-0.8,1-1.1c0.7-0.7,1.5-1.2,2.4-1.7c-0.8,0.6-1.6,1.2-2.2,1.9
		c-0.3,0.4-0.6,0.7-0.9,1.1c-0.1,0.2-0.2,0.4-0.2,0.6c-0.1,0.2-0.1,0.4,0,0.6c0.1,0.4,0.4,0.7,0.8,1c0.4,0.2,0.8,0.4,1.3,0.6
		c0.9,0.3,1.9,0.4,2.8,0.5c1,0.1,1.9,0.1,2.9,0.1c1,0,1.9,0,2.9-0.1C34.9,66.3,36.9,66.1,38.8,65.9z"/>
	<path id="XMLID_3129_" class="st1" d="M70.1,48.6c1,0,1.9,0.1,2.9,0.3c0.5,0.1,0.9,0.2,1.4,0.5c0.2,0.1,0.4,0.2,0.6,0.4
		c0.2,0.2,0.4,0.3,0.5,0.6c0.1,0.2,0.2,0.5,0.3,0.8c0,0.3,0,0.5-0.1,0.8c-0.2,0.5-0.5,0.9-0.8,1.3c-0.3,0.4-0.7,0.7-1,1
		c-0.4,0.3-0.8,0.6-1.1,0.9c-1.6,1.1-3.3,2-5,2.8c-1.7,0.8-3.5,1.5-5.3,2.1c1.7-0.8,3.5-1.6,5.2-2.4c0.8-0.4,1.7-0.9,2.5-1.3
		c0.8-0.5,1.6-1,2.4-1.5c0.8-0.5,1.5-1.1,2.1-1.8c0.3-0.3,0.6-0.7,0.7-1.1c0.1-0.2,0.1-0.4,0.1-0.6c0-0.2-0.1-0.4-0.2-0.6
		c-0.1-0.2-0.3-0.3-0.4-0.5c-0.2-0.1-0.4-0.3-0.6-0.4c-0.4-0.2-0.8-0.4-1.3-0.5C72,48.8,71,48.7,70.1,48.6z"/>
</g>
<g id="XMLID_3125_">
	<path id="XMLID_3126_" class="st0" d="M48.6,85.4c-1.3,0-2.3-1-2.3-2.3c0-1.3,1-2.3,2.3-2.3c1.3,0,2.3,1,2.3,2.3
		C50.9,84.4,49.8,85.4,48.6,85.4z M48.6,81.1c-1.1,0-2,0.9-2,2s0.9,2,2,2c1.1,0,2-0.9,2-2S49.7,81.1,48.6,81.1z"/>
</g>
<g id="XMLID_3052_">
	<g id="XMLID_3123_">
		<circle id="XMLID_3124_" class="st0" cx="68.9" cy="15.8" r="0.2"/>
	</g>
	<g id="XMLID_3121_">
		<circle id="XMLID_3122_" class="st0" cx="62.1" cy="13.6" r="0.3"/>
	</g>
	<g id="XMLID_3119_">
		<circle id="XMLID_3120_" class="st0" cx="59.7" cy="9.1" r="0.3"/>
	</g>
	<g id="XMLID_3117_">
		<circle id="XMLID_3118_" class="st0" cx="55.9" cy="7.9" r="0.3"/>
	</g>
	<g id="XMLID_3115_">
		<circle id="XMLID_3116_" class="st0" cx="53.1" cy="15.3" r="0.1"/>
	</g>
	<g id="XMLID_3113_">
		<circle id="XMLID_3114_" class="st0" cx="49" cy="1.9" r="0"/>
	</g>
	<g id="XMLID_3111_">
		<circle id="XMLID_3112_" class="st0" cx="49.1" cy="11.7" r="0.2"/>
	</g>
	<g id="XMLID_3109_">
		<circle id="XMLID_3110_" class="st0" cx="46.1" cy="9.3" r="0.3"/>
	</g>
	<g id="XMLID_3107_">
		<circle id="XMLID_3108_" class="st0" cx="44.4" cy="8.9" r="0.2"/>
	</g>
	<g id="XMLID_3105_">
		<circle id="XMLID_3106_" class="st0" cx="43.9" cy="4.7" r="0.2"/>
	</g>
	<g id="XMLID_3103_">
		<circle id="XMLID_3104_" class="st0" cx="40.7" cy="7.1" r="0.3"/>
	</g>
	<g id="XMLID_3101_">
		<circle id="XMLID_3102_" class="st0" cx="37.7" cy="9.4" r="0.1"/>
	</g>
	<g id="XMLID_3099_">
		<circle id="XMLID_3100_" class="st0" cx="34.9" cy="12" r="0.1"/>
	</g>
	<g id="XMLID_3097_">
		<circle id="XMLID_3098_" class="st0" cx="26.3" cy="17.1" r="0.3"/>
	</g>
	<g id="XMLID_3095_">
		<circle id="XMLID_3096_" class="st0" cx="37" cy="18.7" r="0.1"/>
	</g>
	<g id="XMLID_3093_">
		<circle id="XMLID_3094_" class="st0" cx="29.7" cy="24.7" r="0.1"/>
	</g>
	<g id="XMLID_3091_">
		<circle id="XMLID_3092_" class="st0" cx="36.4" cy="34.4" r="0.2"/>
	</g>
	<g id="XMLID_3089_">
		<circle id="XMLID_3090_" class="st0" cx="29.8" cy="32" r="0.3"/>
	</g>
	<g id="XMLID_3087_">
		<circle id="XMLID_3088_" class="st0" cx="25.7" cy="31.5" r="0.3"/>
	</g>
	<g id="XMLID_3085_">
		<circle id="XMLID_3086_" class="st0" cx="23.2" cy="33.2" r="0.2"/>
	</g>
	<g id="XMLID_3083_">
		<circle id="XMLID_3084_" class="st0" cx="17.7" cy="37.5" r="0.1"/>
	</g>
	<g id="XMLID_3081_">
		<circle id="XMLID_3082_" class="st0" cx="24.4" cy="42.2" r="0.2"/>
	</g>
	<g id="XMLID_3079_">
		<circle id="XMLID_3080_" class="st0" cx="19.1" cy="46.6" r="0.3"/>
	</g>
	<g id="XMLID_3077_">
		<circle id="XMLID_3078_" class="st0" cx="22.3" cy="49.2" r="0.2"/>
	</g>
	<g id="XMLID_3075_">
		<circle id="XMLID_3076_" class="st0" cx="20.9" cy="55.5" r="0.3"/>
	</g>
	<g id="XMLID_3073_">
		<circle id="XMLID_3074_" class="st0" cx="28.8" cy="54.1" r="0.1"/>
	</g>
	<g id="XMLID_3071_">
		<circle id="XMLID_3072_" class="st0" cx="19.9" cy="57.3" r="0.1"/>
	</g>
	<g id="XMLID_3069_">
		<circle id="XMLID_3070_" class="st0" cx="24.4" cy="65.5" r="0.3"/>
	</g>
	<g id="XMLID_3067_">
		<circle id="XMLID_3068_" class="st0" cx="24.2" cy="65.2" r="0.1"/>
	</g>
	<g id="XMLID_3065_">
		<circle id="XMLID_3066_" class="st0" cx="20.7" cy="77.1" r="0.2"/>
	</g>
	<g id="XMLID_3063_">
		<circle id="XMLID_3064_" class="st0" cx="31.1" cy="70.2" r="0.3"/>
	</g>
	<g id="XMLID_3061_">
		<circle id="XMLID_3062_" class="st0" cx="29.7" cy="80.2" r="0.2"/>
	</g>
	<g id="XMLID_3059_">
		<circle id="XMLID_3060_" class="st0" cx="27.4" cy="82.5" r="0.2"/>
	</g>
	<g id="XMLID_3057_">
		<circle id="XMLID_3058_" class="st0" cx="36.6" cy="88.6" r="0"/>
	</g>
	<g id="XMLID_3055_">
		<circle id="XMLID_3056_" class="st0" cx="31.3" cy="90.4" r="0.1"/>
	</g>
	<g id="XMLID_3053_">
		<circle id="XMLID_3054_" class="st0" cx="23.5" cy="91" r="0.2"/>
	</g>
</g>
<g id="XMLID_3011_">
	<g id="XMLID_3050_">
		<circle id="XMLID_3051_" class="st0" cx="62" cy="33.3" r="0"/>
	</g>
	<g id="XMLID_3048_">
		<circle id="XMLID_3049_" class="st0" cx="67.8" cy="28.2" r="0.1"/>
	</g>
	<g id="XMLID_3046_">
		<circle id="XMLID_3047_" class="st0" cx="74.3" cy="31.4" r="0"/>
	</g>
	<g id="XMLID_3044_">
		<circle id="XMLID_3045_" class="st0" cx="76.1" cy="37" r="0.3"/>
	</g>
	<g id="XMLID_3042_">
		<circle id="XMLID_3043_" class="st0" cx="83" cy="35.7" r="0.2"/>
	</g>
	<g id="XMLID_3040_">
		<circle id="XMLID_3041_" class="st0" cx="73.1" cy="46.4" r="0.1"/>
	</g>
	<g id="XMLID_3038_">
		<circle id="XMLID_3039_" class="st0" cx="79.6" cy="47.2" r="0.1"/>
	</g>
	<g id="XMLID_3036_">
		<circle id="XMLID_3037_" class="st0" cx="83.9" cy="48.8" r="0.1"/>
	</g>
	<g id="XMLID_3034_">
		<circle id="XMLID_3035_" class="st0" cx="85.2" cy="54.4" r="0.2"/>
	</g>
	<g id="XMLID_3032_">
		<circle id="XMLID_3033_" class="st0" cx="82.3" cy="57.9" r="0.2"/>
	</g>
	<g id="XMLID_3030_">
		<circle id="XMLID_3031_" class="st0" cx="73.6" cy="63.3" r="0.2"/>
	</g>
	<g id="XMLID_3028_">
		<circle id="XMLID_3029_" class="st0" cx="75.1" cy="68.2" r="0.4"/>
	</g>
	<g id="XMLID_3026_">
		<circle id="XMLID_3027_" class="st0" cx="73" cy="74.2" r="0.3"/>
	</g>
	<g id="XMLID_3024_">
		<circle id="XMLID_3025_" class="st0" cx="71" cy="74.3" r="0.1"/>
	</g>
	<g id="XMLID_3022_">
		<circle id="XMLID_3023_" class="st0" cx="66.2" cy="74.7" r="0.2"/>
	</g>
	<g id="XMLID_3020_">
		<circle id="XMLID_3021_" class="st0" cx="71" cy="86.5" r="0.2"/>
	</g>
	<g id="XMLID_3018_">
		<circle id="XMLID_3019_" class="st0" cx="61.7" cy="85.6" r="0.1"/>
	</g>
	<g id="XMLID_3016_">
		<circle id="XMLID_3017_" class="st0" cx="62.1" cy="92.9" r="0.1"/>
	</g>
	<g id="XMLID_3014_">
		<circle id="XMLID_3015_" class="st0" cx="64.8" cy="93.7" r="0.2"/>
	</g>
	<g id="XMLID_3012_">
		<circle id="XMLID_3013_" class="st0" cx="65.6" cy="99.3" r="0.2"/>
	</g>
</g>
</svg>
