<?xml version="1.0" encoding="utf-8"?>
<!-- Generator: Adobe Illustrator 19.0.0, SVG Export Plug-In . SVG Version: 6.00 Build 0)  -->
<svg version="1.1" id="Layer_1" xmlns="http://www.w3.org/2000/svg" xmlns:xlink="http://www.w3.org/1999/xlink" x="0px" y="0px"
	 viewBox="0 0 100 100" style="enable-background:new 0 0 100 100;" xml:space="preserve">
<style type="text/css">
	.st0{fill:#FFFFFF;}
	.st1{fill:#DAA02B;}
</style>
<g id="XMLID_1331_">
	<g id="XMLID_1336_">
		<path id="XMLID_1337_" class="st0" d="M46.6,52c-1.4,0-1.4-0.2-1.4-0.3c0,0,0,0,0,0l0,0l-0.5-3.2l0,0l0.1,0v0
			c0,0.1,0.3,0.2,1.3,0.2c0,0,0,0,0,0c0.8,0,2-0.1,3.1-0.3c1.2-0.2,2.3-0.4,3.1-0.7c1-0.3,1.2-0.5,1.2-0.6v0l0.1,0c0,0,0,0,0,0
			l0.5,3.3l0,0c0,0.5-2.6,1.1-4.4,1.3C48.5,51.9,47.4,52,46.6,52C46.6,52,46.6,52,46.6,52z M45.3,51.6L45.3,51.6
			C45.3,51.7,45.3,51.7,45.3,51.6c0,0.2,0.3,0.3,1.3,0.3c0,0,0,0,0,0c0.8,0,2-0.1,3.1-0.3c2.7-0.4,4.3-1,4.2-1.2c0,0,0,0,0,0l0-0.1
			l0,0l-0.4-3c-0.1,0.1-0.5,0.3-1.2,0.5c-0.8,0.2-1.9,0.5-3.1,0.7c-1.2,0.2-2.3,0.3-3.1,0.3c0,0,0,0,0,0c-0.7,0-1.1-0.1-1.2-0.1
			L45.3,51.6L45.3,51.6z"/>
	</g>
	<g id="XMLID_1332_">
		<path id="XMLID_1333_" class="st0" d="M46.1,48.8c-1.4,0-1.4-0.2-1.4-0.3c-0.1-0.5,2.6-1.1,4.4-1.4c1.2-0.2,2.3-0.3,3.1-0.3
			c0,0,0,0,0,0c1.4,0,1.4,0.2,1.4,0.3l0,0c0,0.1,0,0.3-1.3,0.7c-0.8,0.2-1.9,0.5-3.1,0.7C48.1,48.7,46.9,48.8,46.1,48.8
			C46.1,48.8,46.1,48.8,46.1,48.8z M52.2,46.9C52.2,46.9,52.2,46.9,52.2,46.9c-0.9,0-2,0.1-3.1,0.3c-2.7,0.4-4.3,1-4.2,1.2
			c0,0.1,0.3,0.2,1.3,0.2c0,0,0,0,0,0c0.8,0,2-0.1,3.1-0.3c1.2-0.2,2.3-0.4,3.1-0.7c1-0.3,1.2-0.5,1.2-0.6l0,0
			C53.5,47.1,53.2,46.9,52.2,46.9z"/>
	</g>
</g>
<g id="XMLID_1329_">
	<path id="XMLID_1330_" class="st0" d="M48.9,80.8c-0.3,0-0.6,0-0.9,0c-2.8-0.1-4.2-0.5-4.3-1.4l-2.8-18.9c-0.3-2.2,1.9-3.5,3.7-4.6
		c1.1-0.7,2-1.2,2-1.8L46.2,52l0.1,0l0.3,2.1c0.1,0.6-0.8,1.2-2,1.9c-1.8,1.1-3.9,2.4-3.6,4.5l2.8,18.9c0.1,0.7,1.6,1.2,4.2,1.3
		c2.3,0.1,4.8-0.2,6-0.3c2.8-0.4,9.7-2.2,9.5-3.9l-2.8-18.9c-0.3-2.1-2.8-2.7-4.8-3.2c-1.3-0.3-2.4-0.6-2.5-1.2L53.1,51l0.1,0
		l0.3,2.1c0.1,0.5,1.2,0.8,2.4,1.1c2,0.5,4.5,1.2,4.9,3.3l2.8,18.9c0.3,1.9-7,3.6-9.6,4C53,80.6,50.9,80.8,48.9,80.8z"/>
</g>
<g id="XMLID_1285_">
	<path id="XMLID_1286_" class="st0" d="M63.5,76.1c0,0-4.1-0.9-6.3-0.8l0-0.1c2.2-0.1,6.3,0.8,6.4,0.8L63.5,76.1z"/>
</g>
<g id="XMLID_1283_">
	<path id="XMLID_1284_" class="st0" d="M54.5,75.6l0-0.1c0.6-0.1,1-0.1,1-0.1l0,0.1C55.4,75.4,55.1,75.4,54.5,75.6z"/>
</g>
<g id="XMLID_1281_">
	<path id="XMLID_1282_" class="st0" d="M49.7,76.5l0-0.1c0.5-0.2,1.6-0.3,1.7-0.4l0,0.1C51.4,76.1,50.2,76.3,49.7,76.5z"/>
</g>
<g id="XMLID_1277_">
	<path id="XMLID_1278_" class="st0" d="M45.6,68.2c-0.2,0-0.4-0.2-0.4-0.4c0-0.2,0.1-0.5,0.4-0.5c0.2,0,0.5,0.1,0.5,0.4l0,0
		C46.1,67.9,46,68.1,45.6,68.2C45.7,68.2,45.7,68.2,45.6,68.2z M45.6,67.4C45.6,67.4,45.6,67.4,45.6,67.4c-0.1,0-0.2,0.1-0.3,0.1
		c-0.1,0.1-0.1,0.2-0.1,0.2c0,0.2,0.2,0.3,0.4,0.3c0.1,0,0.2-0.1,0.2-0.1c0.1-0.1,0.1-0.2,0.1-0.2C45.9,67.5,45.8,67.4,45.6,67.4z"
		/>
</g>
<g id="XMLID_1273_">
	<path id="XMLID_1274_" class="st0" d="M56.3,61.8c-0.3,0-0.5-0.2-0.5-0.5c0-0.3,0.2-0.6,0.5-0.6c0.1,0,0.3,0,0.4,0.1
		c0.1,0.1,0.2,0.2,0.2,0.4c0,0.1,0,0.3-0.1,0.4C56.7,61.7,56.6,61.8,56.3,61.8C56.4,61.8,56.4,61.8,56.3,61.8z M56.3,60.8
		C56.3,60.8,56.3,60.8,56.3,60.8c-0.3,0-0.5,0.3-0.4,0.5c0,0.2,0.2,0.4,0.5,0.4c0.1,0,0.2-0.1,0.3-0.2c0.1-0.1,0.1-0.2,0.1-0.3l0,0
		C56.7,61,56.5,60.8,56.3,60.8z"/>
</g>
<g id="XMLID_1244_">
	<g id="XMLID_1271_">
		<circle id="XMLID_1272_" class="st0" cx="45.5" cy="72" r="0.1"/>
	</g>
	<g id="XMLID_1269_">
		<circle id="XMLID_1270_" class="st0" cx="45.9" cy="71" r="0.3"/>
	</g>
	<g id="XMLID_1267_">
		<circle id="XMLID_1268_" class="st0" cx="48.2" cy="68.4" r="0.1"/>
	</g>
	<g id="XMLID_1265_">
		<circle id="XMLID_1266_" class="st0" cx="39.9" cy="67.8" r="0"/>
	</g>
	<g id="XMLID_1263_">
		<circle id="XMLID_1264_" class="st0" cx="50.5" cy="65.8" r="0.2"/>
	</g>
	<g id="XMLID_1261_">
		<circle id="XMLID_1262_" class="st0" cx="45.3" cy="62.1" r="0.1"/>
	</g>
	<g id="XMLID_1259_">
		<circle id="XMLID_1260_" class="st0" cx="49" cy="55.3" r="0.1"/>
	</g>
	<g id="XMLID_1257_">
		<circle id="XMLID_1258_" class="st0" cx="49.7" cy="58" r="0.2"/>
	</g>
	<g id="XMLID_1255_">
		<circle id="XMLID_1256_" class="st0" cx="54.6" cy="60" r="0.3"/>
	</g>
	<g id="XMLID_1253_">
		<circle id="XMLID_1254_" class="st0" cx="59.1" cy="65.5" r="0.3"/>
	</g>
	<g id="XMLID_1251_">
		<circle id="XMLID_1252_" class="st0" cx="60.5" cy="64.2" r="0.1"/>
	</g>
	<g id="XMLID_1249_">
		<circle id="XMLID_1250_" class="st0" cx="60.5" cy="66" r="0.1"/>
	</g>
	<g id="XMLID_1247_">
		<circle id="XMLID_1248_" class="st0" cx="61.7" cy="71.8" r="0.2"/>
	</g>
	<g id="XMLID_1245_">
		<circle id="XMLID_1246_" class="st0" cx="62.1" cy="72.9" r="0.3"/>
	</g>
</g>
<path id="XMLID_1243_" class="st0" d="M45.8,48.3c-0.8-1.8-1.8-3.8-1.4-4.5c0.6-1,7-2.4,7.9-1.2c0.5,0.7,0.2,3.7,0.2,4.6
	C51.5,48.1,46.2,48.7,45.8,48.3z"/>
<g id="XMLID_1240_">
	<path id="XMLID_1241_" class="st0" d="M48.3,83.2c-0.8,0-1.4,0-2-0.1c-2.8-0.1-5.1-1.1-5.7-2.6c-0.4-0.9-0.1-1.8,0.7-2.8l0.1,0.1
		c-0.8,0.9-1,1.8-0.6,2.6c0.6,1.4,2.8,2.4,5.6,2.5c2.8,0.1,7,0.3,15.6-2.6l0,0.1C55.1,82.8,51,83.2,48.3,83.2z"/>
</g>
<g id="XMLID_1238_">
	
		<rect id="XMLID_1239_" x="56.6" y="63.8" transform="matrix(0.1378 0.9905 -0.9905 0.1378 117.284 -7.0834)" class="st0" width="12.2" height="0.1"/>
</g>
<path id="XMLID_1236_" class="st0" d="M45.2,40.6c-4.2-1.6-7.4-5.4-8.1-10.2C36.1,23.4,41,17,48,16c4.5-0.6,8.8,1.2,11.6,4.4
	c-2.3-1.2-5-1.8-7.7-1.4c-6.8,1-11.6,7.3-10.6,14.1C41.6,36.1,43.1,38.7,45.2,40.6z"/>
<g id="XMLID_876_">
	<path id="XMLID_877_" class="st0" d="M59.5,41.3c0-0.1,0-0.1,0.1-0.1l0,0c0.1,0,0.1,0,0.1,0.1l0,0c0,0.1,0,0.1-0.1,0.1l0,0
		C59.5,41.4,59.5,41.4,59.5,41.3z M59.5,40.8c0-0.1,0-0.1,0.1-0.1l0,0c0.1,0,0.1,0,0.1,0.1l0,0c0,0.1,0,0.1-0.1,0.1l0,0
		C59.5,40.9,59.5,40.8,59.5,40.8z M59.5,40.2c0-0.1,0-0.1,0.1-0.1l0,0c0.1,0,0.1,0,0.1,0.1l0,0c0,0.1,0,0.1-0.1,0.1l0,0
		C59.5,40.3,59.5,40.3,59.5,40.2z M59.5,39.7c0-0.1,0-0.1,0.1-0.1l0,0c0.1,0,0.1,0,0.1,0.1l0,0c0,0.1,0,0.1-0.1,0.1l0,0
		C59.5,39.8,59.5,39.7,59.5,39.7z M59.5,39.1c0-0.1,0-0.1,0.1-0.1l0,0c0.1,0,0.1,0,0.1,0.1l0,0c0,0.1,0,0.1-0.1,0.1l0,0
		C59.5,39.2,59.5,39.2,59.5,39.1z M59.5,38.6c0-0.1,0-0.1,0.1-0.1l0,0c0.1,0,0.1,0,0.1,0.1l0,0c0,0.1,0,0.1-0.1,0.1l0,0
		C59.5,38.7,59.5,38.6,59.5,38.6z M59.5,38c0-0.1,0-0.1,0.1-0.1l0,0c0.1,0,0.1,0,0.1,0.1l0,0c0,0.1,0,0.1-0.1,0.1l0,0
		C59.5,38.1,59.5,38.1,59.5,38z M59.5,37.5c0-0.1,0-0.1,0.1-0.1l0,0c0.1,0,0.1,0,0.1,0.1l0,0c0,0.1,0,0.1-0.1,0.1l0,0
		C59.5,37.6,59.5,37.5,59.5,37.5z M59.5,36.9c0-0.1,0-0.1,0.1-0.1l0,0c0.1,0,0.1,0,0.1,0.1l0,0c0,0.1,0,0.1-0.1,0.1l0,0
		C59.5,37,59.5,37,59.5,36.9z M59.5,36.4c0-0.1,0-0.1,0.1-0.1l0,0c0.1,0,0.1,0,0.1,0.1l0,0c0,0.1,0,0.1-0.1,0.1l0,0
		C59.5,36.5,59.5,36.4,59.5,36.4z M59.5,35.8c0-0.1,0-0.1,0.1-0.1l0,0c0.1,0,0.1,0,0.1,0.1l0,0c0,0.1,0,0.1-0.1,0.1l0,0
		C59.5,35.9,59.5,35.9,59.5,35.8z M59.5,35.3c0-0.1,0-0.1,0.1-0.1l0,0c0.1,0,0.1,0,0.1,0.1l0,0c0,0.1,0,0.1-0.1,0.1l0,0
		C59.5,35.4,59.5,35.3,59.5,35.3z M59.5,34.7c0-0.1,0-0.1,0.1-0.1l0,0c0.1,0,0.1,0,0.1,0.1l0,0c0,0.1,0,0.1-0.1,0.1l0,0
		C59.5,34.8,59.5,34.8,59.5,34.7z M59.5,34.2c0-0.1,0-0.1,0.1-0.1l0,0c0.1,0,0.1,0,0.1,0.1l0,0c0,0.1,0,0.1-0.1,0.1l0,0
		C59.5,34.3,59.5,34.2,59.5,34.2z M59.5,33.6c0-0.1,0-0.1,0.1-0.1l0,0c0.1,0,0.1,0,0.1,0.1l0,0c0,0.1,0,0.1-0.1,0.1l0,0
		C59.5,33.7,59.5,33.7,59.5,33.6z M59.5,33.1c0-0.1,0-0.1,0.1-0.1l0,0c0.1,0,0.1,0,0.1,0.1l0,0c0,0.1,0,0.1-0.1,0.1l0,0
		C59.5,33.2,59.5,33.1,59.5,33.1z M59.5,32.5c0-0.1,0-0.1,0.1-0.1l0,0c0.1,0,0.1,0,0.1,0.1l0,0c0,0.1,0,0.1-0.1,0.1l0,0
		C59.5,32.6,59.5,32.6,59.5,32.5z M59.5,32c0-0.1,0-0.1,0.1-0.1l0,0c0.1,0,0.1,0,0.1,0.1l0,0c0,0.1,0,0.1-0.1,0.1l0,0
		C59.5,32.1,59.5,32,59.5,32z M59.5,31.4c0-0.1,0-0.1,0.1-0.1l0,0c0.1,0,0.1,0,0.1,0.1l0,0c0,0.1,0,0.1-0.1,0.1l0,0
		C59.5,31.5,59.5,31.5,59.5,31.4z M59.5,30.9c0-0.1,0-0.1,0.1-0.1l0,0c0.1,0,0.1,0,0.1,0.1l0,0c0,0.1,0,0.1-0.1,0.1l0,0
		C59.5,31,59.5,30.9,59.5,30.9z M59.5,30.3c0-0.1,0-0.1,0.1-0.1l0,0c0.1,0,0.1,0,0.1,0.1l0,0c0,0.1,0,0.1-0.1,0.1l0,0
		C59.5,30.4,59.5,30.4,59.5,30.3z M59.5,29.8c0-0.1,0-0.1,0.1-0.1l0,0c0.1,0,0.1,0,0.1,0.1l0,0c0,0.1,0,0.1-0.1,0.1l0,0
		C59.5,29.9,59.5,29.8,59.5,29.8z M59.5,29.2c0-0.1,0-0.1,0.1-0.1l0,0c0.1,0,0.1,0,0.1,0.1l0,0c0,0.1,0,0.1-0.1,0.1l0,0
		C59.5,29.3,59.5,29.3,59.5,29.2z M59.5,28.7c0-0.1,0-0.1,0.1-0.1l0,0c0.1,0,0.1,0,0.1,0.1l0,0c0,0.1,0,0.1-0.1,0.1l0,0
		C59.5,28.8,59.5,28.7,59.5,28.7z M59.5,28.1c0-0.1,0-0.1,0.1-0.1l0,0c0.1,0,0.1,0,0.1,0.1l0,0c0,0.1,0,0.1-0.1,0.1l0,0
		C59.5,28.2,59.5,28.2,59.5,28.1z M59.5,27.6c0-0.1,0-0.1,0.1-0.1l0,0c0.1,0,0.1,0,0.1,0.1l0,0c0,0.1,0,0.1-0.1,0.1l0,0
		C59.5,27.7,59.5,27.6,59.5,27.6z M59.5,27c0-0.1,0-0.1,0.1-0.1l0,0c0.1,0,0.1,0,0.1,0.1l0,0c0,0.1,0,0.1-0.1,0.1l0,0
		C59.5,27.1,59.5,27.1,59.5,27z M59.5,26.5c0-0.1,0-0.1,0.1-0.1l0,0c0.1,0,0.1,0,0.1,0.1l0,0c0,0.1,0,0.1-0.1,0.1l0,0
		C59.5,26.6,59.5,26.5,59.5,26.5z M59.5,25.9c0-0.1,0-0.1,0.1-0.1l0,0c0.1,0,0.1,0,0.1,0.1l0,0c0,0.1,0,0.1-0.1,0.1l0,0
		C59.5,26,59.5,26,59.5,25.9z M59.5,25.4c0-0.1,0-0.1,0.1-0.1l0,0c0.1,0,0.1,0,0.1,0.1l0,0c0,0.1,0,0.1-0.1,0.1l0,0
		C59.5,25.5,59.5,25.4,59.5,25.4z M59.5,24.8c0-0.1,0-0.1,0.1-0.1l0,0c0.1,0,0.1,0,0.1,0.1l0,0c0,0.1,0,0.1-0.1,0.1l0,0
		C59.5,24.9,59.5,24.9,59.5,24.8z M59.5,24.3c0-0.1,0-0.1,0.1-0.1l0,0c0.1,0,0.1,0,0.1,0.1l0,0c0,0.1,0,0.1-0.1,0.1l0,0
		C59.5,24.4,59.5,24.3,59.5,24.3z M59.5,23.7c0-0.1,0-0.1,0.1-0.1l0,0c0.1,0,0.1,0,0.1,0.1l0,0c0,0.1,0,0.1-0.1,0.1l0,0
		C59.5,23.8,59.5,23.8,59.5,23.7z M59.5,23.2c0-0.1,0-0.1,0.1-0.1l0,0c0.1,0,0.1,0,0.1,0.1l0,0c0,0.1,0,0.1-0.1,0.1l0,0
		C59.5,23.3,59.5,23.2,59.5,23.2z M59.5,22.6c0-0.1,0-0.1,0.1-0.1l0,0c0.1,0,0.1,0,0.1,0.1l0,0c0,0.1,0,0.1-0.1,0.1l0,0
		C59.5,22.7,59.5,22.7,59.5,22.6z M59.5,22.1c0-0.1,0-0.1,0.1-0.1l0,0c0.1,0,0.1,0,0.1,0.1l0,0c0,0.1,0,0.1-0.1,0.1l0,0
		C59.5,22.2,59.5,22.1,59.5,22.1z M59.5,21.5c0-0.1,0-0.1,0.1-0.1l0,0c0.1,0,0.1,0,0.1,0.1l0,0c0,0.1,0,0.1-0.1,0.1l0,0
		C59.5,21.6,59.5,21.6,59.5,21.5z M59.5,21c0-0.1,0-0.1,0.1-0.1l0,0c0.1,0,0.1,0,0.1,0.1l0,0c0,0.1,0,0.1-0.1,0.1l0,0
		C59.5,21.1,59.5,21,59.5,21z M59.5,20.4c0-0.1,0-0.1,0.1-0.1l0,0c0.1,0,0.1,0,0.1,0.1l0,0c0,0.1,0,0.1-0.1,0.1l0,0
		C59.5,20.5,59.5,20.5,59.5,20.4z"/>
</g>
<g id="XMLID_874_">
	<path id="XMLID_875_" class="st0" d="M54.3,27.6C54.3,27.6,54.3,27.6,54.3,27.6l0-8.7c0,0,0,0,0,0c0,0,0,0,0,0L54.3,27.6
		C54.4,27.6,54.3,27.6,54.3,27.6z"/>
</g>
<g id="XMLID_842_">
	<path id="XMLID_843_" class="st0" d="M56.9,35.2C56.9,35.1,56.9,35.1,56.9,35.2L56.9,35.2c0.1-0.1,0.1,0,0.1,0l0,0
		C57,35.2,57,35.2,56.9,35.2L56.9,35.2C56.9,35.2,56.9,35.2,56.9,35.2z M56.9,34.6C56.9,34.6,56.9,34.5,56.9,34.6L56.9,34.6
		c0.1-0.1,0.1,0,0.1,0l0,0C57,34.6,57,34.7,56.9,34.6L56.9,34.6C56.9,34.7,56.9,34.6,56.9,34.6z M56.9,34.1
		C56.9,34,56.9,34,56.9,34.1L56.9,34.1c0.1-0.1,0.1,0,0.1,0l0,0C57,34.1,57,34.1,56.9,34.1L56.9,34.1C56.9,34.1,56.9,34.1,56.9,34.1
		z M56.9,33.5C56.9,33.5,56.9,33.4,56.9,33.5L56.9,33.5c0.1-0.1,0.1,0,0.1,0l0,0C57,33.5,57,33.6,56.9,33.5L56.9,33.5
		C56.9,33.6,56.9,33.5,56.9,33.5z M56.9,33C56.9,32.9,56.9,32.9,56.9,33L56.9,33c0.1-0.1,0.1,0,0.1,0l0,0C57,33,57,33,56.9,33
		L56.9,33C56.9,33,56.9,33,56.9,33z M56.9,32.4C56.9,32.4,56.9,32.3,56.9,32.4L56.9,32.4c0.1-0.1,0.1,0,0.1,0l0,0
		C57,32.4,57,32.5,56.9,32.4L56.9,32.4C56.9,32.5,56.9,32.4,56.9,32.4z M56.9,31.9C56.9,31.8,56.9,31.8,56.9,31.9L56.9,31.9
		c0.1-0.1,0.1,0,0.1,0l0,0C57,31.9,57,31.9,56.9,31.9L56.9,31.9C56.9,31.9,56.9,31.9,56.9,31.9z M56.9,31.3
		C56.9,31.3,56.9,31.2,56.9,31.3L56.9,31.3c0.1-0.1,0.1,0,0.1,0l0,0C57,31.3,57,31.4,56.9,31.3L56.9,31.3
		C56.9,31.4,56.9,31.3,56.9,31.3z M56.9,30.8C56.9,30.7,56.9,30.7,56.9,30.8L56.9,30.8c0.1-0.1,0.1,0,0.1,0l0,0
		C57,30.8,57,30.8,56.9,30.8L56.9,30.8C56.9,30.8,56.9,30.8,56.9,30.8z M56.9,30.2C56.9,30.2,56.9,30.1,56.9,30.2L56.9,30.2
		c0.1-0.1,0.1,0,0.1,0l0,0C57,30.2,57,30.3,56.9,30.2L56.9,30.2C56.9,30.3,56.9,30.2,56.9,30.2z M56.9,29.7
		C56.9,29.6,56.9,29.6,56.9,29.7L56.9,29.7c0.1-0.1,0.1,0,0.1,0l0,0C57,29.7,57,29.7,56.9,29.7L56.9,29.7
		C56.9,29.7,56.9,29.7,56.9,29.7z M56.9,29.1C56.9,29.1,56.9,29,56.9,29.1L56.9,29.1c0.1-0.1,0.1,0,0.1,0l0,0
		C57,29.1,57,29.2,56.9,29.1L56.9,29.1C56.9,29.2,56.9,29.1,56.9,29.1z M56.9,28.6C56.9,28.5,56.9,28.5,56.9,28.6L56.9,28.6
		c0.1-0.1,0.1,0,0.1,0l0,0C57,28.6,57,28.6,56.9,28.6L56.9,28.6C56.9,28.6,56.9,28.6,56.9,28.6z M56.9,28C56.9,28,56.9,27.9,56.9,28
		L56.9,28c0.1-0.1,0.1,0,0.1,0l0,0C57,28,57,28.1,56.9,28L56.9,28C56.9,28.1,56.9,28,56.9,28z M56.9,27.5
		C56.9,27.4,56.9,27.4,56.9,27.5L56.9,27.5c0.1-0.1,0.1,0,0.1,0l0,0C57,27.5,57,27.5,56.9,27.5L56.9,27.5
		C56.9,27.5,56.9,27.5,56.9,27.5z M56.9,26.9C56.9,26.9,56.9,26.8,56.9,26.9L56.9,26.9c0.1-0.1,0.1,0,0.1,0l0,0
		C57,26.9,57,27,56.9,26.9L56.9,26.9C56.9,27,56.9,26.9,56.9,26.9z M56.9,26.4C56.9,26.3,56.9,26.3,56.9,26.4L56.9,26.4
		c0.1-0.1,0.1,0,0.1,0l0,0C57,26.4,57,26.4,56.9,26.4L56.9,26.4C56.9,26.4,56.9,26.4,56.9,26.4z M56.9,25.8
		C56.9,25.8,56.9,25.7,56.9,25.8L56.9,25.8c0.1-0.1,0.1,0,0.1,0l0,0C57,25.8,57,25.9,56.9,25.8L56.9,25.8
		C56.9,25.9,56.9,25.8,56.9,25.8z M56.9,25.3C56.9,25.2,56.9,25.2,56.9,25.3L56.9,25.3c0.1-0.1,0.1,0,0.1,0l0,0
		C57,25.3,57,25.3,56.9,25.3L56.9,25.3C56.9,25.3,56.9,25.3,56.9,25.3z M56.9,24.7C56.9,24.7,56.9,24.6,56.9,24.7L56.9,24.7
		c0.1-0.1,0.1,0,0.1,0l0,0C57,24.7,57,24.8,56.9,24.7L56.9,24.7C56.9,24.8,56.9,24.7,56.9,24.7z M56.9,24.2
		C56.9,24.1,56.9,24.1,56.9,24.2L56.9,24.2c0.1-0.1,0.1,0,0.1,0l0,0C57,24.2,57,24.2,56.9,24.2L56.9,24.2
		C56.9,24.2,56.9,24.2,56.9,24.2z M56.9,23.6C56.9,23.6,56.9,23.5,56.9,23.6L56.9,23.6c0.1-0.1,0.1,0,0.1,0l0,0
		C57,23.6,57,23.7,56.9,23.6L56.9,23.6C56.9,23.7,56.9,23.6,56.9,23.6z M56.9,23.1C56.9,23,56.9,23,56.9,23.1L56.9,23.1
		c0.1-0.1,0.1,0,0.1,0l0,0C57,23.1,57,23.1,56.9,23.1L56.9,23.1C56.9,23.1,56.9,23.1,56.9,23.1z M56.9,22.5
		C56.9,22.5,56.9,22.4,56.9,22.5L56.9,22.5c0.1-0.1,0.1,0,0.1,0l0,0C57,22.5,57,22.6,56.9,22.5L56.9,22.5
		C56.9,22.6,56.9,22.5,56.9,22.5z M56.9,21.9C56.9,21.9,56.9,21.9,56.9,21.9L56.9,21.9c0.1-0.1,0.1,0,0.1,0l0,0
		C57,22,57,22,56.9,21.9L56.9,21.9C56.9,22,56.9,22,56.9,21.9z M56.9,21.4C56.9,21.4,56.9,21.3,56.9,21.4L56.9,21.4
		c0.1-0.1,0.1,0,0.1,0l0,0C57,21.4,57,21.5,56.9,21.4L56.9,21.4C56.9,21.5,56.9,21.4,56.9,21.4z M56.9,20.8
		C56.9,20.8,56.9,20.8,56.9,20.8L56.9,20.8c0.1-0.1,0.1,0,0.1,0l0,0C57,20.9,57,20.9,56.9,20.8L56.9,20.8
		C56.9,20.9,56.9,20.9,56.9,20.8z M56.9,20.3C56.9,20.3,56.9,20.2,56.9,20.3L56.9,20.3c0.1-0.1,0.1,0,0.1,0l0,0
		C57,20.3,57,20.4,56.9,20.3L56.9,20.3C56.9,20.4,56.9,20.3,56.9,20.3z M56.9,19.7C56.9,19.7,56.9,19.7,56.9,19.7L56.9,19.7
		c0.1-0.1,0.1,0,0.1,0l0,0C57,19.8,57,19.8,56.9,19.7L56.9,19.7C56.9,19.8,56.9,19.8,56.9,19.7z M56.9,19.2
		C56.9,19.2,56.9,19.1,56.9,19.2L56.9,19.2c0.1-0.1,0.1,0,0.1,0l0,0C57,19.2,57,19.3,56.9,19.2L56.9,19.2
		C56.9,19.3,56.9,19.2,56.9,19.2z"/>
</g>
<g id="XMLID_2419_">
	<g id="XMLID_1340_">
		<g id="XMLID_1357_">
			<path id="XMLID_1358_" class="st1" d="M50,65l-3.4-0.7l1.7-3.2L50,65z M46.8,64.2l2.9,0.6l-1.5-3.4L46.8,64.2z"/>
		</g>
		<g id="XMLID_1353_">
			<path id="XMLID_1354_" class="st1" d="M51.6,62.4L48,61.3l4-1.2L51.6,62.4z M48.5,61.3l3,0.9l0.4-1.9L48.5,61.3z"/>
		</g>
		<g id="XMLID_1349_">
			<path id="XMLID_1350_" class="st1" d="M49.7,65.1l1.8-2.8l1.5,1.8L49.7,65.1z M51.5,62.4L50,64.8l2.8-0.9L51.5,62.4z"/>
		</g>
		<g id="XMLID_1347_">
			<polygon id="XMLID_1348_" class="st1" points="52,75.5 52,75.4 54,74.5 52.9,63.9 52.9,63.9 54.3,61.8 51.9,60.3 52,60.2 
				54.5,61.7 53,64 54.1,74.6 			"/>
		</g>
		<g id="XMLID_1345_">
			<polygon id="XMLID_1346_" class="st1" points="52.1,75.5 50.1,75 50,75 46.6,64.3 46.8,64.3 50.2,74.9 51.9,75.4 49.8,64.9 
				49.9,64.9 			"/>
		</g>
		<g id="XMLID_1343_">
			<polygon id="XMLID_1344_" class="st1" points="52.3,77 50.1,75 50.2,74.9 52.1,76.7 51.9,75.3 54.1,76.4 54,74.5 55.2,72.9 
				54.3,61.8 54.5,61.7 55.3,73 54.1,74.5 54.2,76.6 52.1,75.6 			"/>
		</g>
		<g id="XMLID_1341_">
			<polygon id="XMLID_1342_" class="st1" points="52.2,76.9 52.2,76.8 54.1,76.5 55.2,72.9 55.3,73 54.2,76.6 			"/>
		</g>
	</g>
	<g id="XMLID_1308_">
		<g id="XMLID_1325_">
			<path id="XMLID_1326_" class="st1" d="M56.4,66.8L55.3,65l3.2-1.4L56.4,66.8z M55.5,65.1l0.9,1.5l1.8-2.6L55.5,65.1z"/>
		</g>
		<g id="XMLID_1321_">
			<path id="XMLID_1322_" class="st1" d="M57.9,67.3l-1.6-0.6l2.1-3.1l1,3.4L57.9,67.3z M56.5,66.6l1.4,0.5l1.3-0.2l-0.9-3
				L56.5,66.6z"/>
		</g>
		<g id="XMLID_1317_">
			<path id="XMLID_1318_" class="st1" d="M55.6,74.5l-1.1-1.2l0,0l0.8-8.4l1.1,1.8L55.6,74.5z M54.7,73.2l0.9,1l0.8-7.5l-0.9-1.4
				L54.7,73.2z"/>
		</g>
		<g id="XMLID_1315_">
			<polygon id="XMLID_1316_" class="st1" points="56.8,74.9 58.3,63.8 58.4,63.8 57,74.8 57.6,74.7 59.3,67 59.4,67 57.7,74.8 			
				"/>
		</g>
		<g id="XMLID_1311_">
			<path id="XMLID_1312_" class="st1" d="M55.9,76.9l-0.4-2.7l1.5,0.6L55.9,76.9z M55.7,74.4l0.3,2.1l0.8-1.6L55.7,74.4z"/>
		</g>
		<g id="XMLID_1309_">
			<polygon id="XMLID_1310_" class="st1" points="55.9,76.8 54.5,73.2 54.7,73.2 56,76.6 57.6,74.7 57.7,74.8 			"/>
		</g>
	</g>
	<g id="XMLID_1304_">
		<path id="XMLID_1305_" class="st1" d="M47,72.3l-2.1-1.2l2.3-0.1L47,72.3z M45.3,71.2l1.6,0.9l0.1-1L45.3,71.2z"/>
	</g>
	<g id="XMLID_1300_">
		<path id="XMLID_1301_" class="st1" d="M45.4,73.2L45,71.1l2,1.1l-0.8,0.8L45.4,73.2z M45.2,71.3l0.3,1.7l0.7-0.2l0.6-0.6
			L45.2,71.3z"/>
	</g>
	<g id="XMLID_1296_">
		<path id="XMLID_1297_" class="st1" d="M49.4,76.2l-2.5-4l0.2-1.3l2.7,4.3L49.4,76.2z M47,72.2l2.4,3.7l0.2-0.7l-2.5-3.9L47,72.2z"
			/>
	</g>
	<g id="XMLID_1294_">
		<polygon id="XMLID_1295_" class="st1" points="48.4,76.9 48.3,76.8 45.4,73.2 45.5,73.1 48.4,76.7 48.7,76.6 45.1,71.2 45.2,71.1 
			48.9,76.7 		"/>
	</g>
	<g id="XMLID_1290_">
		<path id="XMLID_1291_" class="st1" d="M49.9,77.6l-1.2-0.9l0.7-0.8L49.9,77.6z M48.9,76.6l0.8,0.6l-0.3-1.1L48.9,76.6z"/>
	</g>
	<g id="XMLID_1288_">
		<path id="XMLID_1289_" class="st1" d="M48.4,76.9l0-0.1l1.4,0.6l-0.2-2.1l0.1,0l0.2,2.3C49.9,77.5,48.2,76.9,48.4,76.9z"/>
	</g>
	<path id="XMLID_1237_" class="st1" d="M57,35.1c0,1.2-0.5,1.5-1.5,0.9c1,0.6,1,1.2,0,1.8c1-0.6,1.5-0.3,1.5,0.9
		c0-1.2,0.5-1.5,1.5-0.9c-1-0.6-1-1.2,0-1.8C57.5,36.6,57,36.3,57,35.1z"/>
	<g id="XMLID_1207_">
		<circle id="XMLID_1235_" class="st1" cx="43.6" cy="39.9" r="0.1"/>
		<circle id="XMLID_1234_" class="st1" cx="42.1" cy="39.1" r="0.1"/>
		<circle id="XMLID_1233_" class="st1" cx="40.7" cy="38.1" r="0.2"/>
		<circle id="XMLID_1232_" class="st1" cx="39.5" cy="36.9" r="0.2"/>
		<circle id="XMLID_1231_" class="st1" cx="38.4" cy="35.5" r="0.3"/>
		<circle id="XMLID_1230_" class="st1" cx="37.5" cy="34.1" r="0.3"/>
		<circle id="XMLID_1229_" class="st1" cx="36.9" cy="32.5" r="0.3"/>
		<circle id="XMLID_1228_" class="st1" cx="36.5" cy="30.8" r="0.3"/>
		<circle id="XMLID_1227_" class="st1" cx="36.3" cy="29.1" r="0.4"/>
		<circle id="XMLID_1226_" class="st1" cx="36.4" cy="27.4" r="0.4"/>
		<circle id="XMLID_1225_" class="st1" cx="36.7" cy="25.7" r="0.4"/>
		<circle id="XMLID_1224_" class="st1" cx="37.2" cy="24" r="0.4"/>
		<circle id="XMLID_1223_" class="st1" cx="37.9" cy="22.4" r="0.4"/>
		<circle id="XMLID_1222_" class="st1" cx="38.8" cy="21" r="0.4"/>
		<circle id="XMLID_1221_" class="st1" cx="39.8" cy="19.6" r="0.4"/>
		<circle id="XMLID_1220_" class="st1" cx="41.1" cy="18.4" r="0.4"/>
		<circle id="XMLID_1219_" class="st1" cx="42.5" cy="17.4" r="0.4"/>
		<circle id="XMLID_1218_" class="st1" cx="44" cy="16.6" r="0.4"/>
		<circle id="XMLID_1217_" class="st1" cx="45.5" cy="15.9" r="0.4"/>
		<circle id="XMLID_1216_" class="st1" cx="47.2" cy="15.5" r="0.4"/>
		<circle id="XMLID_1215_" class="st1" cx="48.9" cy="15.2" r="0.3"/>
		<circle id="XMLID_1214_" class="st1" cx="50.6" cy="15.3" r="0.3"/>
		<circle id="XMLID_1213_" class="st1" cx="52.3" cy="15.5" r="0.3"/>
		<circle id="XMLID_1212_" class="st1" cx="54" cy="16" r="0.2"/>
		<circle id="XMLID_1211_" class="st1" cx="55.5" cy="16.8" r="0.2"/>
		<circle id="XMLID_1210_" class="st1" cx="56.9" cy="17.7" r="0.1"/>
		<circle id="XMLID_1209_" class="st1" cx="58.3" cy="18.9" r="0.1"/>
		
			<rect id="XMLID_1208_" x="59.4" y="20.1" transform="matrix(0.7074 0.7068 -0.7068 0.7074 31.5994 -36.1267)" class="st1" width="0" height="0"/>
	</g>
	<g id="XMLID_917_">
		<path id="XMLID_1206_" class="st1" d="M60.3,44.7c0,0.1-0.1,0.1-0.1,0.1c0,0-0.1,0.1-0.1,0.1c0,0-0.1,0.1-0.2,0.1
			c-0.1,0-0.1,0.1-0.2,0.1c0,0-0.1,0-0.1,0c-0.1,0-0.1,0-0.2,0h0c-0.1,0-0.1,0-0.1,0c-0.1,0-0.1-0.1-0.2-0.1c-0.1,0-0.1-0.1-0.2-0.2
			v0c-0.1-0.1-0.1-0.2-0.1-0.3c0,0,0-0.1,0-0.1v0c0,0,0-0.1,0-0.1c0,0,0,0,0-0.1c0-0.1,0-0.2,0.1-0.2c0-0.1,0.1-0.2,0.2-0.2
			c0,0,0.1-0.1,0.1-0.1c0,0,0.1-0.1,0.2-0.1c0.1,0,0.1-0.1,0.2-0.1h0c0,0,0.1,0,0.1,0c0,0,0,0,0,0c0,0-0.1,0.1-0.1,0.1
			c0,0-0.1,0.1-0.1,0.1c-0.1,0.1-0.1,0.1-0.1,0.2c0,0.1,0,0.1,0,0.2c0,0,0,0,0,0.1c0,0,0,0.1,0,0.1v0c0,0,0,0.1,0,0.1
			c0,0.1,0.1,0.2,0.1,0.2v0c0,0.1,0.1,0.1,0.1,0.1c0,0,0.1,0.1,0.1,0.1c0,0,0.1,0,0.1,0h0c0,0,0.1,0,0.1,0c0,0,0.1,0,0.1,0
			c0.1,0,0.1,0,0.2-0.1C60.2,44.8,60.2,44.7,60.3,44.7C60.3,44.7,60.3,44.7,60.3,44.7z"/>
		<g id="XMLID_1202_">
			<path id="XMLID_1203_" class="st1" d="M59.8,44.9c0,0-0.1,0-0.1,0c0,0-0.1,0-0.1,0c0,0-0.1,0-0.1-0.1c-0.1,0-0.1-0.1-0.2-0.1l0,0
				c-0.1-0.1-0.1-0.1-0.1-0.2c0,0,0-0.1,0-0.1c0,0,0-0.1,0-0.1c0,0,0,0,0-0.1c0-0.1,0-0.1,0-0.2c0-0.1,0.1-0.2,0.1-0.2
				c0,0,0.1-0.1,0.1-0.1c0,0,0.1-0.1,0.1-0.1l0,0c0,0,0,0,0,0c0.1,0,0.1,0,0.2,0c0.1,0,0.1,0,0.1,0c0.1,0,0.1,0.1,0.2,0.1
				c0.1,0,0.1,0.1,0.2,0.2l0,0c0.1,0.1,0.1,0.2,0.1,0.3c0,0,0,0.1,0,0.2c0,0,0,0.1,0,0.1c0,0,0,0,0,0.1c0,0.1,0,0.2-0.1,0.2
				c0,0,0,0.1-0.1,0.1l0,0c0,0,0,0,0,0c0,0-0.1,0.1-0.1,0.1c-0.1,0-0.1,0-0.2,0.1C59.9,44.8,59.8,44.9,59.8,44.9z M59.3,44.6
				c0,0.1,0.1,0.1,0.1,0.1c0,0,0.1,0.1,0.1,0.1c0,0,0.1,0,0.1,0c0.1,0,0.2,0,0.3,0c0.1,0,0.1,0,0.2-0.1c0,0,0.1,0,0.1-0.1
				c0,0,0-0.1,0-0.1c0-0.1,0-0.1,0.1-0.2c0,0,0,0,0-0.1c0,0,0-0.1,0-0.1c0-0.1,0-0.1,0-0.1c0-0.1-0.1-0.2-0.1-0.3l0,0
				c0-0.1-0.1-0.1-0.2-0.2c0,0-0.1-0.1-0.2-0.1c0,0-0.1,0-0.1,0c-0.1,0-0.1,0-0.2,0l0,0c0,0-0.1,0-0.1,0.1c0,0-0.1,0.1-0.1,0.1
				c-0.1,0.1-0.1,0.1-0.1,0.2c0,0.1,0,0.1,0,0.2c0,0,0,0,0,0.1c0,0,0,0.1,0,0.1c0,0,0,0.1,0,0.1C59.2,44.4,59.2,44.5,59.3,44.6
				L59.3,44.6z"/>
		</g>
		<g id="XMLID_918_">
			<g id="XMLID_1198_">
				<path id="XMLID_1199_" class="st1" d="M59.7,43.5L59.7,43.5c-0.1,0-0.2,0-0.3,0h0l0,0c-0.1-0.1-0.4-0.4-0.3-0.9
					c0-0.2,0.1-0.3,0.2-0.4c0.1-0.2,0.3-0.4,0.4-0.8l0,0c0,0.1,0,0.2,0.1,0.3c0.1,0.1,0.1,0.3,0.1,0.5c0,0.2-0.1,0.4-0.2,0.5
					C59.7,43,59.5,43.2,59.7,43.5L59.7,43.5z M59.5,43.5c0,0,0.1,0,0.1,0c-0.2-0.3,0-0.5,0.1-0.8c0.1-0.2,0.2-0.3,0.2-0.5
					c0-0.2-0.1-0.3-0.1-0.5c0-0.1-0.1-0.1-0.1-0.2c-0.1,0.4-0.2,0.6-0.4,0.7c-0.1,0.1-0.2,0.2-0.2,0.4c-0.1,0.4,0.2,0.8,0.3,0.9
					C59.5,43.5,59.5,43.5,59.5,43.5z"/>
			</g>
			<g id="XMLID_1194_">
				<path id="XMLID_1195_" class="st1" d="M59,43.7L59,43.7c-0.1,0-0.3-0.1-0.4-0.4c0-0.1,0-0.2,0-0.3c0-0.1,0-0.3,0-0.6l0,0
					c0,0.1,0.1,0.1,0.1,0.1c0.1,0,0.2,0.1,0.2,0.2c0.1,0.1,0.1,0.2,0.1,0.3c0,0.2,0,0.3,0.1,0.4l0,0l0,0
					C59.1,43.6,59.1,43.6,59,43.7L59,43.7z M58.7,42.6c0.1,0.2,0,0.3,0,0.5c0,0.1,0,0.2,0,0.3c0.1,0.2,0.2,0.3,0.3,0.3
					c0,0,0.1-0.1,0.1-0.1C59,43.5,59,43.3,59,43.1c0-0.1,0-0.2-0.1-0.3C58.9,42.7,58.8,42.7,58.7,42.6
					C58.7,42.6,58.7,42.6,58.7,42.6z"/>
			</g>
			<g id="XMLID_1190_">
				<path id="XMLID_1191_" class="st1" d="M58.4,44.1c-0.2,0-0.4-0.1-0.6-0.2c-0.1-0.1-0.2-0.3-0.2-0.4c-0.1-0.2-0.2-0.5-0.5-0.8
					l0,0c0.1,0.1,0.2,0.1,0.3,0.1c0.1,0,0.3,0,0.5,0.1c0.2,0.1,0.3,0.3,0.4,0.4c0.2,0.3,0.3,0.5,0.6,0.5l0,0l0,0
					c-0.1,0.1-0.1,0.2-0.1,0.2l0,0l0,0C58.7,44,58.6,44.1,58.4,44.1z M57.2,42.7c0.3,0.3,0.4,0.5,0.4,0.7c0.1,0.1,0.1,0.3,0.2,0.4
					c0.3,0.3,0.7,0.2,0.9,0.2c0-0.1,0.1-0.1,0.1-0.2c-0.3,0-0.5-0.2-0.6-0.5c-0.1-0.2-0.2-0.3-0.3-0.4c-0.2-0.1-0.3-0.1-0.5-0.1
					C57.4,42.7,57.3,42.7,57.2,42.7z"/>
			</g>
			<g id="XMLID_1186_">
				<path id="XMLID_1187_" class="st1" d="M58.4,44.6c0,0-0.1,0-0.1,0c-0.1,0-0.2-0.1-0.2-0.1c-0.1-0.1-0.2-0.2-0.5-0.2l0,0
					c0.1,0,0.1,0,0.2-0.1c0.1,0,0.2-0.1,0.3-0.1c0.1,0,0.2,0.1,0.3,0.1c0.1,0.1,0.3,0.2,0.4,0.1l0,0l0,0c0,0,0,0,0,0.1
					c0,0,0,0.1,0,0.1l0,0l0,0C58.7,44.5,58.5,44.6,58.4,44.6z M57.6,44.2c0.2,0.1,0.3,0.1,0.4,0.2c0.1,0.1,0.1,0.1,0.2,0.1
					c0.2,0.1,0.4-0.1,0.5-0.1c0,0,0-0.1,0-0.1c0,0,0,0,0,0c-0.1,0.1-0.3,0-0.4-0.1C58.2,44.1,58.1,44,58,44c-0.1,0-0.2,0-0.3,0.1
					C57.7,44.1,57.6,44.2,57.6,44.2z"/>
			</g>
			<g id="XMLID_1182_">
				<path id="XMLID_1183_" class="st1" d="M56.9,45.6L56.9,45.6c0.1-0.1,0.2-0.2,0.2-0.3c0.1-0.1,0.2-0.3,0.3-0.4
					c0.2-0.1,0.4-0.1,0.6-0.1c0.3,0,0.6,0,0.7-0.3l0,0l0,0c0,0.1,0.1,0.2,0.1,0.2l0,0v0c0,0.1-0.2,0.6-0.6,0.7c-0.2,0-0.3,0-0.5,0
					C57.6,45.5,57.3,45.4,56.9,45.6z M58.8,44.6c-0.1,0.3-0.4,0.3-0.7,0.3c-0.2,0-0.4,0-0.5,0.1c-0.2,0.1-0.3,0.2-0.3,0.4
					c0,0.1-0.1,0.1-0.1,0.2c0.4-0.1,0.6-0.1,0.8,0c0.2,0,0.3,0,0.5,0c0.4-0.1,0.6-0.5,0.6-0.7C58.8,44.7,58.8,44.7,58.8,44.6z"/>
			</g>
			<g id="XMLID_1178_">
				<path id="XMLID_1179_" class="st1" d="M58.4,46L58.4,46c0-0.1,0-0.1,0-0.2c0-0.1,0-0.2,0.1-0.3c0.1-0.1,0.2-0.2,0.3-0.2
					c0.1-0.1,0.3-0.2,0.3-0.3l0,0l0,0c0,0,0.1,0.1,0.2,0.1l0,0l0,0c0,0.1,0,0.3-0.1,0.5l0,0c-0.1,0.1-0.2,0.1-0.2,0.1
					C58.7,45.8,58.6,45.8,58.4,46z M59.1,45c0,0.2-0.2,0.2-0.3,0.3c-0.1,0.1-0.2,0.1-0.2,0.2c-0.1,0.1-0.1,0.2-0.1,0.3
					c0,0,0,0.1,0,0.1c0.1-0.1,0.3-0.2,0.4-0.2c0.1,0,0.2-0.1,0.2-0.1l0,0c0.2-0.2,0.1-0.4,0.1-0.5C59.2,45,59.1,45,59.1,45z"/>
			</g>
			<g id="XMLID_1174_">
				<path id="XMLID_1175_" class="st1" d="M59.3,47.2L59.3,47.2c0-0.1-0.1-0.2-0.1-0.3c-0.1-0.1-0.1-0.3-0.1-0.5
					c0-0.2,0.1-0.4,0.2-0.5c0.2-0.3,0.3-0.5,0.1-0.8l0,0l0,0c0.1,0,0.2,0,0.3,0l0,0l0,0c0.1,0.1,0.4,0.4,0.3,0.9l0,0
					c0,0.2-0.1,0.3-0.2,0.4C59.6,46.6,59.4,46.8,59.3,47.2z M59.4,45.1c0.2,0.3,0,0.5-0.1,0.8c-0.1,0.2-0.2,0.3-0.2,0.5
					c0,0.2,0.1,0.3,0.1,0.5c0,0.1,0.1,0.1,0.1,0.2c0.1-0.4,0.2-0.6,0.4-0.7c0.1-0.1,0.2-0.2,0.2-0.4l0,0c0.1-0.4-0.2-0.8-0.3-0.9
					C59.6,45.1,59.5,45.1,59.4,45.1z"/>
			</g>
			<g id="XMLID_1170_">
				<path id="XMLID_1171_" class="st1" d="M60.4,46.1c0-0.1-0.1-0.1-0.1-0.1c-0.1,0-0.2-0.1-0.2-0.2C60,45.7,60,45.6,60,45.5
					c0-0.2,0-0.3-0.1-0.4l0,0l0,0c0.1,0,0.1-0.1,0.1-0.1l0,0l0,0c0.1,0,0.3,0.1,0.4,0.4c0,0.1,0,0.2,0,0.3
					C60.4,45.7,60.4,45.9,60.4,46.1L60.4,46.1z M59.9,45c0.1,0.1,0.1,0.3,0.1,0.4c0,0.1,0,0.2,0.1,0.3c0.1,0.1,0.1,0.2,0.2,0.2
					c0,0,0.1,0,0.1,0.1c-0.1-0.2,0-0.3,0-0.5c0-0.1,0-0.2,0-0.3C60.3,45.1,60.2,45,60,45C60,45,60,45,59.9,45z"/>
			</g>
			<g id="XMLID_1166_">
				<path id="XMLID_1167_" class="st1" d="M62,46c-0.1-0.1-0.2-0.1-0.3-0.1c-0.1,0-0.3,0-0.5-0.1c-0.2-0.1-0.3-0.3-0.4-0.4
					c-0.2-0.3-0.3-0.5-0.6-0.5l0,0l0,0c0.1-0.1,0.1-0.2,0.1-0.2l0,0l0,0c0.1,0,0.6-0.2,0.9,0.2c0.1,0.1,0.2,0.3,0.2,0.4
					C61.5,45.4,61.6,45.6,62,46L62,46z M60.2,44.8c0.3,0,0.4,0.3,0.6,0.5c0.1,0.2,0.2,0.3,0.3,0.4c0.2,0.1,0.3,0.1,0.5,0.1
					c0.1,0,0.2,0,0.2,0c-0.3-0.3-0.4-0.5-0.4-0.7c-0.1-0.1-0.1-0.3-0.2-0.4c-0.3-0.3-0.7-0.2-0.9-0.2C60.3,44.7,60.2,44.8,60.2,44.8
					C60.2,44.8,60.2,44.8,60.2,44.8z"/>
			</g>
			<g id="XMLID_927_">
				<path id="XMLID_928_" class="st1" d="M61.1,44.6c-0.1,0-0.2-0.1-0.3-0.1c-0.1-0.1-0.3-0.2-0.4-0.1l0,0l0,0c0,0,0,0,0-0.1
					c0,0,0-0.1,0-0.1v0l0,0c0.1-0.1,0.3-0.2,0.5-0.1c0.1,0,0.2,0.1,0.2,0.1c0.1,0.1,0.2,0.2,0.5,0.2l0,0c-0.1,0-0.1,0-0.2,0.1
					C61.3,44.5,61.2,44.6,61.1,44.6z M60.5,44.3c0.1,0,0.2,0.1,0.3,0.1c0.1,0.1,0.2,0.1,0.3,0.1c0.1,0,0.2,0,0.3-0.1
					c0,0,0.1,0,0.1,0c-0.2-0.1-0.3-0.1-0.4-0.2c-0.1-0.1-0.1-0.1-0.2-0.1c-0.2-0.1-0.4,0.1-0.5,0.1c0,0,0,0.1,0,0.1c0,0,0,0,0,0
					C60.4,44.3,60.4,44.3,60.5,44.3z"/>
			</g>
			<g id="XMLID_923_">
				<path id="XMLID_924_" class="st1" d="M60.3,44.1L60.3,44.1c0-0.1-0.1-0.2-0.2-0.3l0,0v0c0-0.1,0.2-0.6,0.6-0.7
					c0.2,0,0.3,0,0.5,0c0.2,0,0.5,0.1,0.9-0.1l0,0c-0.1,0-0.2,0.1-0.2,0.2c-0.1,0.1-0.2,0.3-0.3,0.4c-0.2,0.1-0.4,0.1-0.6,0.1
					C60.7,43.7,60.5,43.7,60.3,44.1L60.3,44.1z M60.2,43.8c0.1,0.1,0.1,0.1,0.1,0.2c0.1-0.3,0.4-0.3,0.7-0.3c0.2,0,0.4,0,0.5-0.1
					c0.2-0.1,0.3-0.2,0.3-0.4c0-0.1,0.1-0.1,0.1-0.2c-0.4,0.1-0.6,0.1-0.8,0c-0.2,0-0.3,0-0.5,0C60.4,43.2,60.2,43.6,60.2,43.8z"/>
			</g>
			<g id="XMLID_919_">
				<path id="XMLID_920_" class="st1" d="M60,43.7L60,43.7c-0.1-0.1-0.1-0.1-0.2-0.1l0,0l0,0c0-0.1,0-0.3,0.1-0.5
					c0.1-0.1,0.2-0.1,0.2-0.1c0.1-0.1,0.3-0.1,0.5-0.3l0,0c0,0.1,0,0.1-0.1,0.2c0,0.1,0,0.2-0.1,0.3c-0.1,0.1-0.2,0.2-0.3,0.2
					C60.2,43.4,60,43.5,60,43.7L60,43.7z M59.9,43.5c0,0,0.1,0,0.1,0.1c0-0.2,0.2-0.2,0.3-0.3c0.1-0.1,0.2-0.1,0.2-0.2
					c0.1-0.1,0.1-0.2,0.1-0.3c0,0,0-0.1,0-0.1c-0.1,0.1-0.3,0.2-0.4,0.2c-0.1,0-0.2,0.1-0.2,0.1C59.8,43.2,59.8,43.4,59.9,43.5z"/>
			</g>
		</g>
	</g>
	<g id="XMLID_836_">
		<g id="XMLID_838_">
			<path id="XMLID_839_" class="st1" d="M54.3,32.5c-1.4,0-2.5-1.1-2.5-2.5c0-1.4,1.1-2.5,2.5-2.5c1.4,0,2.5,1.1,2.5,2.5
				C56.8,31.4,55.7,32.5,54.3,32.5z M54.3,27.6c-1.3,0-2.4,1.1-2.4,2.4c0,1.3,1.1,2.4,2.4,2.4s2.4-1.1,2.4-2.4
				C56.7,28.7,55.6,27.6,54.3,27.6z"/>
		</g>
		<path id="XMLID_837_" class="st1" d="M57.5,29.8c0.1,0,0.2,0.1,0.4,0.1c0.1,0,0.2,0.1,0.4,0.2c0.1,0.1,0.2,0.1,0.3,0.2
			c0,0.1,0.1,0.1,0.1,0.2c0,0.1-0.1,0.2-0.1,0.2c-0.1,0.1-0.1,0.1-0.2,0.1c-0.1,0-0.1,0.1-0.2,0.1c-0.1,0-0.3,0.1-0.4,0.1
			c-0.3,0.1-0.5,0.1-0.8,0.1c-1,0.1-2.1,0-3.1-0.1c-1-0.1-2-0.3-3-0.7c-0.1-0.1-0.2-0.1-0.4-0.2c-0.1-0.1-0.2-0.1-0.3-0.2
			c-0.1,0-0.1-0.1-0.1-0.2c0,0,0,0,0-0.1c0,0,0,0,0-0.1c0,0,0,0,0-0.1c0,0,0,0,0-0.1c0-0.1,0.1-0.1,0.2-0.2c0.1,0,0.1-0.1,0.2-0.1
			c0.1,0,0.3-0.1,0.4-0.1c0.1,0,0.3,0,0.4,0c0.3,0,0.5,0,0.8,0c-0.3,0-0.5,0.1-0.8,0.1c-0.2,0-0.5,0.1-0.7,0.2
			c-0.1,0-0.1,0.1-0.2,0.1c0,0-0.1,0.1-0.1,0.1c0,0,0,0.1,0,0.1c0,0,0.1,0.1,0.1,0.1c0.2,0.1,0.4,0.2,0.7,0.3c0.5,0.2,1,0.3,1.5,0.4
			c0.5,0.1,1,0.2,1.5,0.2c0.5,0.1,1,0.1,1.5,0.1c0.5,0,1,0,1.5,0c0.3,0,0.5,0,0.8-0.1c0.1,0,0.2,0,0.4-0.1c0.1,0,0.2-0.1,0.3-0.1
			c0,0,0.1-0.1,0.1-0.1c0,0,0-0.1,0-0.1c-0.1-0.1-0.2-0.2-0.3-0.2C57.9,30,57.7,29.9,57.5,29.8z"/>
	</g>
</g>
<g id="XMLID_693_">
	<g id="XMLID_834_">
		<circle id="XMLID_835_" class="st0" cx="75.5" cy="94.7" r="0.3"/>
	</g>
	<g id="XMLID_832_">
		<circle id="XMLID_833_" class="st0" cx="70.6" cy="97.7" r="0.2"/>
	</g>
	<g id="XMLID_830_">
		<circle id="XMLID_831_" class="st0" cx="69.6" cy="90" r="0.1"/>
	</g>
	<g id="XMLID_828_">
		<circle id="XMLID_829_" class="st0" cx="65.7" cy="93.6" r="0.3"/>
	</g>
	<g id="XMLID_826_">
		<circle id="XMLID_827_" class="st0" cx="64.4" cy="94.5" r="0.1"/>
	</g>
	<g id="XMLID_824_">
		<circle id="XMLID_825_" class="st0" cx="60.4" cy="91.3" r="0.2"/>
	</g>
	<g id="XMLID_822_">
		<circle id="XMLID_823_" class="st0" cx="59.7" cy="95.4" r="0.1"/>
	</g>
	<g id="XMLID_820_">
		<circle id="XMLID_821_" class="st0" cx="58.2" cy="88.1" r="0.3"/>
	</g>
	<g id="XMLID_818_">
		<circle id="XMLID_819_" class="st0" cx="53.8" cy="87.4" r="0.3"/>
	</g>
	<g id="XMLID_816_">
		<circle id="XMLID_817_" class="st0" cx="49.2" cy="90.1" r="0.2"/>
	</g>
	<g id="XMLID_814_">
		<circle id="XMLID_815_" class="st0" cx="46" cy="86.6" r="0.1"/>
	</g>
	<g id="XMLID_812_">
		<circle id="XMLID_813_" class="st0" cx="45.1" cy="84.1" r="0.2"/>
	</g>
	<g id="XMLID_810_">
		<circle id="XMLID_811_" class="st0" cx="35.6" cy="86.8" r="0.2"/>
	</g>
	<g id="XMLID_808_">
		<circle id="XMLID_809_" class="st0" cx="38.1" cy="79" r="0.1"/>
	</g>
	<g id="XMLID_806_">
		<circle id="XMLID_807_" class="st0" cx="37.5" cy="76.3" r="0.1"/>
	</g>
	<g id="XMLID_804_">
		<circle id="XMLID_805_" class="st0" cx="42.2" cy="72.6" r="0"/>
	</g>
	<g id="XMLID_802_">
		<circle id="XMLID_803_" class="st0" cx="35.9" cy="68.3" r="0.1"/>
	</g>
	<g id="XMLID_800_">
		<circle id="XMLID_801_" class="st0" cx="39.7" cy="64.1" r="0.3"/>
	</g>
	<g id="XMLID_798_">
		<circle id="XMLID_799_" class="st0" cx="35.9" cy="59.6" r="0"/>
	</g>
	<g id="XMLID_796_">
		<circle id="XMLID_797_" class="st0" cx="36.2" cy="58.5" r="0.3"/>
	</g>
	<g id="XMLID_794_">
		<circle id="XMLID_795_" class="st0" cx="35.9" cy="57" r="0.1"/>
	</g>
	<g id="XMLID_792_">
		<circle id="XMLID_793_" class="st0" cx="38.4" cy="52.1" r="0.1"/>
	</g>
	<g id="XMLID_790_">
		<circle id="XMLID_791_" class="st0" cx="33.3" cy="54.9" r="0.1"/>
	</g>
	<g id="XMLID_788_">
		<circle id="XMLID_789_" class="st0" cx="32.9" cy="52.1" r="0.1"/>
	</g>
	<g id="XMLID_786_">
		<circle id="XMLID_787_" class="st0" cx="31.1" cy="46.2" r="0.1"/>
	</g>
	<g id="XMLID_784_">
		<circle id="XMLID_785_" class="st0" cx="27.8" cy="46.7" r="0.2"/>
	</g>
	<g id="XMLID_782_">
		<circle id="XMLID_783_" class="st0" cx="27.5" cy="44.8" r="0.1"/>
	</g>
	<g id="XMLID_780_">
		<circle id="XMLID_781_" class="st0" cx="31.4" cy="39.5" r="0.2"/>
	</g>
	<g id="XMLID_778_">
		<circle id="XMLID_779_" class="st0" cx="29.4" cy="34.6" r="0.1"/>
	</g>
	<g id="XMLID_776_">
		<circle id="XMLID_777_" class="st0" cx="21.7" cy="30.6" r="0.2"/>
	</g>
	<g id="XMLID_774_">
		<circle id="XMLID_775_" class="st0" cx="20.6" cy="26.7" r="0.1"/>
	</g>
	<g id="XMLID_772_">
		<circle id="XMLID_773_" class="st0" cx="27.4" cy="21.5" r="0.2"/>
	</g>
	<g id="XMLID_770_">
		<circle id="XMLID_771_" class="st0" cx="26.6" cy="13.8" r="0.2"/>
	</g>
	<g id="XMLID_768_">
		<circle id="XMLID_769_" class="st0" cx="36.9" cy="17.7" r="0.2"/>
	</g>
	<g id="XMLID_766_">
		<circle id="XMLID_767_" class="st0" cx="36.4" cy="8.5" r="0.1"/>
	</g>
	<g id="XMLID_764_">
		<circle id="XMLID_765_" class="st0" cx="42" cy="10.3" r="0.1"/>
	</g>
	<g id="XMLID_762_">
		<circle id="XMLID_763_" class="st0" cx="40.8" cy="6.5" r="0.3"/>
	</g>
	<g id="XMLID_760_">
		<circle id="XMLID_761_" class="st0" cx="43.9" cy="2.9" r="0.2"/>
	</g>
	<g id="XMLID_758_">
		<circle id="XMLID_759_" class="st0" cx="49.6" cy="4.7" r="0.1"/>
	</g>
	<g id="XMLID_756_">
		<circle id="XMLID_757_" class="st0" cx="52.9" cy="12.8" r="0.1"/>
	</g>
	<g id="XMLID_754_">
		<circle id="XMLID_755_" class="st0" cx="55.6" cy="15.2" r="0.2"/>
	</g>
	<g id="XMLID_752_">
		<circle id="XMLID_753_" class="st0" cx="57.6" cy="19" r="0.2"/>
	</g>
	<g id="XMLID_750_">
		<circle id="XMLID_751_" class="st0" cx="61.5" cy="16.6" r="0.1"/>
	</g>
	<g id="XMLID_748_">
		<circle id="XMLID_749_" class="st0" cx="66.2" cy="19" r="0.2"/>
	</g>
	<g id="XMLID_746_">
		<circle id="XMLID_747_" class="st0" cx="67.8" cy="20.9" r="0.2"/>
	</g>
	<g id="XMLID_744_">
		<circle id="XMLID_745_" class="st0" cx="70.8" cy="24.6" r="0.2"/>
	</g>
	<g id="XMLID_742_">
		<circle id="XMLID_743_" class="st0" cx="66.6" cy="27.7" r="0.2"/>
	</g>
	<g id="XMLID_740_">
		<circle id="XMLID_741_" class="st0" cx="70.1" cy="33" r="0.2"/>
	</g>
	<g id="XMLID_738_">
		<circle id="XMLID_739_" class="st0" cx="61.7" cy="32.3" r="0.2"/>
	</g>
	<g id="XMLID_736_">
		<circle id="XMLID_737_" class="st0" cx="67.5" cy="37.6" r="0.1"/>
	</g>
	<g id="XMLID_734_">
		<circle id="XMLID_735_" class="st0" cx="58.2" cy="38.6" r="0.1"/>
	</g>
	<g id="XMLID_732_">
		<circle id="XMLID_733_" class="st0" cx="57.3" cy="42.2" r="0"/>
	</g>
	<g id="XMLID_730_">
		<circle id="XMLID_731_" class="st0" cx="61.8" cy="47.1" r="0.2"/>
	</g>
	<g id="XMLID_728_">
		<circle id="XMLID_729_" class="st0" cx="61.6" cy="54.5" r="0.1"/>
	</g>
	<g id="XMLID_726_">
		<circle id="XMLID_727_" class="st0" cx="66.1" cy="53.4" r="0.2"/>
	</g>
	<g id="XMLID_724_">
		<circle id="XMLID_725_" class="st0" cx="70" cy="50.2" r="0.1"/>
	</g>
	<g id="XMLID_722_">
		<circle id="XMLID_723_" class="st0" cx="71.2" cy="51.6" r="0.1"/>
	</g>
	<g id="XMLID_720_">
		<circle id="XMLID_721_" class="st0" cx="69.8" cy="60.2" r="0.1"/>
	</g>
	<g id="XMLID_718_">
		<circle id="XMLID_719_" class="st0" cx="73.9" cy="58.4" r="0.1"/>
	</g>
	<g id="XMLID_716_">
		<circle id="XMLID_717_" class="st0" cx="74.5" cy="58.5" r="0.3"/>
	</g>
	<g id="XMLID_714_">
		<circle id="XMLID_715_" class="st0" cx="71.9" cy="59.8" r="0.2"/>
	</g>
	<g id="XMLID_712_">
		<circle id="XMLID_713_" class="st0" cx="71.2" cy="60.5" r="0.2"/>
	</g>
	<g id="XMLID_710_">
		<circle id="XMLID_711_" class="st0" cx="78.9" cy="62" r="0.2"/>
	</g>
	<g id="XMLID_708_">
		<circle id="XMLID_709_" class="st0" cx="78.2" cy="64.6" r="0.1"/>
	</g>
	<g id="XMLID_706_">
		<circle id="XMLID_707_" class="st0" cx="76.9" cy="65.3" r="0.1"/>
	</g>
	<g id="XMLID_704_">
		<circle id="XMLID_705_" class="st0" cx="68.7" cy="68.4" r="0.2"/>
	</g>
	<g id="XMLID_702_">
		<circle id="XMLID_703_" class="st0" cx="68.7" cy="73" r="0.3"/>
	</g>
	<g id="XMLID_700_">
		<circle id="XMLID_701_" class="st0" cx="68.2" cy="74.3" r="0.1"/>
	</g>
	<g id="XMLID_698_">
		<circle id="XMLID_699_" class="st0" cx="67.3" cy="75.4" r="0.1"/>
	</g>
	<g id="XMLID_696_">
		<circle id="XMLID_697_" class="st0" cx="62" cy="75.2" r="0.3"/>
	</g>
	<g id="XMLID_694_">
		<circle id="XMLID_695_" class="st0" cx="63.2" cy="82.4" r="0.1"/>
	</g>
</g>
</svg>
