<?xml version="1.0" encoding="utf-8"?>
<!-- Generator: Adobe Illustrator 19.0.0, SVG Export Plug-In . SVG Version: 6.00 Build 0)  -->
<svg version="1.1" id="Layer_1" xmlns="http://www.w3.org/2000/svg" xmlns:xlink="http://www.w3.org/1999/xlink" x="0px" y="0px"
	 viewBox="0 0 100 100" style="enable-background:new 0 0 100 100;" xml:space="preserve">
<style type="text/css">
	.st0{fill:#DAA02B;}
	.st1{fill:#FFFFFF;}
</style>
<g id="XMLID_2391_">
	<g id="XMLID_4194_">
		<path id="XMLID_4195_" class="st0" d="M39,39.3c-1.6-1-2.3-1.1-1.9-0.2c-0.4-0.8-0.7-0.2-0.8,1.7c0-1.9-0.2-2.5-0.7-1.7
			c0.5-0.8-0.2-0.7-1.9,0.2c1.6-0.9,2.1-1.5,1.1-1.5c0.9,0,0.5-0.6-1.1-1.5c1.6,1,2.3,1.1,1.9,0.2c0.4,0.8,0.7,0.2,0.8-1.7
			c0,1.9,0.2,2.5,0.7,1.7c-0.5,0.8,0.2,0.7,1.9-0.2c-1.6,0.9-2.1,1.5-1.1,1.5C37,37.8,37.4,38.4,39,39.3z"/>
	</g>
	<g id="XMLID_4192_">
		<path id="XMLID_4193_" class="st0" d="M62.4,48c-1-0.6-1.5-0.7-1.2-0.2c-0.3-0.5-0.5-0.1-0.5,1.1c0-1.2-0.1-1.6-0.5-1.1
			c0.3-0.5-0.1-0.5-1.2,0.1c1-0.6,1.3-0.9,0.7-0.9c0.6,0,0.3-0.4-0.7-1c1,0.6,1.5,0.7,1.2,0.2c0.3,0.5,0.5,0.1,0.5-1.1
			c0,1.2,0.1,1.6,0.5,1.1c-0.3,0.5,0.1,0.5,1.2-0.1c-1,0.6-1.3,0.9-0.7,0.9C61.1,47,61.4,47.4,62.4,48z"/>
	</g>
	<g id="XMLID_4190_">
		<path id="XMLID_4191_" class="st0" d="M69.9,25.7c-1-0.6-1.5-0.7-1.2-0.2c-0.3-0.5-0.5-0.1-0.5,1.1c0-1.2-0.1-1.6-0.5-1.1
			c0.3-0.5-0.1-0.5-1.2,0.1c1-0.6,1.3-0.9,0.7-0.9c0.6,0,0.3-0.4-0.7-1c1,0.6,1.5,0.7,1.2,0.2c0.3,0.5,0.5,0.1,0.5-1.1
			c0,1.2,0.1,1.6,0.5,1.1c-0.3,0.5,0.1,0.5,1.2-0.1c-1,0.6-1.3,0.9-0.7,0.9C68.6,24.7,68.8,25.1,69.9,25.7z"/>
	</g>
	<g id="XMLID_4134_">
		<g id="XMLID_4188_">
			<path id="XMLID_4189_" class="st0" d="M55.8,22.5c-0.2,0.3-0.4,0.6-0.6,0.9c-0.2,0.2-0.4,0.4-0.7,0.6c-0.3,0.2-0.6,0.4-0.9,0.6
				c-0.4,0.2-0.9,0.3-1.4,0.4C52,25,51.7,25,51.4,25c-0.3,0-0.7,0-1-0.1h0c-0.3-0.1-0.6-0.2-0.9-0.3c-0.3-0.1-0.7-0.3-1-0.5
				c-0.4-0.3-0.7-0.6-1-1v0c-0.4-0.5-0.7-1-0.8-1.5c-0.1-0.3-0.2-0.6-0.2-0.9v0c0-0.2,0-0.4,0-0.7c0-0.1,0-0.3,0-0.4
				c0-0.5,0.1-0.9,0.3-1.4c0.2-0.6,0.5-1.1,0.9-1.5c0.2-0.2,0.4-0.4,0.7-0.6c0.3-0.2,0.6-0.4,0.9-0.6c0.4-0.2,0.9-0.3,1.4-0.4h0
				c0.2,0,0.4,0,0.6-0.1c0,0,0,0,0,0c-0.3,0.1-0.6,0.3-0.8,0.5c-0.2,0.2-0.4,0.4-0.6,0.6c-0.3,0.4-0.6,0.8-0.8,1.3
				c-0.1,0.4-0.2,0.8-0.3,1.2c0,0.1,0,0.2,0,0.4c0,0.2,0,0.4,0,0.6v0c0,0.3,0.1,0.5,0.2,0.8c0.2,0.5,0.4,1,0.7,1.4v0
				c0.3,0.3,0.6,0.6,0.9,0.8c0.3,0.2,0.5,0.3,0.8,0.5c0.2,0.1,0.5,0.2,0.8,0.2h0c0.3,0.1,0.6,0.1,0.9,0.1c0.2,0,0.4,0,0.7,0
				c0.4-0.1,0.8-0.2,1.2-0.4C55.3,22.9,55.5,22.7,55.8,22.5C55.8,22.5,55.8,22.5,55.8,22.5z"/>
		</g>
		<g id="XMLID_4184_">
			<path id="XMLID_4185_" class="st0" d="M53.1,23.4c-0.3,0-0.6,0-0.9-0.1c-0.3-0.1-0.5-0.1-0.8-0.2c-0.3-0.1-0.6-0.3-0.8-0.5
				c-0.3-0.2-0.7-0.5-0.9-0.9l0,0c-0.3-0.4-0.6-0.9-0.7-1.4c-0.1-0.3-0.1-0.5-0.2-0.8c0-0.2,0-0.4,0-0.6c0-0.1,0-0.3,0-0.4
				c0-0.4,0.1-0.8,0.3-1.2c0.2-0.5,0.5-0.9,0.8-1.3c0.2-0.2,0.4-0.4,0.6-0.6c0.3-0.2,0.5-0.4,0.8-0.5l0,0c0.4,0,0.8,0,1.2,0.1
				c0.3,0.1,0.6,0.2,0.9,0.3c0.3,0.1,0.7,0.3,1,0.5c0.4,0.3,0.7,0.6,1,1l0,0c0.4,0.5,0.7,1,0.8,1.5c0.1,0.3,0.2,0.6,0.2,0.9
				c0,0.2,0,0.4,0,0.7c0,0.1,0,0.3,0,0.4c0,0.5-0.1,0.9-0.3,1.4c-0.1,0.2-0.2,0.4-0.3,0.6l0,0c0,0,0,0,0,0c-0.3,0.2-0.5,0.4-0.8,0.5
				c-0.4,0.2-0.8,0.3-1.2,0.4C53.6,23.4,53.3,23.4,53.1,23.4z M49.7,21.8c0.3,0.3,0.6,0.6,0.9,0.8c0.3,0.2,0.5,0.3,0.8,0.5
				c0.3,0.1,0.5,0.2,0.8,0.2c0.5,0.1,1,0.1,1.5,0c0.4-0.1,0.8-0.2,1.2-0.4c0.3-0.1,0.6-0.3,0.8-0.5c0.1-0.2,0.2-0.4,0.3-0.6
				c0.2-0.4,0.3-0.9,0.3-1.4c0-0.1,0-0.3,0-0.4c0-0.2,0-0.4,0-0.7c0-0.3-0.1-0.6-0.2-0.9c-0.2-0.6-0.5-1.1-0.8-1.5l0,0
				c-0.3-0.4-0.6-0.7-1-1c-0.3-0.2-0.6-0.4-0.9-0.5c-0.3-0.1-0.6-0.2-0.9-0.3c-0.4-0.1-0.8-0.1-1.2-0.1l0,0
				c-0.3,0.1-0.6,0.3-0.8,0.5c-0.2,0.2-0.4,0.3-0.6,0.6c-0.3,0.4-0.6,0.8-0.8,1.3c-0.1,0.4-0.2,0.8-0.3,1.2c0,0.1,0,0.2,0,0.4
				c0,0.2,0,0.4,0,0.6c0,0.3,0.1,0.5,0.2,0.8C49.2,20.9,49.4,21.3,49.7,21.8L49.7,21.8z"/>
		</g>
		<g id="XMLID_4135_">
			<g id="XMLID_4180_">
				<path id="XMLID_4181_" class="st0" d="M52.7,15.3l-0.3-0.1c-0.6-0.1-1.2-0.1-1.7,0l0,0h0l0,0c-0.6-0.6-2.6-2.6-1.8-5.4
					c0.3-1,0.8-1.7,1.4-2.5c0.9-1.1,1.9-2.4,2.4-5.2l0.2,0c-0.1,0.8,0.2,1.3,0.5,2c0.4,0.8,0.9,1.6,0.9,2.9c0,1.1-0.6,2.1-1.2,3.2
					c-0.9,1.7-1.8,3.2-0.6,4.8L52.7,15.3z M51.4,15c0.3,0,0.5,0,0.8,0.1c-1.1-1.6-0.2-3.2,0.7-4.8c0.6-1,1.1-2.1,1.1-3.1
					c0-1.3-0.4-2.1-0.8-2.8c-0.2-0.4-0.4-0.8-0.5-1.3c-0.6,2.2-1.5,3.3-2.3,4.4c-0.6,0.8-1.1,1.4-1.4,2.4c-0.7,2.6,1.1,4.6,1.7,5.2
					C51,15,51.2,15,51.4,15z"/>
			</g>
			<g id="XMLID_4176_">
				<path id="XMLID_4177_" class="st0" d="M48.4,16.2L48.4,16.2c-0.8-0.2-2-0.8-2.4-2.2c-0.2-0.6-0.1-1.1,0-1.7
					c0.1-0.8,0.2-1.8-0.3-3.4L46,8.8c0.2,0.4,0.5,0.6,0.9,0.9c0.4,0.3,0.9,0.6,1.3,1.3c0.3,0.6,0.3,1.3,0.4,2c0,1,0,2,0.8,2.5
					l0.2,0.1l-0.2,0.1C49.1,15.8,48.8,16,48.4,16.2L48.4,16.2z M46.2,9.5c0.3,1.2,0.2,2.1,0.1,2.8c-0.1,0.6-0.1,1.1,0,1.6
					c0.3,1.3,1.4,1.8,2.1,2.1c0.2-0.2,0.5-0.3,0.7-0.5C48.4,15,48.4,14,48.3,13c0-0.7,0-1.4-0.3-1.9c-0.4-0.6-0.8-0.9-1.3-1.2
					C46.5,9.8,46.4,9.6,46.2,9.5z"/>
			</g>
			<g id="XMLID_4172_">
				<path id="XMLID_4173_" class="st0" d="M44.8,18.7c-1.1,0-2.5-0.3-3.6-1.5c-0.7-0.7-1.1-1.6-1.4-2.4c-0.5-1.3-1.2-2.9-3.3-4.7
					l0.1-0.2c0.6,0.5,1.3,0.5,2,0.5c0.9,0,1.8,0.1,3,0.7c0.9,0.5,1.6,1.6,2.2,2.6c1,1.6,1.9,3.1,3.8,2.9l0.3,0l-0.2,0.2
					c-0.4,0.4-0.7,0.9-0.9,1.5l0,0l-0.1,0C46.5,18.5,45.7,18.7,44.8,18.7z M37.3,10.5c1.6,1.6,2.2,2.9,2.7,4.1
					c0.4,0.9,0.7,1.7,1.4,2.4c1.9,2,4.5,1.4,5.3,1.1c0.2-0.5,0.4-0.9,0.7-1.3c-1.9,0.1-2.9-1.5-3.8-3c-0.6-1-1.2-2-2.1-2.5
					c-1.1-0.6-2-0.7-2.9-0.7C38.2,10.6,37.8,10.6,37.3,10.5z"/>
			</g>
			<g id="XMLID_4168_">
				<path id="XMLID_4169_" class="st0" d="M44.3,21.8c-0.3,0-0.5,0-0.8-0.1c-0.6-0.2-1-0.5-1.5-0.8c-0.7-0.5-1.4-1.1-3.1-1.4l0-0.2
					c0.4,0.1,0.8-0.1,1.2-0.3c0.5-0.2,1-0.5,1.8-0.5c0.6,0,1.3,0.4,1.9,0.7c0.9,0.5,1.7,1,2.5,0.5l0.2-0.1l0,0.2c0,0.1,0,0.3,0,0.4
					c0,0.2,0,0.4,0,0.6l0,0v0l0,0C46.2,21.2,45.4,21.8,44.3,21.8z M39.7,19.3c1.2,0.3,1.9,0.9,2.5,1.3c0.5,0.3,0.8,0.7,1.4,0.8
					c1.3,0.4,2.3-0.3,2.8-0.8c0-0.2,0-0.4,0-0.6c0-0.1,0-0.2,0-0.2c-0.9,0.4-1.7-0.1-2.6-0.6c-0.6-0.3-1.2-0.7-1.8-0.7
					c-0.7,0-1.2,0.3-1.7,0.5C40.1,19.1,39.9,19.2,39.7,19.3z"/>
			</g>
			<g id="XMLID_4164_">
				<path id="XMLID_4165_" class="st0" d="M35.4,28l-0.1-0.2c0.7-0.3,1.1-0.8,1.5-1.5c0.5-0.7,1-1.6,2.1-2.2
					c0.9-0.5,2.2-0.6,3.4-0.6c1.9,0,3.7-0.1,4.4-1.9l0.1-0.3l0.1,0.3c0.2,0.5,0.5,1.1,0.8,1.5l0,0l0,0.1c-0.2,0.8-1,3.6-3.8,4.3
					c-1,0.3-1.9,0.1-2.8,0C39.6,27.3,38,27.1,35.4,28z M46.7,21.9c-0.8,1.7-2.7,1.7-4.5,1.8c-1.2,0-2.4,0.1-3.2,0.6
					c-1.1,0.6-1.6,1.4-2,2.1c-0.3,0.4-0.5,0.8-0.8,1.1c2.2-0.6,3.6-0.4,4.9-0.2c1,0.1,1.8,0.2,2.7,0c2.7-0.7,3.4-3.2,3.6-4.1
					C47.1,22.8,46.9,22.4,46.7,21.9z"/>
			</g>
			<g id="XMLID_4160_">
				<path id="XMLID_4161_" class="st0" d="M44.6,30.5l-0.2-0.1c0.3-0.3,0.3-0.7,0.3-1.2c0-0.5,0-1.1,0.4-1.8c0.3-0.6,1-0.9,1.6-1.3
					c0.9-0.5,1.7-1,1.7-2l0-0.2l0.2,0.1c0.3,0.2,0.6,0.4,0.9,0.5l0.1,0l0,0.1c0.2,0.7,0.3,2.1-0.8,3.1l0,0c-0.4,0.4-0.9,0.6-1.5,0.9
					C46.6,28.9,45.7,29.3,44.6,30.5z M48.7,24.3c-0.1,0.9-1,1.4-1.8,1.9c-0.6,0.4-1.2,0.7-1.5,1.2C45,28.1,45,28.7,45,29.2
					c0,0.2,0,0.5-0.1,0.7c0.9-0.9,1.7-1.2,2.4-1.5c0.5-0.2,1-0.4,1.4-0.8c1-0.9,0.9-2.2,0.7-2.8C49.2,24.6,48.9,24.5,48.7,24.3z"/>
			</g>
			<g id="XMLID_4156_">
				<path id="XMLID_4157_" class="st0" d="M50.3,37.9l-0.2,0c0.1-0.8-0.2-1.3-0.5-2c-0.4-0.8-0.9-1.6-0.9-2.9c0-1.1,0.6-2.1,1.2-3.2
					c0.9-1.7,1.8-3.2,0.6-4.8l-0.2-0.2l0.3,0.1c0.6,0.1,1.1,0.1,1.7,0l0.1,0l0,0c0.6,0.6,2.6,2.6,1.8,5.4v0c-0.3,1-0.8,1.7-1.4,2.5
					C51.8,33.9,50.8,35.2,50.3,37.9z M50.7,25.1c1.1,1.6,0.2,3.2-0.7,4.8c-0.6,1-1.1,2.1-1.1,3.1c0,1.3,0.4,2.1,0.8,2.8
					c0.2,0.4,0.4,0.8,0.5,1.3c0.6-2.2,1.5-3.3,2.3-4.4c0.6-0.8,1.1-1.4,1.4-2.4v0c0.7-2.6-1.1-4.6-1.7-5.2
					C51.7,25.1,51.2,25.1,50.7,25.1z"/>
			</g>
			<g id="XMLID_4152_">
				<path id="XMLID_4153_" class="st0" d="M56.9,31.2c-0.2-0.4-0.5-0.6-0.9-0.9c-0.4-0.3-0.9-0.6-1.3-1.3c-0.3-0.6-0.3-1.3-0.4-2
					c0-1,0-2-0.8-2.5l-0.2-0.1l0.2-0.1c0.3-0.1,0.6-0.3,0.9-0.6l0,0l0.1,0c0.7,0.2,1.9,0.8,2.3,2.2c0.2,0.6,0.1,1.1,0,1.7
					c-0.1,0.8-0.2,1.8,0.3,3.4L56.9,31.2z M53.8,24.6c0.7,0.6,0.8,1.6,0.8,2.5c0,0.7,0,1.4,0.3,1.9c0.4,0.6,0.8,0.9,1.3,1.2
					c0.2,0.1,0.4,0.2,0.5,0.4c-0.3-1.2-0.2-2.1-0.1-2.8c0.1-0.6,0.1-1.1,0-1.6c-0.3-1.3-1.4-1.8-2.1-2.1
					C54.3,24.3,54,24.4,53.8,24.6z"/>
			</g>
			<g id="XMLID_4148_">
				<path id="XMLID_4149_" class="st0" d="M66.2,30.2c-0.6-0.5-1.3-0.5-2-0.5c-0.9,0-1.8-0.1-3-0.7c-0.9-0.5-1.6-1.6-2.2-2.6
					c-1-1.6-1.9-3.2-3.8-2.9l-0.3,0l0.2-0.2c0.4-0.4,0.7-0.9,0.9-1.5l0,0l0.1,0c0.8-0.3,3.6-0.9,5.6,1.2c0.7,0.7,1.1,1.6,1.4,2.4
					c0.5,1.3,1.2,2.9,3.3,4.7L66.2,30.2z M55.6,23.2c1.7,0,2.7,1.5,3.6,3c0.6,1,1.2,2,2.1,2.5c1.1,0.6,2,0.7,2.9,0.7
					c0.5,0,0.9,0,1.4,0.2c-1.6-1.6-2.2-2.9-2.7-4.1c-0.4-0.9-0.7-1.7-1.4-2.4c-1.9-2-4.5-1.4-5.3-1.1c-0.2,0.5-0.4,0.9-0.7,1.3
					C55.5,23.2,55.6,23.2,55.6,23.2z"/>
			</g>
			<g id="XMLID_4144_">
				<path id="XMLID_4145_" class="st0" d="M60.9,21.8c-0.6,0-1.3-0.4-1.9-0.7c-0.9-0.5-1.7-1-2.5-0.5l-0.2,0.1l0-0.2
					c0-0.1,0-0.3,0-0.4c0-0.2,0-0.4,0-0.6l0,0v0l0,0c0.5-0.5,1.6-1.3,3.1-0.9c0.6,0.2,1,0.5,1.5,0.8c0.7,0.5,1.4,1.1,3.1,1.4l0,0.2
					c-0.4-0.1-0.8,0.1-1.2,0.3C62.2,21.5,61.7,21.8,60.9,21.8z M57.2,20.2c0.7,0,1.3,0.4,1.9,0.7c0.6,0.3,1.2,0.7,1.8,0.7
					c0.7,0,1.2-0.3,1.7-0.5c0.2-0.1,0.4-0.2,0.6-0.3c-1.2-0.3-1.9-0.9-2.5-1.3c-0.5-0.3-0.8-0.7-1.4-0.8C58,18.3,57,19,56.5,19.4
					c0,0.2,0,0.4,0,0.6c0,0.1,0,0.2,0,0.2C56.7,20.2,57,20.2,57.2,20.2z"/>
			</g>
			<g id="XMLID_4140_">
				<path id="XMLID_4141_" class="st0" d="M56.2,18.8l-0.1-0.3c-0.2-0.5-0.5-1.1-0.8-1.5l0,0l0-0.1c0.2-0.8,1-3.6,3.8-4.3
					c1-0.3,1.9-0.1,2.8,0c1.4,0.2,3.1,0.4,5.7-0.5l0.1,0.2c-0.7,0.3-1.1,0.8-1.5,1.5c-0.5,0.7-1,1.6-2.1,2.2
					c-0.9,0.5-2.2,0.6-3.4,0.6c-1.9,0-3.7,0.1-4.4,1.9L56.2,18.8z M55.4,16.9c0.3,0.4,0.6,0.8,0.7,1.3c0.8-1.7,2.7-1.7,4.5-1.8
					c1.2,0,2.4-0.1,3.2-0.6c1.1-0.6,1.6-1.4,2-2.1c0.3-0.4,0.5-0.8,0.8-1.1c-2.2,0.6-3.6,0.4-4.9,0.2c-1-0.1-1.8-0.2-2.7,0
					C56.4,13.5,55.6,16.1,55.4,16.9z"/>
			</g>
			<g id="XMLID_4136_">
				<path id="XMLID_4137_" class="st0" d="M54.4,16.2L54.2,16c-0.3-0.2-0.6-0.4-0.9-0.5l-0.1,0l0-0.1c-0.2-0.7-0.3-2.1,0.8-3.1
					c0.4-0.4,0.9-0.6,1.5-0.9c0.8-0.3,1.7-0.7,2.8-1.9l0.2,0.1c-0.3,0.3-0.3,0.7-0.3,1.2c0,0.5,0,1.1-0.4,1.8
					c-0.3,0.6-1,0.9-1.6,1.3c-0.9,0.5-1.7,1-1.7,2L54.4,16.2z M53.4,15.4c0.3,0.1,0.5,0.2,0.8,0.4c0.1-0.9,1-1.4,1.8-1.9
					c0.6-0.4,1.2-0.7,1.5-1.2c0.4-0.6,0.4-1.2,0.4-1.7c0-0.2,0-0.5,0.1-0.7c-0.9,0.9-1.7,1.2-2.4,1.5c-0.5,0.2-1,0.4-1.4,0.8
					C53.2,13.5,53.3,14.7,53.4,15.4z"/>
			</g>
		</g>
	</g>
</g>
<g id="XMLID_4088_">
	<g id="XMLID_4131_">
		<g id="XMLID_4132_">
			<path id="XMLID_4133_" class="st1" d="M38,84.1c-0.5,0-1,0-1.4-0.2c-0.1,0-0.3-0.1-0.4-0.1l0.1-0.2c0.1,0,0.3,0.1,0.4,0.1
				c1.7,0.4,3.4-0.1,5-0.5c0.7-0.2,1.3-0.3,1.9-0.4c1.6-0.2,2.1,0.1,3.1,0.7c0.2,0.1,0.3,0.2,0.5,0.3L47,84.1
				c-0.2-0.1-0.3-0.2-0.5-0.3c-1-0.6-1.4-0.9-2.9-0.7c-0.5,0.1-1.2,0.2-1.9,0.4C40.5,83.8,39.3,84.1,38,84.1z"/>
		</g>
	</g>
	<g id="XMLID_4128_">
		<g id="XMLID_4129_">
			<path id="XMLID_4130_" class="st1" d="M35.2,81.3l-0.1-0.1c0.1-0.3,0.3-0.5,0.5-0.7l0.1,0.1C35.5,80.8,35.3,81,35.2,81.3z"/>
		</g>
	</g>
	<g id="XMLID_4125_">
		<g id="XMLID_4126_">
			<path id="XMLID_4127_" class="st1" d="M36.8,83.4c0,0-0.3,0.2-0.6,0.3c-0.2,0-0.4,0-0.6,0c-0.7-0.2-1.1-0.9-1-1.6
				c0.1-0.4,0.3-0.7,0.5-0.8c0.2-0.1,0.5-0.2,0.8-0.2C35.9,81,35.8,82.4,36.8,83.4z"/>
		</g>
	</g>
	<g id="XMLID_4117_">
		<g id="XMLID_4118_">
			<g id="XMLID_4119_">
				<g id="XMLID_4120_">
					<path id="XMLID_4121_" class="st1" d="M45.7,90c-0.9,0-2.5-1-4.3-2c-1.3-0.7-2.4-1.4-3.2-1.7c-1.5-0.5-2.3-1.4-3.1-2.3
						c-0.2-0.3-0.4-0.5-0.7-0.7c-0.5-0.5-1.7-1.3-2.7-1.9c-1.1-0.7-1.8-1.2-2-1.4c-0.3-0.5-0.2-0.8-0.1-1c0.3-0.4,0.9-0.4,1.5-0.3
						c0.1,0,0.1,0,0.2,0c1.3,0.3,3.4,1.2,4.4,1.9c0,0,0,0,0.1,0c0.4-0.2,1-0.5,1.8-0.8c0.8-0.3,1.6-0.5,2.4-0.6
						c1.7-0.3,2.3-0.4,3.2-0.8l0,0h0c0.1,0,0.3-0.1,0.6-0.3c1.3-0.7,4.3-2.2,8.1-2.2c3,0,5,0.6,8.5,1.5c1.1,0.3,2.4,0.7,3.9,1.1
						l0.1,0l2.7,7.5l-0.3-0.1c-3.1-1.3-5.3-1.9-6.5-1.9c-2.3,0-5.6,1.9-8.5,3.5C49.2,88.7,47.1,89.9,45.7,90
						C45.8,90,45.8,90,45.7,90z M35.2,83.6c0.1,0.1,0.1,0.1,0.2,0.2c0.7,0.9,1.5,1.7,2.9,2.2c0.8,0.3,2,1,3.3,1.7c1.7,1,3.5,2,4.2,2
						c1.3-0.1,3.5-1.3,5.8-2.6c3-1.7,6.3-3.5,8.7-3.5c1.2,0,3.4,0.6,6.4,1.8l-2.5-6.9c-1.5-0.4-2.7-0.7-3.8-1.1
						c-3.5-1-5.4-1.5-8.3-1.5c0,0,0,0-0.1,0c-3.7,0-6.7,1.5-8,2.2c-0.4,0.2-0.6,0.3-0.7,0.3c-1,0.4-1.5,0.5-3.3,0.8
						c-0.8,0.1-1.6,0.3-2.4,0.6c-0.8,0.3-1.4,0.6-1.7,0.8c0,0-0.1,0-0.1,0.1l-0.1,0.1l-0.1-0.1c-0.8-0.6-2.9-1.5-4.4-1.9
						c-0.1,0-0.1,0-0.2,0c-0.6-0.1-1.1,0-1.2,0.2c-0.1,0.2,0,0.5,0.1,0.7c0.2,0.2,1.1,0.8,1.9,1.4c1,0.6,2.1,1.4,2.7,1.9
						c-0.1-0.3-0.2-0.6-0.1-1c0.1-0.4,0.3-0.7,0.6-0.9c0.2-0.1,0.5-0.2,0.8-0.2l0.2,0l0,0.2c0,0,0,1.3,0.9,2.3l0.1,0.1l-0.1,0.1
						c0,0-0.3,0.2-0.7,0.3l0,0c-0.2,0-0.5,0-0.7,0C35.4,83.7,35.3,83.7,35.2,83.6z M35.8,81.2c-0.2,0-0.4,0.1-0.6,0.2
						c-0.3,0.1-0.4,0.4-0.5,0.7c-0.1,0.6,0.3,1.3,0.9,1.5c0.2,0.1,0.4,0.1,0.6,0l0,0c0.2,0,0.4-0.1,0.5-0.2
						C35.9,82.5,35.8,81.6,35.8,81.2z"/>
				</g>
			</g>
		</g>
	</g>
	<g id="XMLID_4114_">
		<g id="XMLID_4115_">
			<path id="XMLID_4116_" class="st1" d="M31.1,78.7L31.1,78.7c-0.9-0.2-1.8,0.1-1.2,1.1c-0.6-0.3-1.1-0.9-0.8-1.2
				C29.4,78.3,30.3,78.4,31.1,78.7z"/>
		</g>
	</g>
	<g id="XMLID_4109_">
		<g id="XMLID_4110_">
			<path id="XMLID_4111_" class="st1" d="M35.6,80.7L35.6,80.7c-0.9-0.6-2.9-1.5-4.4-1.9l0,0c-0.1-0.1-0.2-0.2-0.3-0.3l0,0
				c-0.2-0.3-0.3-0.8,0.1-1.2c0.3-0.2,0.8-0.3,1.5-0.1c0.3,0.1,0.6,0.2,0.8,0.2l0.1,0c0.7,0.3,3.4,1.7,4.1,2.3l0.1,0.1l-0.1,0
				c-0.8,0.3-1.4,0.6-1.7,0.8C35.8,80.6,35.7,80.6,35.6,80.7L35.6,80.7z M31.3,78.7c1.5,0.4,3.5,1.3,4.4,1.9c0,0,0.1,0,0.1-0.1
				c0.3-0.2,0.9-0.5,1.6-0.7c-0.8-0.6-3.3-1.9-4-2.2l-0.1,0c-0.2-0.1-0.5-0.2-0.8-0.2c-0.7-0.1-1.1-0.1-1.4,0.1
				c-0.5,0.4-0.2,0.8-0.1,1l0,0C31.1,78.5,31.2,78.6,31.3,78.7z"/>
		</g>
	</g>
	<g id="XMLID_4106_">
		<g id="XMLID_4107_">
			<path id="XMLID_4108_" class="st1" d="M32.5,77.2c-0.5-0.1-1.1-0.2-1.4,0.1c-0.4,0.3-0.3,0.7-0.1,1.1c-0.5-0.4-0.9-1-0.6-1.4
				C30.7,76.6,31.5,76.9,32.5,77.2z"/>
		</g>
	</g>
	<g id="XMLID_4103_">
		<g id="XMLID_4104_">
			<path id="XMLID_4105_" class="st1" d="M40.3,79.2c-0.5-0.4-1.5-0.8-2.3-1.1c-0.4-0.1-0.7-0.3-0.9-0.4l0.1-0.2
				c0.2,0.1,0.6,0.2,0.9,0.4c0.9,0.3,1.8,0.7,2.3,1.1L40.3,79.2z"/>
		</g>
	</g>
	<g id="XMLID_4100_">
		<g id="XMLID_4101_">
			<path id="XMLID_4102_" class="st1" d="M37.1,77.7C37.1,77.7,37,77.7,37.1,77.7l0-0.1c0,0,0,0,0,0L37.1,77.7z"/>
		</g>
	</g>
	<g id="XMLID_4097_">
		<g id="XMLID_4098_">
			<path id="XMLID_4099_" class="st1" d="M37.7,76.8c-0.1,0-0.3,0-0.4,0c-0.5,0.2-0.5,0.5-0.4,0.6c-0.1,0-0.5-0.2-0.5-0.4
				C36.4,76.8,36.8,76.7,37.7,76.8z"/>
		</g>
	</g>
	<g id="XMLID_4092_">
		<g id="XMLID_4093_">
			<path id="XMLID_4094_" class="st1" d="M37.5,79.9L37.5,79.9c-0.8-0.6-3.4-2-4.1-2.3l-0.1,0l0-0.1c0,0,0,0,0,0l0,0
				c0-0.2,0-0.4,0.2-0.6c0.1-0.1,0.4-0.4,1-0.3c0.1,0,0.2,0,0.3,0l0,0c0.7,0.1,1.4,0.4,2,0.7c0-0.1,0-0.1,0-0.2
				c0-0.1,0.2-0.3,0.5-0.4c0.1,0,0.2,0,0.4,0c1.1,0,3.5,0.9,4.8,1.3c0.3,0.1,0.6,0.2,0.7,0.2l0.3,0.1l-0.3,0.1
				c-1,0.4-1.5,0.6-3.3,0.8C39.1,79.4,38.3,79.6,37.5,79.9L37.5,79.9z M33.5,77.4c0.8,0.3,3.3,1.6,4,2.2c0.8-0.3,1.6-0.5,2.3-0.6
				c1.5-0.2,2.1-0.4,2.9-0.7c-0.1,0-0.2-0.1-0.4-0.1c-1.2-0.4-3.6-1.3-4.7-1.3c-0.1,0-0.2,0-0.3,0C37.2,77,37,77.1,37,77.2
				c0,0.1,0,0.2,0,0.2l0,0c0,0,0.1,0.1,0.1,0.1h0l0,0l0,0l0,0.1l0,0.1l0,0l-0.2-0.1c-0.6-0.3-1.4-0.7-2.1-0.8l0,0
				c-0.1,0-0.2,0-0.3,0c-0.4,0-0.7,0.1-0.9,0.3C33.5,77.2,33.5,77.3,33.5,77.4z"/>
		</g>
	</g>
	<g id="XMLID_4089_">
		<g id="XMLID_4090_">
			<path id="XMLID_4091_" class="st1" d="M34.7,76.7c-0.1,0-0.2,0-0.3,0c-0.9-0.1-1.2,0.5-1.1,0.8v0l0,0c-0.2-0.1-0.7-0.5-0.4-0.8
				C33.2,76.4,33.9,76.4,34.7,76.7z"/>
		</g>
	</g>
</g>
<g id="XMLID_4035_">
	<g id="XMLID_4084_">
		<path id="XMLID_4085_" class="st1" d="M50.1,73.4c-4.8,0-9.1-1.7-11.8-3.1c-3-1.5-4.9-3.1-4.9-3.1L33.3,67l0.1-0.1
			c0,0,1.9-1.6,4.9-3.1c2.8-1.4,7.1-3.1,11.8-3.1s9.1,1.7,11.8,3.1c3,1.5,4.9,3.1,4.9,3.1L67,67l-0.1,0.1c0,0-1.9,1.6-4.9,3.1
			C59.2,71.7,54.9,73.4,50.1,73.4z M33.6,67c0.4,0.3,2.2,1.7,4.8,3c2.7,1.4,7,3.1,11.8,3.1c4.7,0,9-1.7,11.8-3.1
			c2.6-1.3,4.4-2.7,4.8-3c-0.4-0.3-2.2-1.7-4.8-3c-2.7-1.4-7-3.1-11.8-3.1c-4.7,0-9,1.7-11.8,3.1C35.8,65.3,34,66.7,33.6,67z"/>
	</g>
	<g id="XMLID_4082_">
		<path id="XMLID_4083_" class="st1" d="M67.4,66.5c-2-1.5-9-6.5-17.3-6.5c-8,0-14.7,4.5-17.3,6.5l-0.1-0.2c1.1-0.9,3.4-2.5,6.5-3.9
			c3.7-1.7,7.4-2.6,10.9-2.6c3.5,0,7.2,0.9,11,2.6c3,1.4,5.3,3.1,6.4,3.9L67.4,66.5z"/>
	</g>
	<g id="XMLID_4080_">
		<path id="XMLID_4081_" class="st1" d="M31.9,66l-0.1-0.2c2.7-2.2,10-7.3,18.4-7.3c3.6,0,7.3,0.9,11,2.7c3.1,1.5,5.6,3.2,7.1,4.4
			l-0.1,0.2c-2.7-2.1-9.8-7.1-18-7.1C41.8,58.7,34.6,63.8,31.9,66z"/>
	</g>
	<g id="XMLID_4076_">
		<path id="XMLID_4077_" class="st1" d="M50.1,73.3c-3.4,0-6.2-2.8-6.2-6.2c0-3.4,2.8-6.2,6.2-6.2c3.4,0,6.2,2.8,6.2,6.2
			C56.4,70.5,53.6,73.3,50.1,73.3z M50.1,61c-3.3,0-6,2.7-6,6c0,3.3,2.7,6,6,6c3.3,0,6-2.7,6-6C56.2,63.7,53.5,61,50.1,61z"/>
	</g>
	<g id="XMLID_4074_">
		<circle id="XMLID_4075_" class="st1" cx="50.1" cy="67" r="1.7"/>
	</g>
	<g id="XMLID_4072_">
		
			<rect id="XMLID_4073_" x="26.4" y="63.5" transform="matrix(0.7001 0.714 -0.714 0.7001 54.2965 -1.9983)" class="st1" width="6.3" height="0.2"/>
	</g>
	<g id="XMLID_4070_">
		<rect id="XMLID_4071_" x="49.9" y="41" class="st1" width="0.2" height="17.7"/>
	</g>
	<g id="XMLID_4068_">
		
			<rect id="XMLID_4069_" x="39.6" y="56.3" transform="matrix(0.2733 0.9619 -0.9619 0.2733 85.4172 -0.2744)" class="st1" width="6.5" height="0.2"/>
	</g>
	<g id="XMLID_4066_">
		
			<rect id="XMLID_4067_" x="32.2" y="59.4" transform="matrix(0.607 0.7947 -0.7947 0.607 61.2173 -4.7779)" class="st1" width="6.6" height="0.2"/>
	</g>
	<g id="XMLID_4064_">
		
			<rect id="XMLID_4065_" x="70.4" y="60.3" transform="matrix(0.7143 0.6999 -0.6999 0.7143 64.532 -31.1845)" class="st1" width="0.2" height="6.3"/>
	</g>
	<g id="XMLID_4062_">
		
			<rect id="XMLID_4063_" x="57.1" y="53.8" transform="matrix(0.951 0.3091 -0.3091 0.951 20.3379 -14.8908)" class="st1" width="0.2" height="5.9"/>
	</g>
	<g id="XMLID_4060_">
		
			<rect id="XMLID_4061_" x="64.7" y="56.1" transform="matrix(0.7991 0.6012 -0.6012 0.7991 48.7769 -26.9883)" class="st1" width="0.2" height="6.7"/>
	</g>
	<g id="XMLID_4058_">
		<circle id="XMLID_4059_" class="st1" cx="27.1" cy="61" r="0.4"/>
	</g>
	<g id="XMLID_4056_">
		<circle id="XMLID_4057_" class="st1" cx="33.2" cy="56.6" r="0.4"/>
	</g>
	<g id="XMLID_4054_">
		<circle id="XMLID_4055_" class="st1" cx="66.8" cy="56.6" r="0.4"/>
	</g>
	<g id="XMLID_4052_">
		<circle id="XMLID_4053_" class="st1" cx="58.2" cy="53.6" r="0.4"/>
	</g>
	<g id="XMLID_4050_">
		<circle id="XMLID_4051_" class="st1" cx="41.9" cy="53.1" r="0.4"/>
	</g>
	<g id="XMLID_4048_">
		<circle id="XMLID_4049_" class="st1" cx="50" cy="40.6" r="0.4"/>
	</g>
	<g id="XMLID_4046_">
		<polygon id="XMLID_4047_" class="st1" points="46.1,54.4 46.6,55.4 47.1,56.4 46.5,56.5 45.9,56.6 46,55.5 		"/>
	</g>
	<g id="XMLID_4044_">
		<polygon id="XMLID_4045_" class="st1" points="38.5,56.4 39.2,57.3 39.9,58.1 39.4,58.4 38.8,58.7 38.6,57.6 		"/>
	</g>
	<g id="XMLID_4042_">
		<polygon id="XMLID_4043_" class="st1" points="31.7,60.5 32.5,61.2 33.4,61.9 32.9,62.3 32.4,62.6 32,61.5 		"/>
	</g>
	<g id="XMLID_4040_">
		<polygon id="XMLID_4041_" class="st1" points="53.9,54.4 53.4,55.4 52.9,56.4 53.6,56.5 54.2,56.6 54,55.5 		"/>
	</g>
	<g id="XMLID_4038_">
		<polygon id="XMLID_4039_" class="st1" points="61.6,56.4 60.8,57.3 60.1,58.1 60.7,58.4 61.2,58.7 61.4,57.6 		"/>
	</g>
	<g id="XMLID_4036_">
		<polygon id="XMLID_4037_" class="st1" points="68.4,60.5 67.5,61.2 66.6,61.9 67.1,62.3 67.7,62.6 68,61.5 		"/>
	</g>
</g>
<g id="XMLID_3938_">
	<g id="XMLID_4032_">
		<g id="XMLID_4033_">
			<circle id="XMLID_4034_" class="st1" cx="36.2" cy="80.4" r="0.4"/>
		</g>
	</g>
	<g id="XMLID_4029_">
		<g id="XMLID_4030_">
			<circle id="XMLID_4031_" class="st1" cx="28.4" cy="80.5" r="0.1"/>
		</g>
	</g>
	<g id="XMLID_4026_">
		<g id="XMLID_4027_">
			<circle id="XMLID_4028_" class="st1" cx="24.5" cy="74.7" r="0.2"/>
		</g>
	</g>
	<g id="XMLID_4023_">
		<g id="XMLID_4024_">
			<circle id="XMLID_4025_" class="st1" cx="30.4" cy="64.5" r="0.1"/>
		</g>
	</g>
	<g id="XMLID_4020_">
		<g id="XMLID_4021_">
			<circle id="XMLID_4022_" class="st1" cx="18.8" cy="66.1" r="0.3"/>
		</g>
	</g>
	<g id="XMLID_4017_">
		<g id="XMLID_4018_">
			<circle id="XMLID_4019_" class="st1" cx="16.3" cy="61.1" r="0.2"/>
		</g>
	</g>
	<g id="XMLID_4014_">
		<g id="XMLID_4015_">
			<circle id="XMLID_4016_" class="st1" cx="17.5" cy="54.2" r="0.1"/>
		</g>
	</g>
	<g id="XMLID_4011_">
		<g id="XMLID_4012_">
			<circle id="XMLID_4013_" class="st1" cx="27.3" cy="57" r="0.4"/>
		</g>
	</g>
	<g id="XMLID_4008_">
		<g id="XMLID_4009_">
			<circle id="XMLID_4010_" class="st1" cx="32.8" cy="55.6" r="0.1"/>
		</g>
	</g>
	<g id="XMLID_4005_">
		<g id="XMLID_4006_">
			<circle id="XMLID_4007_" class="st1" cx="21" cy="47.3" r="0.1"/>
		</g>
	</g>
	<g id="XMLID_4002_">
		<g id="XMLID_4003_">
			<circle id="XMLID_4004_" class="st1" cx="27.7" cy="50" r="0.2"/>
		</g>
	</g>
	<g id="XMLID_3999_">
		<g id="XMLID_4000_">
			<circle id="XMLID_4001_" class="st1" cx="31" cy="50.9" r="0.2"/>
		</g>
	</g>
	<g id="XMLID_3996_">
		<g id="XMLID_3997_">
			<circle id="XMLID_3998_" class="st1" cx="33.2" cy="55.4" r="0.2"/>
		</g>
	</g>
	<g id="XMLID_3993_">
		<g id="XMLID_3994_">
			<circle id="XMLID_3995_" class="st1" cx="35.1" cy="48.6" r="0.2"/>
		</g>
	</g>
	<g id="XMLID_3990_">
		<g id="XMLID_3991_">
			<circle id="XMLID_3992_" class="st1" cx="37.2" cy="42.7" r="0.3"/>
		</g>
	</g>
	<g id="XMLID_3987_">
		<g id="XMLID_3988_">
			<circle id="XMLID_3989_" class="st1" cx="43.1" cy="40.6" r="0.1"/>
		</g>
	</g>
	<g id="XMLID_3984_">
		<g id="XMLID_3985_">
			<circle id="XMLID_3986_" class="st1" cx="45.3" cy="53.1" r="0.3"/>
		</g>
	</g>
	<g id="XMLID_3981_">
		<g id="XMLID_3982_">
			<circle id="XMLID_3983_" class="st1" cx="52.9" cy="51.8" r="0.2"/>
		</g>
	</g>
	<g id="XMLID_3978_">
		<g id="XMLID_3979_">
			<circle id="XMLID_3980_" class="st1" cx="55.5" cy="43.6" r="0.3"/>
		</g>
	</g>
	<g id="XMLID_3975_">
		<g id="XMLID_3976_">
			<circle id="XMLID_3977_" class="st1" cx="54" cy="43.3" r="0.3"/>
		</g>
	</g>
	<g id="XMLID_3972_">
		<g id="XMLID_3973_">
			<circle id="XMLID_3974_" class="st1" cx="46.6" cy="38.6" r="0.2"/>
		</g>
	</g>
	<g id="XMLID_3969_">
		<g id="XMLID_3970_">
			<circle id="XMLID_3971_" class="st1" cx="44.7" cy="40" r="0.3"/>
		</g>
	</g>
	<g id="XMLID_3966_">
		<g id="XMLID_3967_">
			<circle id="XMLID_3968_" class="st1" cx="43.4" cy="36.5" r="0.4"/>
		</g>
	</g>
	<g id="XMLID_3963_">
		<g id="XMLID_3964_">
			<circle id="XMLID_3965_" class="st1" cx="42.4" cy="32.3" r="0.2"/>
		</g>
	</g>
	<g id="XMLID_3960_">
		<g id="XMLID_3961_">
			<circle id="XMLID_3962_" class="st1" cx="39.7" cy="35.4" r="0.1"/>
		</g>
	</g>
	<g id="XMLID_3957_">
		<g id="XMLID_3958_">
			<circle id="XMLID_3959_" class="st1" cx="34.7" cy="42.1" r="0.3"/>
		</g>
	</g>
	<g id="XMLID_3954_">
		<g id="XMLID_3955_">
			<circle id="XMLID_3956_" class="st1" cx="33.3" cy="35.7" r="0.1"/>
		</g>
	</g>
	<g id="XMLID_3951_">
		<g id="XMLID_3952_">
			<circle id="XMLID_3953_" class="st1" cx="28.8" cy="32.5" r="0.2"/>
		</g>
	</g>
	<g id="XMLID_3948_">
		<g id="XMLID_3949_">
			<circle id="XMLID_3950_" class="st1" cx="30.3" cy="26.9" r="0.4"/>
		</g>
	</g>
	<g id="XMLID_3945_">
		<g id="XMLID_3946_">
			<circle id="XMLID_3947_" class="st1" cx="27.5" cy="22.1" r="0.2"/>
		</g>
	</g>
	<g id="XMLID_3942_">
		<g id="XMLID_3943_">
			<circle id="XMLID_3944_" class="st1" cx="31.6" cy="19.7" r="0.1"/>
		</g>
	</g>
	<g id="XMLID_3939_">
		<g id="XMLID_3940_">
			<circle id="XMLID_3941_" class="st1" cx="37.2" cy="17" r="0.4"/>
		</g>
	</g>
</g>
<g id="XMLID_3877_">
	<g id="XMLID_3935_">
		<g id="XMLID_3936_">
			<circle id="XMLID_3937_" class="st1" cx="71.1" cy="14.4" r="0.2"/>
		</g>
	</g>
	<g id="XMLID_3932_">
		<g id="XMLID_3933_">
			<circle id="XMLID_3934_" class="st1" cx="75.8" cy="20.3" r="0.2"/>
		</g>
	</g>
	<g id="XMLID_3929_">
		<g id="XMLID_3930_">
			<circle id="XMLID_3931_" class="st1" cx="72.6" cy="23.2" r="0.3"/>
		</g>
	</g>
	<g id="XMLID_3926_">
		<g id="XMLID_3927_">
			<circle id="XMLID_3928_" class="st1" cx="72.5" cy="26.1" r="0.3"/>
		</g>
	</g>
	<g id="XMLID_3923_">
		<g id="XMLID_3924_">
			<circle id="XMLID_3925_" class="st1" cx="63.8" cy="29.1" r="0.2"/>
		</g>
	</g>
	<g id="XMLID_3920_">
		<g id="XMLID_3921_">
			<circle id="XMLID_3922_" class="st1" cx="71.1" cy="35.2" r="0.2"/>
		</g>
	</g>
	<g id="XMLID_3917_">
		<g id="XMLID_3918_">
			<circle id="XMLID_3919_" class="st1" cx="62.7" cy="37" r="0.1"/>
		</g>
	</g>
	<g id="XMLID_3914_">
		<g id="XMLID_3915_">
			<circle id="XMLID_3916_" class="st1" cx="61.7" cy="38.8" r="0.2"/>
		</g>
	</g>
	<g id="XMLID_3911_">
		<g id="XMLID_3912_">
			<circle id="XMLID_3913_" class="st1" cx="64.7" cy="44.5" r="0.2"/>
		</g>
	</g>
	<g id="XMLID_3908_">
		<g id="XMLID_3909_">
			<circle id="XMLID_3910_" class="st1" cx="59" cy="49.3" r="0.2"/>
		</g>
	</g>
	<g id="XMLID_3905_">
		<g id="XMLID_3906_">
			<circle id="XMLID_3907_" class="st1" cx="65.5" cy="53.3" r="0.1"/>
		</g>
	</g>
	<g id="XMLID_3902_">
		<g id="XMLID_3903_">
			<circle id="XMLID_3904_" class="st1" cx="66" cy="54.1" r="0.1"/>
		</g>
	</g>
	<g id="XMLID_3899_">
		<g id="XMLID_3900_">
			<circle id="XMLID_3901_" class="st1" cx="68.9" cy="53.7" r="0.2"/>
		</g>
	</g>
	<g id="XMLID_3896_">
		<g id="XMLID_3897_">
			<circle id="XMLID_3898_" class="st1" cx="71" cy="52.6" r="0.1"/>
		</g>
	</g>
	<g id="XMLID_3893_">
		<g id="XMLID_3894_">
			<circle id="XMLID_3895_" class="st1" cx="79.4" cy="55.7" r="0.3"/>
		</g>
	</g>
	<g id="XMLID_3890_">
		<g id="XMLID_3891_">
			<circle id="XMLID_3892_" class="st1" cx="83.4" cy="62.6" r="0.4"/>
		</g>
	</g>
	<g id="XMLID_3887_">
		<g id="XMLID_3888_">
			<circle id="XMLID_3889_" class="st1" cx="77.2" cy="69.5" r="0.3"/>
		</g>
	</g>
	<g id="XMLID_3884_">
		<g id="XMLID_3885_">
			<circle id="XMLID_3886_" class="st1" cx="77.7" cy="72" r="0.2"/>
		</g>
	</g>
	<g id="XMLID_3881_">
		<g id="XMLID_3882_">
			<circle id="XMLID_3883_" class="st1" cx="75.4" cy="74.7" r="0.2"/>
		</g>
	</g>
	<g id="XMLID_3878_">
		<g id="XMLID_3879_">
			<circle id="XMLID_3880_" class="st1" cx="77.1" cy="80" r="0.4"/>
		</g>
	</g>
</g>
<g id="XMLID_3846_">
	<g id="XMLID_3874_">
		<g id="XMLID_3875_">
			<circle id="XMLID_3876_" class="st1" cx="43.9" cy="97.1" r="0.2"/>
		</g>
	</g>
	<g id="XMLID_3871_">
		<g id="XMLID_3872_">
			<circle id="XMLID_3873_" class="st1" cx="41.1" cy="90.5" r="0.1"/>
		</g>
	</g>
	<g id="XMLID_3868_">
		<g id="XMLID_3869_">
			<circle id="XMLID_3870_" class="st1" cx="32.7" cy="91.4" r="0.2"/>
		</g>
	</g>
	<g id="XMLID_3865_">
		<g id="XMLID_3866_">
			<circle id="XMLID_3867_" class="st1" cx="33.6" cy="87" r="0.1"/>
		</g>
	</g>
	<g id="XMLID_3862_">
		<g id="XMLID_3863_">
			<circle id="XMLID_3864_" class="st1" cx="29.1" cy="85.4" r="0.1"/>
		</g>
	</g>
	<g id="XMLID_3859_">
		<g id="XMLID_3860_">
			<circle id="XMLID_3861_" class="st1" cx="25.1" cy="86.7" r="0.3"/>
		</g>
	</g>
	<g id="XMLID_3856_">
		<g id="XMLID_3857_">
			<circle id="XMLID_3858_" class="st1" cx="24.5" cy="82.3" r="0.2"/>
		</g>
	</g>
	<g id="XMLID_3853_">
		<g id="XMLID_3854_">
			<circle id="XMLID_3855_" class="st1" cx="28.1" cy="73.3" r="0.4"/>
		</g>
	</g>
	<g id="XMLID_3850_">
		<g id="XMLID_3851_">
			<circle id="XMLID_3852_" class="st1" cx="24.3" cy="73" r="0.2"/>
		</g>
	</g>
	<g id="XMLID_3847_">
		<g id="XMLID_3848_">
			<circle id="XMLID_3849_" class="st1" cx="27.6" cy="66.8" r="0.3"/>
		</g>
	</g>
</g>
</svg>
