<?xml version="1.0" encoding="utf-8"?>
<!-- Generator: Adobe Illustrator 19.0.0, SVG Export Plug-In . SVG Version: 6.00 Build 0)  -->
<svg version="1.1" id="Layer_1" xmlns="http://www.w3.org/2000/svg" xmlns:xlink="http://www.w3.org/1999/xlink" x="0px" y="0px"
	 viewBox="0 0 100 100" style="enable-background:new 0 0 100 100;" xml:space="preserve">
<style type="text/css">
	.st0{fill:#FFFFFF;}
	.st1{fill:#DAA02B;}
</style>
<g id="XMLID_1955_">
	<g id="XMLID_1998_">
		<path id="XMLID_1999_" class="st0" d="M56.1,6.6l0-0.2c0.1,0,0.3-0.1,0.5-0.1l0,0.2C56.4,6.5,56.2,6.5,56.1,6.6z"/>
	</g>
	<g id="XMLID_1993_">
		<g id="XMLID_1994_">
			<path id="XMLID_1995_" class="st0" d="M17.6,24.1L17.6,24.1c-0.2,0-0.3-0.1-0.4-0.3c-0.3-0.9,0.4-3.6,1-5.7
				c0.7-2.2,1.7-4.8,2.5-5.6c0.2-0.2,0.4-0.3,0.6-0.2c3.3,1.1,10.3,0.4,12.6-0.4l0.1,0c3.8-1.3,4.9-1.7,9.3-5.1
				c3.3-2.6,5.9-2.8,8.2-2.9c0.7-0.1,1.3-0.1,1.9-0.2c0.9-0.1,2.2-0.5,3.6-0.8c0.3-0.1,0.6-0.1,0.9-0.2c1.7-0.4,3.5-0.8,4.8-1l0,0
				l0,0c0,0,0,0,0.1,0.1c0,0,0,0.1,0.1,0.1c0.4,0.1,1.2,0.2,1.7,0.3l0.1,0l0,0.1C65,2.2,65,2.5,64.9,2.8c-0.6,1.2-3.4,2.5-6.8,3.4
				c1.2,0,2.7,0,3.9,0.1c0.9,0,1.7,0.1,2.2,0.1c0.1,0,0.1,0,0.2,0h0l0,0c0.1,0.1,0.2,0.2,0.3,0.3c0.1,0.3,0,0.7-0.3,1.1l0,0
				C64.1,8,64,8.2,63.8,8.3c-1,0.8-3.6,0.9-5.6,1c0.3,0.4,0.4,0.9-0.1,1.7c0,0.1-0.1,0.2-0.2,0.3c-0.5,0.6-1.6,1.4-3.6,2.4
				c-0.7,0.4-1.3,0.7-2,1c-1.1,0.6-2.1,1.1-2.7,1.5c-0.8,0.5-1.5,1.3-2.2,2.2l-0.2,0.3c-0.9,1.1-2,2.3-3.5,3.2
				c-5,3-9.4,1.8-13.4,0.7c-1-0.3-2-0.5-2.9-0.7C21.6,20.9,17.7,24.1,17.6,24.1L17.6,24.1z M21.3,12.4c-0.1,0-0.2,0.1-0.3,0.2
				c-0.7,0.6-1.6,2.8-2.5,5.5c-0.8,2.7-1.2,4.9-1,5.6c0,0.1,0,0.1,0.1,0.1c0.5-0.4,4.4-3.1,9.9-2c0.9,0.2,1.9,0.4,2.9,0.7
				c3.9,1.1,8.3,2.3,13.2-0.7c1.5-0.9,2.5-2.1,3.5-3.2l0.2-0.3c0.7-0.9,1.4-1.7,2.3-2.3c0.6-0.4,1.7-0.9,2.7-1.5
				c0.6-0.3,1.3-0.7,2-1c1.2-0.7,2.9-1.6,3.5-2.4c0.1-0.1,0.1-0.2,0.2-0.2c0.5-0.9,0.3-1.3,0-1.6l-0.2-0.2l0.3,0
				c2-0.1,4.7-0.2,5.7-1C63.8,8,64,7.8,64.1,7.6l0,0c0.2-0.3,0.3-0.7,0.3-0.9c0-0.1-0.1-0.1-0.1-0.1l0,0c0,0-0.1,0-0.1,0
				c-0.5,0-1.3,0-2.2-0.1c-1.8-0.1-4.1-0.2-5.4,0l0-0.2c4.6-0.9,7.6-2.5,8.2-3.6c0.1-0.2,0.1-0.4,0.1-0.5c-0.5,0-1.2-0.1-1.7-0.3
				c-0.1,0-0.2-0.1-0.2-0.2c-1.3,0.1-3,0.5-4.7,1c-0.3,0.1-0.6,0.1-0.9,0.2c-1.4,0.3-2.7,0.7-3.6,0.8c-0.6,0.1-1.3,0.2-2,0.2
				c-2.3,0.2-4.9,0.4-8.1,2.9c-4.3,3.4-5.6,3.8-9.3,5.1L34,12C31.8,12.8,24.6,13.6,21.3,12.4C21.3,12.4,21.3,12.4,21.3,12.4z"/>
		</g>
	</g>
	<g id="XMLID_1988_">
		<g id="XMLID_1989_">
			<path id="XMLID_1990_" class="st0" d="M64.9,2.1L64.9,2.1c-0.6,0-1.4-0.1-1.8-0.3c-0.1,0-0.2-0.1-0.2-0.2c0,0,0,0,0,0l-0.1-0.1
				l0.1-0.1l0,0c0.4,0,0.7-0.1,1,0C64.5,1.5,64.8,1.7,64.9,2.1L64.9,2.1z M63.1,1.7C63.1,1.7,63.1,1.7,63.1,1.7
				c0.4,0.1,1.1,0.2,1.6,0.3c-0.1-0.2-0.4-0.3-0.8-0.3C63.6,1.6,63.4,1.6,63.1,1.7z"/>
		</g>
	</g>
	<g id="XMLID_1985_">
		<g id="XMLID_1986_">
			<path id="XMLID_1987_" class="st0" d="M56.1,6.5l0-0.2c0.1,0,0.3-0.1,0.5-0.1l0,0.2C56.4,6.5,56.2,6.5,56.1,6.5z"/>
		</g>
	</g>
	<g id="XMLID_1980_">
		<g id="XMLID_1981_">
			<path id="XMLID_1982_" class="st0" d="M55.4,20.5c-1.3,0-3.1-0.5-4.9-0.9c-1.2-0.3-2.4-0.6-3.5-0.8l-0.2,0l0.3-0.4
				c0.7-0.9,1.4-1.7,2.3-2.3l0.1,0l0.1,0c0,0,1.4,0.7,3.1,1.2l0.2,0.1c1.5,0.4,3.6,0.9,4.2,1.9c0.1,0.2,0.2,0.5,0.1,0.7l0,0l0,0
				c-0.2,0.2-0.5,0.4-0.8,0.5l0,0l0,0C56.1,20.5,55.8,20.5,55.4,20.5z M47.3,18.6c1,0.2,2.2,0.5,3.3,0.8c2.2,0.6,4.5,1.2,5.7,0.8
				l0,0l0,0c0.3-0.1,0.5-0.2,0.6-0.4c0-0.2,0-0.3-0.1-0.5c-0.5-0.8-2.6-1.4-4-1.8l-0.2-0.1c-1.5-0.4-2.8-1-3.1-1.2
				C48.7,16.9,48.1,17.6,47.3,18.6L47.3,18.6z"/>
		</g>
	</g>
	<g id="XMLID_1975_">
		<g id="XMLID_1976_">
			<path id="XMLID_1977_" class="st0" d="M59.2,14.7c-1.6,0-3.4-0.5-4.8-0.8l-0.5-0.1l0.3-0.1c1.2-0.7,2.9-1.6,3.5-2.4l0.1-0.1
				l0.1,0.1c0.3,0.3,1,0.5,1.6,0.7c1,0.3,2.1,0.7,2.3,1.3c0,0.2,0,0.4-0.2,0.6c-0.2,0.3-0.6,0.5-1,0.7
				C60.2,14.6,59.7,14.7,59.2,14.7z M54.5,13.6c1.8,0.5,4.4,1.1,6,0.6c0.4-0.1,0.7-0.3,0.9-0.6c0.1-0.2,0.2-0.3,0.1-0.4
				c-0.1-0.5-1.2-0.8-2.1-1.1c-0.7-0.2-1.3-0.4-1.6-0.7C57.3,12,56.3,12.7,54.5,13.6z"/>
		</g>
	</g>
	<g id="XMLID_1972_">
		<g id="XMLID_1973_">
			<polygon id="XMLID_1974_" class="st0" points="54.2,13.7 54.2,13.6 54.2,13.6 			"/>
		</g>
	</g>
	<g id="XMLID_1969_">
		<g id="XMLID_1970_">
			<path id="XMLID_1971_" class="st0" d="M41,13.4l-0.1-0.2c1.4-0.4,2.8-0.4,4.1-0.3c0.6,0,1.2,0.1,1.7,0c1.1-0.1,2-0.7,3.1-1.5
				c0.4-0.3,0.8-0.5,1.2-0.8c2-1.3,5.6-2.7,7-1.4l-0.2,0.2c-1.3-1.1-4.7,0.1-6.7,1.4c-0.4,0.3-0.8,0.6-1.2,0.8
				c-1.2,0.9-2.1,1.5-3.3,1.6c-0.5,0-1.1,0-1.7,0C43.7,13,42.3,12.9,41,13.4z"/>
		</g>
	</g>
	<g id="XMLID_1966_">
		<g id="XMLID_1967_">
			<path id="XMLID_1968_" class="st0" d="M48.5,9.9l-0.1-0.2c0.8-0.4,1.7-0.8,2.5-1.2c1.9-1,3.9-1.9,5.1-2.1l0,0.2
				c-1.2,0.2-3.2,1.2-5,2.1C50.2,9.1,49.3,9.6,48.5,9.9z"/>
		</g>
	</g>
	<g id="XMLID_1964_">
		<path id="XMLID_1965_" class="st0" d="M58.9,9.5c-0.5-1.1-2.8-0.6-3.9,0.1c-0.5,0.3,0.5,2.2,1.2,2C56.8,11.4,59.3,10.3,58.9,9.5z"
			/>
	</g>
	<g id="XMLID_1962_">
		<path id="XMLID_1963_" class="st0" d="M62.9,1.6L62.9,1.6C62.9,1.6,62.9,1.6,62.9,1.6C62.9,1.6,62.9,1.6,62.9,1.6c0.1,0,0.5,0,1,0
			c0.8,0,1.8,0,1.6,0.4C65.4,2,65.2,2,64.8,2c-0.5,0-1.3-0.1-1.7-0.3C63,1.7,62.9,1.6,62.9,1.6z"/>
	</g>
	<g id="XMLID_1960_">
		<path id="XMLID_1961_" class="st0" d="M64.4,6.5c0.4,0,0.7,0.1,0.7,0.3c0,0.2-0.4,0.8-0.8,0.9C64.6,7.1,64.7,6.6,64.4,6.5z"/>
	</g>
	<g id="XMLID_1958_">
		<path id="XMLID_1959_" class="st0" d="M60.5,14.4c0.4-0.1,0.7-0.3,1-0.6c0.1-0.2,0.2-0.4,0.2-0.5c0,0,0,0,0,0
			c0.3,0.2,0.4,0.5,0.3,0.8C61.8,14.3,61.1,14.5,60.5,14.4L60.5,14.4z"/>
	</g>
	<g id="XMLID_1956_">
		<path id="XMLID_1957_" class="st0" d="M56.3,20.3c0.3-0.1,0.6-0.2,0.7-0.5c0.1-0.2,0-0.4-0.1-0.6c0,0,0,0,0,0
			c0.5,0.1,0.6,0.6,0.5,0.9C57.4,20.3,56.9,20.4,56.3,20.3z"/>
	</g>
</g>
<g id="XMLID_1910_">
	<g id="XMLID_1953_">
		<path id="XMLID_1954_" class="st0" d="M40.8,94.7l0-0.2c0.2,0,0.3,0,0.5,0l0,0.2C41.2,94.7,41,94.7,40.8,94.7z"/>
	</g>
	<g id="XMLID_1948_">
		<g id="XMLID_1949_">
			<path id="XMLID_1950_" class="st0" d="M34.4,98.5c-0.2,0-0.4,0-0.6,0l-0.1,0v-0.1c0,0,0,0,0,0c0,0,0-0.1-0.1-0.1
				c-0.4-0.2-1.2-0.4-1.6-0.5l-0.1,0v-0.1c-0.1-0.2,0-0.5,0.2-0.7c0.8-1.1,3.7-2,7.2-2.4c-1.2-0.1-2.6-0.4-3.8-0.7
				c-0.9-0.2-1.7-0.3-2.2-0.4c-0.1,0-0.2,0-0.2-0.1l0,0c-0.1-0.1-0.2-0.2-0.2-0.3c0-0.3,0.1-0.7,0.5-1l0,0c0.2-0.2,0.4-0.3,0.6-0.4
				c1.1-0.7,3.7-0.4,5.7-0.2c-0.3-0.5-0.2-0.9,0.3-1.7c0.1-0.1,0.1-0.2,0.2-0.2c0.6-0.5,1.8-1.1,3.9-1.9c0.7-0.3,1.4-0.5,2.1-0.7
				c1.2-0.4,2.3-0.8,2.9-1.1c0.9-0.4,1.6-1.1,2.5-1.9l0.2-0.2c1.1-1,2.3-2,3.9-2.7c5.4-2.3,9.6-0.4,13.3,1.2c1,0.4,1.9,0.8,2.7,1.1
				c5.6,2,9.9-0.6,9.9-0.6l0,0l0.1,0c0.1,0,0.2,0.2,0.2,0.4c0.1,0.9-0.9,3.6-1.8,5.5c-1,2.1-2.4,4.5-3.3,5.2
				c-0.3,0.2-0.5,0.2-0.6,0.1l0,0c-3.1-1.6-10.2-1.8-12.5-1.4l-0.1,0c-3.9,0.8-5.1,1-9.9,3.7c-3.6,2.1-6.3,1.9-8.6,1.7
				c-0.7,0-1.3-0.1-1.9-0.1c-0.9,0-2.3,0.2-3.7,0.3C37.9,98.3,35.9,98.5,34.4,98.5z M33.9,98.3c1.5,0.1,3.8-0.2,5.8-0.4
				c1.4-0.1,2.8-0.3,3.7-0.3c0.6,0,1.3,0,2,0.1c2.3,0.2,4.9,0.3,8.4-1.7c4.8-2.7,6.1-3,10-3.7l0.1,0c2.4-0.5,9.5-0.2,12.7,1.4
				c0.1,0.1,0.3,0,0.4-0.1c0.7-0.5,2-2.5,3.2-5.1c1.2-2.5,1.9-4.7,1.8-5.4c0-0.1,0-0.1-0.1-0.2c-0.6,0.3-4.8,2.5-10.1,0.6
				c-0.9-0.3-1.8-0.7-2.8-1.1c-3.7-1.6-7.9-3.4-13.2-1.2c-1.6,0.7-2.8,1.7-3.9,2.7L51.8,84c-0.9,0.8-1.7,1.5-2.6,1.9
				c-0.7,0.3-1.8,0.7-2.9,1.1c-0.7,0.2-1.4,0.5-2.1,0.7c-1.3,0.5-3.1,1.2-3.8,1.8c-0.1,0.1-0.1,0.1-0.2,0.2
				c-0.7,0.9-0.5,1.2-0.2,1.6l0.1,0.2l-0.3,0c-2-0.2-4.7-0.5-5.8,0.1c-0.2,0.1-0.4,0.3-0.6,0.4l0,0c-0.3,0.3-0.4,0.6-0.4,0.8
				c0,0.1,0,0.1,0.1,0.2l0,0c0,0,0.1,0,0.1,0c0.5,0.1,1.3,0.2,2.2,0.4c1.8,0.3,4,0.8,5.3,0.8l0,0.2c-4.7,0.3-7.9,1.4-8.6,2.4
				c-0.1,0.2-0.2,0.3-0.1,0.5c0.5,0.1,1.2,0.3,1.6,0.5C33.8,98.1,33.9,98.2,33.9,98.3z"/>
		</g>
	</g>
	<g id="XMLID_1943_">
		<g id="XMLID_1944_">
			<path id="XMLID_1945_" class="st0" d="M33.8,98.5L33.8,98.5c-0.4,0-0.7-0.1-1-0.1c-0.6-0.1-0.9-0.3-0.9-0.7l0-0.1l0.1,0
				c0.5,0.1,1.3,0.3,1.7,0.5c0.1,0.1,0.2,0.2,0.2,0.2c0,0,0,0,0,0l0.1,0.1L33.8,98.5L33.8,98.5z M32.1,97.8c0.1,0.2,0.3,0.3,0.8,0.4
				c0.2,0,0.5,0.1,0.8,0.1c0,0,0,0,0,0C33.2,98.1,32.6,97.9,32.1,97.8z"/>
		</g>
	</g>
	<g id="XMLID_1940_">
		<g id="XMLID_1941_">
			<path id="XMLID_1942_" class="st0" d="M40.8,94.7l0-0.2c0.2,0,0.3,0,0.5,0l0,0.2C41.2,94.7,41,94.7,40.8,94.7z"/>
		</g>
	</g>
	<g id="XMLID_1935_">
		<g id="XMLID_1936_">
			<path id="XMLID_1937_" class="st0" d="M49.1,86L49.1,86c-0.1,0-1.3-1-3-1.6l-0.2-0.1c-1.5-0.6-3.5-1.5-3.9-2.4
				c-0.1-0.2-0.1-0.5,0-0.7l0,0l0,0c0.2-0.2,0.5-0.3,0.9-0.4l0,0l0,0c1.3-0.2,3.4,0.7,5.7,1.6c1.1,0.5,2.3,1,3.3,1.3l0.2,0.1
				L51.8,84C50.9,84.8,50.1,85.6,49.1,86L49.1,86z M42.3,81.2c-0.1,0.2-0.1,0.3,0,0.5c0.4,0.9,2.4,1.7,3.7,2.3l0.2,0.1
				c1.4,0.6,2.6,1.4,2.9,1.6c0.9-0.4,1.6-1.1,2.5-1.9l0.1-0.1c-1-0.3-2.1-0.8-3.1-1.2c-2.1-0.9-4.3-1.8-5.6-1.6l0,0l0,0
				C42.7,81,42.5,81.1,42.3,81.2z"/>
		</g>
	</g>
	<g id="XMLID_1930_">
		<g id="XMLID_1931_">
			<path id="XMLID_1932_" class="st0" d="M40.2,89.7L40.2,89.7c-0.3-0.4-1-0.7-1.6-1c-1-0.5-2-1-2.1-1.6c0-0.2,0.1-0.4,0.3-0.6
				c0.3-0.3,0.6-0.4,1.1-0.5c1.7-0.3,4.3,0.8,6.1,1.5l0.4,0.2l-0.3,0.1C42.9,88.3,41.1,89,40.2,89.7L40.2,89.7z M38.5,86.2
				c-0.2,0-0.4,0-0.5,0c-0.4,0.1-0.7,0.2-1,0.5c-0.1,0.1-0.2,0.3-0.2,0.4c0,0.5,1,1,1.9,1.4c0.6,0.3,1.2,0.6,1.5,0.9
				c0.6-0.5,1.7-1,3.5-1.7C42.3,87.1,40.1,86.2,38.5,86.2z"/>
		</g>
	</g>
	<g id="XMLID_1927_">
		<g id="XMLID_1928_">
			<polygon id="XMLID_1929_" class="st0" points="44.1,87.8 44.1,87.8 44.1,87.6 			"/>
		</g>
	</g>
	<g id="XMLID_1924_">
		<g id="XMLID_1925_">
			<path id="XMLID_1926_" class="st0" d="M42,92.4c-1,0-1.8-0.2-2.3-0.8l0.2-0.2c1.1,1.3,4.6,0.6,6.8-0.5c0.5-0.2,0.9-0.5,1.3-0.7
				c1.3-0.7,2.3-1.2,3.4-1.1c0.5,0,1.1,0.2,1.7,0.3c1.2,0.3,2.6,0.5,4,0.3l0,0.2c-1.4,0.2-2.8-0.1-4.1-0.3c-0.6-0.1-1.2-0.2-1.7-0.3
				c-1.1-0.1-2,0.4-3.3,1c-0.4,0.2-0.8,0.4-1.3,0.7C45.5,91.9,43.6,92.4,42,92.4z"/>
		</g>
	</g>
	<g id="XMLID_1921_">
		<g id="XMLID_1922_">
			<path id="XMLID_1923_" class="st0" d="M41.3,94.7l0-0.2c1.2,0,3.3-0.7,5.3-1.4c0.9-0.3,1.9-0.6,2.7-0.9l0.1,0.2
				c-0.8,0.2-1.8,0.6-2.7,0.9C44.6,94,42.6,94.7,41.3,94.7z"/>
		</g>
	</g>
	<g id="XMLID_1919_">
		<path id="XMLID_1920_" class="st0" d="M38.9,91.2c0.4,1.1,2.7,1,3.9,0.5c0.5-0.2-0.2-2.2-0.9-2.2C41.3,89.5,38.6,90.3,38.9,91.2z"
			/>
	</g>
	<g id="XMLID_1917_">
		<path id="XMLID_1918_" class="st0" d="M33.8,98.4L33.8,98.4C33.8,98.4,33.8,98.4,33.8,98.4C33.8,98.4,33.8,98.4,33.8,98.4
			c-0.1,0-0.5,0-1-0.1c-0.8-0.1-1.8-0.3-1.5-0.6c0-0.1,0.3,0,0.7,0c0.5,0.1,1.3,0.3,1.7,0.5C33.8,98.3,33.8,98.4,33.8,98.4z"/>
	</g>
	<g id="XMLID_1915_">
		<path id="XMLID_1916_" class="st0" d="M33.1,93.4c-0.4-0.1-0.7-0.2-0.6-0.4c0-0.2,0.5-0.7,0.9-0.8C32.9,92.7,32.8,93.2,33.1,93.4z
			"/>
	</g>
	<g id="XMLID_1913_">
		<path id="XMLID_1914_" class="st0" d="M38,86.1c-0.4,0.1-0.8,0.2-1,0.5c-0.2,0.2-0.2,0.3-0.2,0.5c0,0,0,0,0,0
			c-0.2-0.2-0.4-0.6-0.2-0.8C36.8,86,37.5,85.9,38,86.1L38,86.1z"/>
	</g>
	<g id="XMLID_1911_">
		<path id="XMLID_1912_" class="st0" d="M43,80.8c-0.3,0-0.6,0.2-0.8,0.4c-0.1,0.2-0.1,0.4,0,0.6c0,0,0,0,0,0
			c-0.4-0.2-0.5-0.7-0.4-0.9C42,80.7,42.4,80.6,43,80.8z"/>
	</g>
</g>
<g id="XMLID_2433_">
	<g id="XMLID_2000_">
		<g id="XMLID_2011_">
			<g id="XMLID_2131_">
				<g id="XMLID_2135_">
					<g id="XMLID_2136_">
						<rect id="XMLID_2137_" x="48.5" y="30.9" class="st1" width="0.2" height="5.3"/>
					</g>
				</g>
				<g id="XMLID_2132_">
					<g id="XMLID_2133_">
						<rect id="XMLID_2134_" x="48.5" y="65.1" class="st1" width="0.2" height="5.3"/>
					</g>
				</g>
			</g>
			<g id="XMLID_2124_">
				<g id="XMLID_2128_">
					<g id="XMLID_2129_">
						
							<rect id="XMLID_2130_" x="39.6" y="30.8" transform="matrix(0.1736 0.9848 -0.9848 0.1736 67.7744 -18.9239)" class="st1" width="11.2" height="0.2"/>
					</g>
				</g>
				<g id="XMLID_2125_">
					<g id="XMLID_2126_">
						
							<rect id="XMLID_2127_" x="46.5" y="70.3" transform="matrix(0.1736 0.9848 -0.9848 0.1736 112.3706 6.8237)" class="st1" width="11.2" height="0.2"/>
					</g>
				</g>
			</g>
			<g id="XMLID_2117_">
				<g id="XMLID_2121_">
					<g id="XMLID_2122_">
						
							<rect id="XMLID_2123_" x="40.2" y="34.5" transform="matrix(0.342 0.9397 -0.9397 0.342 60.6713 -17.4932)" class="st1" width="5.3" height="0.2"/>
					</g>
				</g>
				<g id="XMLID_2118_">
					<g id="XMLID_2119_">
						
							<rect id="XMLID_2120_" x="51.9" y="66.6" transform="matrix(0.342 0.9397 -0.9397 0.342 98.5238 -7.3508)" class="st1" width="5.3" height="0.2"/>
					</g>
				</g>
			</g>
			<g id="XMLID_2110_">
				<g id="XMLID_2114_">
					<g id="XMLID_2115_">
						
							<rect id="XMLID_2116_" x="33.1" y="33.2" transform="matrix(0.5 0.866 -0.866 0.5 48.151 -16.8349)" class="st1" width="11.2" height="0.2"/>
					</g>
				</g>
				<g id="XMLID_2111_">
					<g id="XMLID_2112_">
						
							<rect id="XMLID_2113_" x="53.1" y="67.9" transform="matrix(0.5 0.866 -0.866 0.5 88.2071 -16.8349)" class="st1" width="11.2" height="0.2"/>
					</g>
				</g>
			</g>
			<g id="XMLID_2103_">
				<g id="XMLID_2107_">
					<g id="XMLID_2108_">
						
							<rect id="XMLID_2109_" x="35.1" y="37.4" transform="matrix(0.6428 0.766 -0.766 0.6428 42.2082 -15.4858)" class="st1" width="5.3" height="0.2"/>
					</g>
				</g>
				<g id="XMLID_2104_">
					<g id="XMLID_2105_">
						
							<rect id="XMLID_2106_" x="57" y="63.6" transform="matrix(0.6428 0.766 -0.766 0.6428 70.0989 -22.9592)" class="st1" width="5.3" height="0.2"/>
					</g>
				</g>
			</g>
			<g id="XMLID_2096_">
				<g id="XMLID_2100_">
					<g id="XMLID_2101_">
						
							<rect id="XMLID_2102_" x="27.8" y="37.6" transform="matrix(0.766 0.6428 -0.6428 0.766 32.0513 -12.6081)" class="st1" width="11.2" height="0.2"/>
					</g>
				</g>
				<g id="XMLID_2097_">
					<g id="XMLID_2098_">
						
							<rect id="XMLID_2099_" x="58.4" y="63.4" transform="matrix(0.766 0.6428 -0.6428 0.766 55.7803 -26.3081)" class="st1" width="11.2" height="0.2"/>
					</g>
				</g>
			</g>
			<g id="XMLID_2089_">
				<g id="XMLID_2093_">
					<g id="XMLID_2094_">
						
							<rect id="XMLID_2095_" x="31.3" y="41.9" transform="matrix(0.866 0.5 -0.5 0.866 25.5561 -11.3218)" class="st1" width="5.3" height="0.2"/>
					</g>
				</g>
				<g id="XMLID_2090_">
					<g id="XMLID_2091_">
						
							<rect id="XMLID_2092_" x="60.8" y="59" transform="matrix(0.866 0.5 -0.5 0.866 38.0603 -23.8259)" class="st1" width="5.3" height="0.2"/>
					</g>
				</g>
			</g>
			<g id="XMLID_2082_">
				<g id="XMLID_2086_">
					<g id="XMLID_2087_">
						
							<rect id="XMLID_2088_" x="24.3" y="43.6" transform="matrix(0.9397 0.342 -0.342 0.9397 16.7538 -7.5819)" class="st1" width="11.2" height="0.2"/>
					</g>
				</g>
				<g id="XMLID_2083_">
					<g id="XMLID_2084_">
						
							<rect id="XMLID_2085_" x="61.9" y="57.3" transform="matrix(0.9397 0.342 -0.342 0.9397 23.7097 -19.6296)" class="st1" width="11.2" height="0.2"/>
					</g>
				</g>
			</g>
			<g id="XMLID_2075_">
				<g id="XMLID_2079_">
					<g id="XMLID_2080_">
						
							<rect id="XMLID_2081_" x="29.2" y="47.4" transform="matrix(0.9848 0.1737 -0.1737 0.9848 8.7446 -4.8121)" class="st1" width="5.3" height="0.2"/>
					</g>
				</g>
				<g id="XMLID_2076_">
					<g id="XMLID_2077_">
						
							<rect id="XMLID_2078_" x="62.9" y="53.4" transform="matrix(0.9848 0.1737 -0.1737 0.9848 10.2857 -10.5641)" class="st1" width="5.3" height="0.2"/>
					</g>
				</g>
			</g>
			<g id="XMLID_2068_">
				<g id="XMLID_2072_">
					<g id="XMLID_2073_">
						<rect id="XMLID_2074_" x="23.1" y="50.4" class="st1" width="11.2" height="0.2"/>
					</g>
				</g>
				<g id="XMLID_2069_">
					<g id="XMLID_2070_">
						<rect id="XMLID_2071_" x="63.1" y="50.4" class="st1" width="11.2" height="0.2"/>
					</g>
				</g>
			</g>
			<g id="XMLID_2061_">
				<g id="XMLID_2065_">
					<g id="XMLID_2066_">
						
							<rect id="XMLID_2067_" x="31.7" y="50.8" transform="matrix(0.1737 0.9848 -0.9848 0.1737 78.9815 12.809)" class="st1" width="0.2" height="5.3"/>
					</g>
				</g>
				<g id="XMLID_2062_">
					<g id="XMLID_2063_">
						
							<rect id="XMLID_2064_" x="65.4" y="44.9" transform="matrix(0.1737 0.9848 -0.9848 0.1737 100.9344 -25.2267)" class="st1" width="0.2" height="5.3"/>
					</g>
				</g>
			</g>
			<g id="XMLID_2054_">
				<g id="XMLID_2058_">
					<g id="XMLID_2059_">
						
							<rect id="XMLID_2060_" x="29.7" y="51.8" transform="matrix(0.3421 0.9397 -0.9397 0.3421 73.5375 9.6758)" class="st1" width="0.2" height="11.2"/>
					</g>
				</g>
				<g id="XMLID_2055_">
					<g id="XMLID_2056_">
						
							<rect id="XMLID_2057_" x="67.4" y="38.1" transform="matrix(0.342 0.9397 -0.9397 0.342 85.4312 -34.7067)" class="st1" width="0.2" height="11.2"/>
					</g>
				</g>
			</g>
			<g id="XMLID_2047_">
				<g id="XMLID_2051_">
					<g id="XMLID_2052_">
						
							<rect id="XMLID_2053_" x="33.7" y="56.4" transform="matrix(0.5001 0.8659 -0.8659 0.5001 68.0338 0.1778)" class="st1" width="0.2" height="5.3"/>
					</g>
				</g>
				<g id="XMLID_2048_">
					<g id="XMLID_2049_">
						
							<rect id="XMLID_2050_" x="63.3" y="39.3" transform="matrix(0.5003 0.8659 -0.8659 0.5003 68.0184 -33.9796)" class="st1" width="0.2" height="5.3"/>
					</g>
				</g>
			</g>
			<g id="XMLID_2040_">
				<g id="XMLID_2044_">
					<g id="XMLID_2045_">
						
							<rect id="XMLID_2046_" x="33.2" y="57.8" transform="matrix(0.6431 0.7658 -0.7658 0.6431 60.4079 -2.8981)" class="st1" width="0.2" height="11.2"/>
					</g>
				</g>
				<g id="XMLID_2041_">
					<g id="XMLID_2042_">
						
							<rect id="XMLID_2043_" x="63.9" y="32" transform="matrix(0.6431 0.7658 -0.7658 0.6431 51.6426 -35.5877)" class="st1" width="0.2" height="11.2"/>
					</g>
				</g>
			</g>
			<g id="XMLID_2033_">
				<g id="XMLID_2037_">
					<g id="XMLID_2038_">
						
							<rect id="XMLID_2039_" x="37.5" y="60.9" transform="matrix(0.7658 0.6431 -0.6431 0.7658 49.6814 -9.326)" class="st1" width="0.2" height="5.3"/>
					</g>
				</g>
				<g id="XMLID_2034_">
					<g id="XMLID_2035_">
						
							<rect id="XMLID_2036_" x="59.5" y="34.7" transform="matrix(0.766 0.6428 -0.6428 0.766 37.9771 -29.569)" class="st1" width="0.2" height="5.3"/>
					</g>
				</g>
			</g>
			<g id="XMLID_2026_">
				<g id="XMLID_2030_">
					<g id="XMLID_2031_">
						
							<rect id="XMLID_2032_" x="38.5" y="62.2" transform="matrix(0.866 0.5001 -0.5001 0.866 39.0882 -10.2204)" class="st1" width="0.2" height="11.2"/>
					</g>
				</g>
				<g id="XMLID_2027_">
					<g id="XMLID_2028_">
						
							<rect id="XMLID_2029_" x="58.5" y="27.5" transform="matrix(0.8661 0.4998 -0.4998 0.8661 24.4041 -24.875)" class="st1" width="0.2" height="11.2"/>
					</g>
				</g>
			</g>
			<g id="XMLID_2019_">
				<g id="XMLID_2023_">
					<g id="XMLID_2024_">
						
							<rect id="XMLID_2025_" x="42.6" y="63.9" transform="matrix(0.9397 0.342 -0.342 0.9397 25.3291 -10.6103)" class="st1" width="0.2" height="5.3"/>
					</g>
				</g>
				<g id="XMLID_2020_">
					<g id="XMLID_2021_">
						
							<rect id="XMLID_2022_" x="54.3" y="31.8" transform="matrix(0.9397 0.342 -0.342 0.9397 15.0536 -16.543)" class="st1" width="0.2" height="5.3"/>
					</g>
				</g>
			</g>
			<g id="XMLID_2012_">
				<g id="XMLID_2016_">
					<g id="XMLID_2017_">
						
							<rect id="XMLID_2018_" x="45" y="64.6" transform="matrix(0.9848 0.1737 -0.1737 0.9848 12.8747 -6.7682)" class="st1" width="0.2" height="11.2"/>
					</g>
				</g>
				<g id="XMLID_2013_">
					<g id="XMLID_2014_">
						
							<rect id="XMLID_2015_" x="52" y="25.1" transform="matrix(0.9848 0.1736 -0.1736 0.9848 6.128 -8.5739)" class="st1" width="0.2" height="11.2"/>
					</g>
				</g>
			</g>
		</g>
		<g id="XMLID_2006_">
			<g id="XMLID_2007_">
				<path id="XMLID_2008_" class="st1" d="M48.6,63.9c-7.4,0-13.4-6-13.4-13.4c0-7.4,6-13.4,13.4-13.4c7.4,0,13.4,6,13.4,13.4
					C62,57.9,56,63.9,48.6,63.9z M48.6,37.4c-7.3,0-13.2,5.9-13.2,13.2s5.9,13.2,13.2,13.2s13.2-5.9,13.2-13.2S55.9,37.4,48.6,37.4z
					"/>
			</g>
		</g>
		<g id="XMLID_2001_">
			<g id="XMLID_2002_">
				<path id="XMLID_2003_" class="st1" d="M48.6,62.4c-6.5,0-11.9-5.3-11.9-11.9c0-6.5,5.3-11.9,11.9-11.9c6.5,0,11.9,5.3,11.9,11.9
					C60.5,57.1,55.2,62.4,48.6,62.4z M48.6,38.9c-6.4,0-11.6,5.2-11.6,11.6s5.2,11.6,11.6,11.6s11.6-5.2,11.6-11.6
					S55.1,38.9,48.6,38.9z"/>
			</g>
		</g>
	</g>
	<g id="XMLID_1905_">
		<g id="XMLID_1906_">
			<path id="XMLID_1907_" class="st1" d="M66.6,24.3l-0.2,0c0-0.7-0.1-1.2-0.4-1.3c-0.3-0.2-0.8-0.1-1.4,0.3l-0.1-0.1
				c0.6-0.3,0.9-0.7,0.9-1c0-0.3-0.3-0.7-0.9-1.1l0.1-0.1c0.6,0.4,1.1,0.5,1.4,0.3c0.3-0.2,0.4-0.6,0.5-1.3l0.2,0
				c0,0.7,0.1,1.2,0.4,1.3c0.3,0.2,0.8,0.1,1.4-0.3l0.1,0.1c-0.6,0.3-0.9,0.7-0.9,1c0,0.3,0.3,0.7,0.9,1.1l-0.1,0.1
				c-0.6-0.4-1.1-0.5-1.4-0.3C66.8,23.1,66.6,23.6,66.6,24.3z M65.7,22.7c0.2,0,0.3,0,0.4,0.1c0.2,0.1,0.4,0.4,0.4,0.7
				c0.1-0.3,0.2-0.6,0.4-0.7c0.2-0.1,0.5-0.1,0.8,0c-0.2-0.2-0.4-0.5-0.4-0.7c0-0.2,0.1-0.5,0.4-0.7c-0.3,0.1-0.6,0.1-0.8,0
				c-0.2-0.1-0.4-0.4-0.4-0.7c-0.1,0.3-0.2,0.6-0.4,0.7c-0.2,0.1-0.5,0.1-0.8,0c0.2,0.2,0.4,0.5,0.4,0.7c0,0.2-0.1,0.5-0.4,0.7
				C65.5,22.7,65.6,22.7,65.7,22.7z"/>
		</g>
	</g>
	<g id="XMLID_1900_">
		<g id="XMLID_1901_">
			<path id="XMLID_1902_" class="st1" d="M26.7,77.1l-0.2,0c0-1-0.2-1.7-0.6-2c-0.4-0.3-1.1-0.1-2,0.4l-0.1-0.2
				c0.9-0.5,1.4-1,1.4-1.5c0-0.5-0.4-1-1.3-1.5l0.1-0.2c0.9,0.5,1.6,0.7,2,0.4c0.4-0.2,0.7-0.9,0.7-1.9l0.2,0c0,1,0.2,1.7,0.6,2
				c0.4,0.3,1.1,0.1,2-0.4l0.1,0.2c-0.9,0.5-1.4,1-1.4,1.5c0,0.5,0.4,1,1.3,1.5l-0.1,0.2c-0.9-0.5-1.6-0.7-2-0.4
				C27,75.4,26.8,76.1,26.7,77.1z M25.4,74.8c0.2,0,0.4,0.1,0.6,0.2c0.3,0.2,0.5,0.5,0.6,1c0.1-0.5,0.3-0.8,0.7-1
				c0.3-0.2,0.7-0.2,1.2,0c-0.4-0.4-0.5-0.7-0.5-1.1c0-0.4,0.2-0.7,0.6-1.1c-0.5,0.1-0.9,0.1-1.2-0.1c-0.3-0.2-0.5-0.5-0.6-1
				c-0.1,0.5-0.3,0.8-0.7,1c-0.3,0.2-0.7,0.2-1.2,0c0.4,0.4,0.5,0.7,0.5,1.1c0,0.4-0.2,0.7-0.6,1.1C25,74.8,25.2,74.8,25.4,74.8z"/>
		</g>
	</g>
	<g id="XMLID_1895_">
		<g id="XMLID_1896_">
			<path id="XMLID_1897_" class="st1" d="M20.1,62.9l-0.1,0c0-0.5-0.1-0.7-0.3-0.9c-0.2-0.1-0.5-0.1-0.9,0.2l0-0.1
				c0.4-0.2,0.6-0.5,0.6-0.7c0-0.2-0.2-0.4-0.6-0.7l0.1-0.1c0.4,0.2,0.7,0.3,0.9,0.2c0.2-0.1,0.3-0.4,0.3-0.9l0.1,0
				c0,0.5,0.1,0.7,0.3,0.9c0.2,0.1,0.5,0.1,0.9-0.2l0,0.1c-0.4,0.2-0.6,0.5-0.6,0.7c0,0.2,0.2,0.4,0.6,0.7l-0.1,0.1
				c-0.4-0.2-0.7-0.3-0.9-0.2C20.2,62.1,20.1,62.4,20.1,62.9z M19.5,61.9c0.1,0,0.2,0,0.3,0.1c0.1,0.1,0.2,0.2,0.3,0.4
				c0.1-0.2,0.2-0.4,0.3-0.4c0.1-0.1,0.3-0.1,0.5,0c-0.2-0.2-0.2-0.3-0.2-0.5c0-0.2,0.1-0.3,0.2-0.5c-0.2,0.1-0.4,0-0.5,0
				c-0.1-0.1-0.2-0.2-0.3-0.4c-0.1,0.2-0.2,0.4-0.3,0.4c-0.1,0.1-0.3,0.1-0.5,0c0.2,0.2,0.2,0.3,0.2,0.5c0,0.2-0.1,0.3-0.2,0.5
				C19.4,61.9,19.5,61.9,19.5,61.9z"/>
		</g>
	</g>
	<g id="XMLID_1890_">
		<g id="XMLID_1891_">
			<path id="XMLID_1892_" class="st1" d="M74.4,36.6l-0.1,0c0-0.6-0.1-1-0.4-1.1c-0.3-0.1-0.7-0.1-1.2,0.2l-0.1-0.1
				c0.5-0.3,0.8-0.6,0.8-0.9c0-0.3-0.3-0.6-0.8-0.9l0.1-0.1c0.5,0.3,0.9,0.4,1.2,0.3c0.3-0.1,0.4-0.5,0.4-1.1l0.1,0
				c0,0.6,0.1,1,0.4,1.1C75,34,75.4,34,76,33.7l0.1,0.1c-0.5,0.3-0.8,0.6-0.8,0.9c0,0.3,0.3,0.6,0.8,0.9l-0.1,0.1
				c-0.5-0.3-0.9-0.4-1.2-0.3C74.5,35.6,74.4,36,74.4,36.6z M73.6,35.2c0.1,0,0.3,0,0.4,0.1c0.2,0.1,0.3,0.3,0.4,0.6
				c0.1-0.3,0.2-0.5,0.4-0.6c0.2-0.1,0.4-0.1,0.7,0c-0.2-0.2-0.3-0.4-0.3-0.6c0-0.2,0.1-0.4,0.3-0.6c-0.3,0.1-0.5,0.1-0.7,0
				c-0.2-0.1-0.3-0.3-0.4-0.6c-0.1,0.3-0.2,0.5-0.4,0.6c-0.2,0.1-0.4,0.1-0.7,0c0.2,0.2,0.3,0.4,0.3,0.6c0,0.2-0.1,0.4-0.3,0.6
				C73.3,35.2,73.5,35.2,73.6,35.2z"/>
		</g>
	</g>
	<g id="XMLID_1888_">
		<path id="XMLID_1889_" class="st1" d="M58.1,55.8c-1.9,3.4-5.4,5.6-9.5,5.6c-6,0-10.9-4.9-10.9-10.9c0-3.9,2-7.3,5.1-9.2
			c-1.3,1.8-2.1,4-2.1,6.4c0,5.9,4.8,10.6,10.6,10.6C53.9,58.3,56.3,57.3,58.1,55.8z"/>
	</g>
</g>
<g id="XMLID_1848_">
	<g id="XMLID_1885_">
		<g id="XMLID_1886_">
			<circle id="XMLID_1887_" class="st0" cx="76.5" cy="43.7" r="0.3"/>
		</g>
	</g>
	<g id="XMLID_1882_">
		<g id="XMLID_1883_">
			<circle id="XMLID_1884_" class="st0" cx="79.5" cy="39.2" r="0.3"/>
		</g>
	</g>
	<g id="XMLID_1879_">
		<g id="XMLID_1880_">
			<circle id="XMLID_1881_" class="st0" cx="74.2" cy="35" r="0.3"/>
		</g>
	</g>
	<g id="XMLID_1876_">
		<g id="XMLID_1877_">
			<circle id="XMLID_1878_" class="st0" cx="82.2" cy="27.3" r="0.1"/>
		</g>
	</g>
	<g id="XMLID_1873_">
		<g id="XMLID_1874_">
			<circle id="XMLID_1875_" class="st0" cx="69.6" cy="28.1" r="0.4"/>
		</g>
	</g>
	<g id="XMLID_1870_">
		<g id="XMLID_1871_">
			<circle id="XMLID_1872_" class="st0" cx="75.3" cy="24.9" r="0.4"/>
		</g>
	</g>
	<g id="XMLID_1867_">
		<g id="XMLID_1868_">
			<circle id="XMLID_1869_" class="st0" cx="72.2" cy="21.5" r="0.2"/>
		</g>
	</g>
	<g id="XMLID_1864_">
		<g id="XMLID_1865_">
			<circle id="XMLID_1866_" class="st0" cx="69.2" cy="23.2" r="0.2"/>
		</g>
	</g>
	<g id="XMLID_1861_">
		<g id="XMLID_1862_">
			<circle id="XMLID_1863_" class="st0" cx="70.1" cy="16" r="0.1"/>
		</g>
	</g>
	<g id="XMLID_1858_">
		<g id="XMLID_1859_">
			<circle id="XMLID_1860_" class="st0" cx="62.9" cy="24.4" r="0.1"/>
		</g>
	</g>
	<g id="XMLID_1855_">
		<g id="XMLID_1856_">
			<circle id="XMLID_1857_" class="st0" cx="66.5" cy="11" r="0.4"/>
		</g>
	</g>
	<g id="XMLID_1852_">
		<g id="XMLID_1853_">
			<circle id="XMLID_1854_" class="st0" cx="61.6" cy="11.3" r="0.3"/>
		</g>
	</g>
	<g id="XMLID_1849_">
		<g id="XMLID_1850_">
			<circle id="XMLID_1851_" class="st0" cx="59.8" cy="10.2" r="0.1"/>
		</g>
	</g>
</g>
<g id="XMLID_1814_">
	<g id="XMLID_1845_">
		<g id="XMLID_1846_">
			<circle id="XMLID_1847_" class="st0" cx="25.6" cy="56.1" r="0.1"/>
		</g>
	</g>
	<g id="XMLID_1842_">
		<g id="XMLID_1843_">
			<circle id="XMLID_1844_" class="st0" cx="20.8" cy="54.4" r="0.1"/>
		</g>
	</g>
	<g id="XMLID_1839_">
		<g id="XMLID_1840_">
			<circle id="XMLID_1841_" class="st0" cx="26.2" cy="58.7" r="0.1"/>
		</g>
	</g>
	<g id="XMLID_1836_">
		<g id="XMLID_1837_">
			<circle id="XMLID_1838_" class="st0" cx="18.1" cy="62" r="0.3"/>
		</g>
	</g>
	<g id="XMLID_1833_">
		<g id="XMLID_1834_">
			<circle id="XMLID_1835_" class="st0" cx="25.1" cy="64.7" r="0.3"/>
		</g>
	</g>
	<g id="XMLID_1830_">
		<g id="XMLID_1831_">
			<circle id="XMLID_1832_" class="st0" cx="19.2" cy="71.1" r="0.3"/>
		</g>
	</g>
	<g id="XMLID_1827_">
		<g id="XMLID_1828_">
			<circle id="XMLID_1829_" class="st0" cx="30.3" cy="69.9" r="0.3"/>
		</g>
	</g>
	<g id="XMLID_1824_">
		<g id="XMLID_1825_">
			<circle id="XMLID_1826_" class="st0" cx="27.2" cy="74.5" r="0.1"/>
		</g>
	</g>
	<g id="XMLID_1821_">
		<g id="XMLID_1822_">
			<circle id="XMLID_1823_" class="st0" cx="29.6" cy="79.1" r="0.1"/>
		</g>
	</g>
	<g id="XMLID_1818_">
		<g id="XMLID_1819_">
			<circle id="XMLID_1820_" class="st0" cx="36.4" cy="82.1" r="0.2"/>
		</g>
	</g>
	<g id="XMLID_1815_">
		<g id="XMLID_1816_">
			<circle id="XMLID_1817_" class="st0" cx="37.1" cy="82.6" r="0.3"/>
		</g>
	</g>
</g>
<g id="XMLID_1774_">
	<g id="XMLID_1811_">
		<g id="XMLID_1812_">
			<circle id="XMLID_1813_" class="st0" cx="23.6" cy="58.7" r="0.2"/>
		</g>
	</g>
	<g id="XMLID_1808_">
		<g id="XMLID_1809_">
			<circle id="XMLID_1810_" class="st0" cx="24.2" cy="58.8" r="0.2"/>
		</g>
	</g>
	<g id="XMLID_1805_">
		<g id="XMLID_1806_">
			<circle id="XMLID_1807_" class="st0" cx="18.6" cy="61.5" r="0.3"/>
		</g>
	</g>
	<g id="XMLID_1802_">
		<g id="XMLID_1803_">
			<circle id="XMLID_1804_" class="st0" cx="25.1" cy="64.5" r="0.2"/>
		</g>
	</g>
	<g id="XMLID_1799_">
		<g id="XMLID_1800_">
			<circle id="XMLID_1801_" class="st0" cx="26.4" cy="64.9" r="0.2"/>
		</g>
	</g>
	<g id="XMLID_1796_">
		<g id="XMLID_1797_">
			<circle id="XMLID_1798_" class="st0" cx="28" cy="67.8" r="0.2"/>
		</g>
	</g>
	<g id="XMLID_1793_">
		<g id="XMLID_1794_">
			<circle id="XMLID_1795_" class="st0" cx="30.3" cy="74.5" r="0.2"/>
		</g>
	</g>
	<g id="XMLID_1790_">
		<g id="XMLID_1791_">
			<circle id="XMLID_1792_" class="st0" cx="33.4" cy="73.8" r="0.3"/>
		</g>
	</g>
	<g id="XMLID_1787_">
		<g id="XMLID_1788_">
			<circle id="XMLID_1789_" class="st0" cx="34.9" cy="79.5" r="0.3"/>
		</g>
	</g>
	<g id="XMLID_1784_">
		<g id="XMLID_1785_">
			<circle id="XMLID_1786_" class="st0" cx="36.7" cy="83.5" r="0.3"/>
		</g>
	</g>
	<g id="XMLID_1781_">
		<g id="XMLID_1782_">
			<circle id="XMLID_1783_" class="st0" cx="35.3" cy="86.3" r="0.1"/>
		</g>
	</g>
	<g id="XMLID_1778_">
		<g id="XMLID_1779_">
			<circle id="XMLID_1780_" class="st0" cx="26.6" cy="88.7" r="0.4"/>
		</g>
	</g>
	<g id="XMLID_1775_">
		<g id="XMLID_1776_">
			<circle id="XMLID_1777_" class="st0" cx="32" cy="93.3" r="0.1"/>
		</g>
	</g>
</g>
<g id="XMLID_1737_">
	<g id="XMLID_1771_">
		<g id="XMLID_1772_">
			<circle id="XMLID_1773_" class="st0" cx="76.3" cy="66.3" r="0.3"/>
		</g>
	</g>
	<g id="XMLID_1768_">
		<g id="XMLID_1769_">
			<circle id="XMLID_1770_" class="st0" cx="76.2" cy="65.4" r="0.3"/>
		</g>
	</g>
	<g id="XMLID_1765_">
		<g id="XMLID_1766_">
			<circle id="XMLID_1767_" class="st0" cx="76.8" cy="61.9" r="0.2"/>
		</g>
	</g>
	<g id="XMLID_1762_">
		<g id="XMLID_1763_">
			<circle id="XMLID_1764_" class="st0" cx="71.3" cy="58.3" r="0.4"/>
		</g>
	</g>
	<g id="XMLID_1759_">
		<g id="XMLID_1760_">
			<circle id="XMLID_1761_" class="st0" cx="70.9" cy="52.5" r="0.1"/>
		</g>
	</g>
	<g id="XMLID_1756_">
		<g id="XMLID_1757_">
			<circle id="XMLID_1758_" class="st0" cx="65.3" cy="52" r="0.2"/>
		</g>
	</g>
	<g id="XMLID_1753_">
		<g id="XMLID_1754_">
			<circle id="XMLID_1755_" class="st0" cx="70.5" cy="46.8" r="0.3"/>
		</g>
	</g>
	<g id="XMLID_1750_">
		<g id="XMLID_1751_">
			<circle id="XMLID_1752_" class="st0" cx="75" cy="40.7" r="0.3"/>
		</g>
	</g>
	<g id="XMLID_1747_">
		<g id="XMLID_1748_">
			<circle id="XMLID_1749_" class="st0" cx="65.3" cy="34.9" r="0.3"/>
		</g>
	</g>
	<g id="XMLID_1744_">
		<g id="XMLID_1745_">
			<circle id="XMLID_1746_" class="st0" cx="63.8" cy="32.7" r="0.2"/>
		</g>
	</g>
	<g id="XMLID_1741_">
		<g id="XMLID_1742_">
			<circle id="XMLID_1743_" class="st0" cx="67.7" cy="21.3" r="0.2"/>
		</g>
	</g>
	<g id="XMLID_1738_">
		<g id="XMLID_1739_">
			<circle id="XMLID_1740_" class="st0" cx="60.9" cy="17.2" r="0.1"/>
		</g>
	</g>
</g>
<g id="XMLID_1709_">
	<g id="XMLID_1734_">
		<g id="XMLID_1735_">
			<circle id="XMLID_1736_" class="st0" cx="69" cy="74.7" r="0.1"/>
		</g>
	</g>
	<g id="XMLID_1731_">
		<g id="XMLID_1732_">
			<circle id="XMLID_1733_" class="st0" cx="68.2" cy="69.5" r="0.3"/>
		</g>
	</g>
	<g id="XMLID_1728_">
		<g id="XMLID_1729_">
			<circle id="XMLID_1730_" class="st0" cx="66.4" cy="65" r="0.2"/>
		</g>
	</g>
	<g id="XMLID_1725_">
		<g id="XMLID_1726_">
			<circle id="XMLID_1727_" class="st0" cx="70.7" cy="64.7" r="0.1"/>
		</g>
	</g>
	<g id="XMLID_1722_">
		<g id="XMLID_1723_">
			<circle id="XMLID_1724_" class="st0" cx="70.8" cy="59.7" r="0.3"/>
		</g>
	</g>
	<g id="XMLID_1719_">
		<g id="XMLID_1720_">
			<circle id="XMLID_1721_" class="st0" cx="71.4" cy="58.7" r="0.1"/>
		</g>
	</g>
	<g id="XMLID_1716_">
		<g id="XMLID_1717_">
			<circle id="XMLID_1718_" class="st0" cx="76.8" cy="56.7" r="0.3"/>
		</g>
	</g>
	<g id="XMLID_1713_">
		<g id="XMLID_1714_">
			<circle id="XMLID_1715_" class="st0" cx="83.6" cy="55.4" r="0.3"/>
		</g>
	</g>
	<g id="XMLID_1710_">
		<g id="XMLID_1711_">
			<circle id="XMLID_1712_" class="st0" cx="69.5" cy="50.9" r="0.4"/>
		</g>
	</g>
</g>
<g id="XMLID_1678_">
	<g id="XMLID_1706_">
		<g id="XMLID_1707_">
			<circle id="XMLID_1708_" class="st0" cx="20.6" cy="59.9" r="0.4"/>
		</g>
	</g>
	<g id="XMLID_1703_">
		<g id="XMLID_1704_">
			<circle id="XMLID_1705_" class="st0" cx="16" cy="52.9" r="0.1"/>
		</g>
	</g>
	<g id="XMLID_1700_">
		<g id="XMLID_1701_">
			<circle id="XMLID_1702_" class="st0" cx="27.6" cy="51.3" r="0.3"/>
		</g>
	</g>
	<g id="XMLID_1697_">
		<g id="XMLID_1698_">
			<circle id="XMLID_1699_" class="st0" cx="26.8" cy="48" r="0.2"/>
		</g>
	</g>
	<g id="XMLID_1694_">
		<g id="XMLID_1695_">
			<circle id="XMLID_1696_" class="st0" cx="16.4" cy="43" r="0.4"/>
		</g>
	</g>
	<g id="XMLID_1691_">
		<g id="XMLID_1692_">
			<circle id="XMLID_1693_" class="st0" cx="21.1" cy="39" r="0.3"/>
		</g>
	</g>
	<g id="XMLID_1688_">
		<g id="XMLID_1689_">
			<circle id="XMLID_1690_" class="st0" cx="16.6" cy="32.2" r="0.4"/>
		</g>
	</g>
	<g id="XMLID_1685_">
		<g id="XMLID_1686_">
			<circle id="XMLID_1687_" class="st0" cx="22.1" cy="32.4" r="0.3"/>
		</g>
	</g>
	<g id="XMLID_1682_">
		<g id="XMLID_1683_">
			<circle id="XMLID_1684_" class="st0" cx="22.3" cy="25.8" r="0.1"/>
		</g>
	</g>
	<g id="XMLID_1679_">
		<g id="XMLID_1680_">
			<circle id="XMLID_1681_" class="st0" cx="30.3" cy="23.1" r="0.3"/>
		</g>
	</g>
</g>
</svg>
