<?xml version="1.0" encoding="utf-8"?>
<!-- Generator: Adobe Illustrator 19.0.0, SVG Export Plug-In . SVG Version: 6.00 Build 0)  -->
<svg version="1.1" id="Layer_1" xmlns="http://www.w3.org/2000/svg" xmlns:xlink="http://www.w3.org/1999/xlink" x="0px" y="0px"
	 viewBox="0 0 100 100" style="enable-background:new 0 0 100 100;" xml:space="preserve">
<style type="text/css">
	.st0{fill:#DAA02B;}
	.st1{fill:#FFFFFF;}
</style>
<g id="XMLID_2377_">
	<path id="XMLID_2285_" class="st0" d="M51.6,26.7c-0.8,0.7-2,1-3,0.6c-1.6-0.6-2.4-2.3-1.8-3.9c0.4-1,1.2-1.7,2.2-1.9
		c-0.5,0.3-0.9,0.8-1.2,1.5c-0.6,1.5,0.2,3.3,1.8,3.8C50.2,27,50.9,26.9,51.6,26.7z"/>
	<g id="XMLID_2279_">
		<g id="XMLID_2281_">
			<path id="XMLID_2282_" class="st0" d="M48.7,90.8c-2.4,0-4.3-2-4.3-4.3c0-2.4,2-4.3,4.3-4.3c2.4,0,4.3,2,4.3,4.3
				C53.1,88.9,51.1,90.8,48.7,90.8z M48.7,82.3c-2.3,0-4.2,1.9-4.2,4.2c0,2.3,1.9,4.2,4.2,4.2c2.3,0,4.2-1.9,4.2-4.2
				C52.9,84.2,51,82.3,48.7,82.3z"/>
		</g>
		<path id="XMLID_2280_" class="st0" d="M54.3,86.2c0.2,0.1,0.4,0.1,0.6,0.2c0.2,0.1,0.4,0.2,0.6,0.3c0.2,0.1,0.4,0.2,0.6,0.4
			c0,0.1,0.1,0.1,0.1,0.2c0,0.1,0,0.1,0,0.2c0,0.1,0,0.2-0.1,0.2c0,0.1-0.1,0.1-0.1,0.2c-0.1,0.1-0.2,0.2-0.3,0.2
			c-0.1,0.1-0.2,0.1-0.3,0.1c-0.2,0.1-0.4,0.1-0.7,0.2c-0.4,0.1-0.9,0.2-1.4,0.2c-0.9,0.1-1.8,0.1-2.7,0.1c-0.9,0-1.8-0.1-2.7-0.2
			c-0.4-0.1-0.9-0.1-1.3-0.2c-0.4-0.1-0.9-0.2-1.3-0.3c-0.4-0.1-0.9-0.2-1.3-0.3c-0.4-0.1-0.9-0.3-1.3-0.5c-0.2-0.1-0.4-0.2-0.6-0.3
			c-0.2-0.1-0.4-0.2-0.6-0.4c-0.1-0.1-0.2-0.2-0.3-0.3c0-0.1-0.1-0.1-0.1-0.2c0-0.1,0-0.2,0-0.3c0-0.1,0.1-0.1,0.1-0.2
			c0.1-0.1,0.1-0.1,0.2-0.1c0.1-0.1,0.2-0.1,0.3-0.2c0.2-0.1,0.5-0.1,0.7-0.2c0.2,0,0.5-0.1,0.7-0.1c0.2,0,0.5,0,0.7,0
			c0.2,0,0.4,0,0.7,0c-0.2,0-0.4,0.1-0.7,0.1c-0.2,0-0.4,0.1-0.7,0.1c-0.4,0.1-0.9,0.2-1.3,0.4c-0.1,0-0.2,0.1-0.3,0.2
			c0,0-0.1,0.1-0.1,0.1c0,0,0,0.1,0,0.1c0,0,0,0,0,0.1c0,0,0,0.1,0,0.1c0,0.1,0.1,0.1,0.2,0.2c0.2,0.1,0.3,0.2,0.5,0.3
			c0.2,0.1,0.4,0.2,0.6,0.2c0.8,0.3,1.7,0.5,2.6,0.7c0.4,0.1,0.9,0.2,1.3,0.2c0.4,0.1,0.9,0.1,1.3,0.2c0.4,0.1,0.9,0.1,1.3,0.1
			c0.4,0,0.9,0.1,1.3,0.1c0.9,0.1,1.8,0.1,2.7,0c0.4,0,0.9,0,1.3-0.1c0.2,0,0.4-0.1,0.6-0.1c0.2-0.1,0.4-0.1,0.5-0.2
			c0.1-0.1,0.1-0.1,0.1-0.2c0-0.1,0-0.1-0.1-0.2c-0.1-0.1-0.1-0.2-0.2-0.2c-0.1-0.1-0.2-0.1-0.3-0.2C55.1,86.6,54.7,86.4,54.3,86.2z
			"/>
	</g>
	<g id="XMLID_2251_">
		<g id="XMLID_2275_">
			<path id="XMLID_2276_" class="st0" d="M48.9,64.3h-0.2l-5.3-20.6l0.1-0.1h10.7l0.1,0.1L48.9,64.3z M43.6,43.8l5.2,20.1L54,43.8
				H43.6z"/>
		</g>
		<g id="XMLID_2271_">
			<path id="XMLID_2272_" class="st0" d="M48.7,64.3L37.4,43.7l0.1-0.1h6l0.1,0.1l5.3,20.6L48.7,64.3z M37.7,43.8l10.9,19.8
				l-5.1-19.8H37.7z"/>
		</g>
		<g id="XMLID_2267_">
			<path id="XMLID_2268_" class="st0" d="M54.3,43.8h-11l2.4-5.2h6.1L54.3,43.8z M43.6,43.6H54l-2.2-4.8h-5.9L43.6,43.6z"/>
		</g>
		<g id="XMLID_2263_">
			<path id="XMLID_2264_" class="st0" d="M43.5,43.8h-6.2l4.4-5.2H46L43.5,43.8z M37.7,43.6h5.7l2.2-4.8h-3.9L37.7,43.6z"/>
		</g>
		<g id="XMLID_2259_">
			<path id="XMLID_2260_" class="st0" d="M48.9,64.3l-0.2-0.1l5.3-20.6l0.1-0.1h6l0.1,0.1L48.9,64.3z M54.2,43.8l-5.1,19.8L60,43.8
				H54.2z"/>
		</g>
		<g id="XMLID_2255_">
			<path id="XMLID_2256_" class="st0" d="M60.3,43.8h-6.2l-2.4-5.2h4.3L60.3,43.8z M54.2,43.6h5.7l-4.1-4.8H52L54.2,43.6z"/>
		</g>
		<polygon id="XMLID_2254_" class="st0" points="56,43.7 48.9,63.9 60.1,43.7 		"/>
		<polygon id="XMLID_2253_" class="st0" points="54.2,43.7 51.8,38.7 47.4,38.7 48.8,43.7 		"/>
		<polygon id="XMLID_2252_" class="st0" points="41.2,43.7 45.3,57.7 37.5,43.7 		"/>
	</g>
</g>
<g id="XMLID_2249_">
	<polygon id="XMLID_2250_" class="st1" points="37.6,43.7 37.4,43.6 48.9,11 60.2,43.6 60,43.7 48.9,11.6 	"/>
</g>
<g id="XMLID_2232_">
	<g id="XMLID_2247_">
		<path id="XMLID_2248_" class="st1" d="M48.9,11.4c0,0-0.1,0-0.1,0c0,0,0,0,0,0c0,0,0,0,0,0c0,0,0,0,0,0c0,0,0,0,0,0
			c0,0,0-0.1,0-0.1c0,0,0.1,0,0.1,0c0,0,0,0,0,0c0,0,0,0,0,0c0,0,0,0,0,0c0,0,0,0.1,0,0.1c0,0,0,0,0,0c0,0,0,0,0,0c0,0,0,0,0,0
			c0,0,0,0,0,0C49,11.4,49,11.4,48.9,11.4C48.9,11.4,48.9,11.4,48.9,11.4C48.9,11.4,48.9,11.4,48.9,11.4
			C48.9,11.4,48.9,11.4,48.9,11.4z"/>
	</g>
	<g id="XMLID_2243_">
		<path id="XMLID_2244_" class="st1" d="M48.7,13.5c0-0.1,0.1-0.1,0.1-0.1l0,0c0.1,0,0.1,0.1,0.1,0.1l0,0c0,0.1-0.1,0.1-0.1,0.1l0,0
			C48.8,13.6,48.7,13.5,48.7,13.5z M48.7,12.4c0-0.1,0.1-0.1,0.1-0.1l0,0c0.1,0,0.1,0.1,0.1,0.1l0,0c0,0.1-0.1,0.1-0.1,0.1l0,0
			C48.8,12.5,48.7,12.4,48.7,12.4z"/>
	</g>
	<g id="XMLID_2235_">
		<path id="XMLID_2236_" class="st1" d="M48.7,20c0-0.1,0.1-0.1,0.1-0.1l0,0c0.1,0,0.1,0.1,0.1,0.1l0,0c0,0.1-0.1,0.1-0.1,0.1l0,0
			C48.8,20.1,48.7,20.1,48.7,20z M48.7,18.9c0-0.1,0.1-0.1,0.1-0.1l0,0c0.1,0,0.1,0.1,0.1,0.1l0,0c0,0.1-0.1,0.1-0.1,0.1l0,0
			C48.8,19,48.7,19,48.7,18.9z M48.7,17.8c0-0.1,0.1-0.1,0.1-0.1l0,0c0.1,0,0.1,0.1,0.1,0.1l0,0c0,0.1-0.1,0.1-0.1,0.1l0,0
			C48.8,17.9,48.7,17.9,48.7,17.8z M48.7,16.7c0-0.1,0.1-0.1,0.1-0.1l0,0c0.1,0,0.1,0.1,0.1,0.1l0,0c0,0.1-0.1,0.1-0.1,0.1l0,0
			C48.8,16.9,48.7,16.8,48.7,16.7z M48.7,15.6c0-0.1,0.1-0.1,0.1-0.1l0,0c0.1,0,0.1,0.1,0.1,0.1l0,0c0,0.1-0.1,0.1-0.1,0.1l0,0
			C48.8,15.8,48.7,15.7,48.7,15.6z M48.7,14.5c0-0.1,0.1-0.1,0.1-0.1l0,0c0.1,0,0.1,0.1,0.1,0.1l0,0c0,0.1-0.1,0.1-0.1,0.1l0,0
			C48.8,14.7,48.7,14.6,48.7,14.5z"/>
	</g>
	<g id="XMLID_2233_">
		<path id="XMLID_2234_" class="st1" d="M48.9,21.2C48.9,21.2,48.9,21.2,48.9,21.2C48.8,21.2,48.8,21.2,48.9,21.2
			C48.8,21.2,48.8,21.2,48.9,21.2c-0.1,0-0.1,0-0.1,0c0,0,0-0.1,0-0.1c0,0,0-0.1,0-0.1c0,0,0,0,0,0c0,0,0,0,0,0c0,0,0,0,0,0
			c0,0,0.1,0,0.1,0c0,0,0,0,0,0c0,0,0,0,0,0c0,0,0,0,0,0c0,0,0,0,0,0c0,0,0,0.1,0,0.1C48.9,21.2,48.9,21.2,48.9,21.2z"/>
	</g>
</g>
<g id="XMLID_2209_">
	<g id="XMLID_2230_">
		<path id="XMLID_2231_" class="st1" d="M48.9,63.4c-0.1,0-0.1,0-0.1-0.1c0,0-0.1-0.1-0.1-0.1c0,0,0,0,0,0c0,0,0,0,0,0c0,0,0,0,0,0
			c0,0,0,0,0,0c0.1-0.1,0.2-0.1,0.3,0c0,0,0,0,0,0c0,0,0,0,0,0c0,0,0,0,0,0c0,0,0,0,0,0c0,0.1,0,0.1-0.1,0.1
			C49,63.4,48.9,63.4,48.9,63.4z"/>
	</g>
	<g id="XMLID_2226_">
		<path id="XMLID_2227_" class="st1" d="M48.7,65.6c0-0.1,0.1-0.2,0.2-0.2l0,0c0.1,0,0.2,0.1,0.2,0.2l0,0c0,0.1-0.1,0.2-0.2,0.2l0,0
			C48.8,65.8,48.7,65.7,48.7,65.6z M48.7,64.4c0-0.1,0.1-0.2,0.2-0.2l0,0c0.1,0,0.2,0.1,0.2,0.2l0,0c0,0.1-0.1,0.2-0.2,0.2l0,0
			C48.8,64.6,48.7,64.5,48.7,64.4z"/>
	</g>
	<g id="XMLID_2212_">
		<path id="XMLID_2213_" class="st1" d="M48.7,80.1c0-0.1,0.1-0.2,0.2-0.2l0,0c0.1,0,0.2,0.1,0.2,0.2l0,0c0,0.1-0.1,0.2-0.2,0.2l0,0
			C48.8,80.3,48.7,80.2,48.7,80.1z M48.7,78.9c0-0.1,0.1-0.2,0.2-0.2l0,0c0.1,0,0.2,0.1,0.2,0.2l0,0c0,0.1-0.1,0.2-0.2,0.2l0,0
			C48.8,79.1,48.7,79,48.7,78.9z M48.7,77.7c0-0.1,0.1-0.2,0.2-0.2l0,0c0.1,0,0.2,0.1,0.2,0.2l0,0c0,0.1-0.1,0.2-0.2,0.2l0,0
			C48.8,77.9,48.7,77.8,48.7,77.7z M48.7,76.5c0-0.1,0.1-0.2,0.2-0.2l0,0c0.1,0,0.2,0.1,0.2,0.2l0,0c0,0.1-0.1,0.2-0.2,0.2l0,0
			C48.8,76.7,48.7,76.6,48.7,76.5z M48.7,75.3c0-0.1,0.1-0.2,0.2-0.2l0,0c0.1,0,0.2,0.1,0.2,0.2l0,0c0,0.1-0.1,0.2-0.2,0.2l0,0
			C48.8,75.5,48.7,75.4,48.7,75.3z M48.7,74.1c0-0.1,0.1-0.2,0.2-0.2l0,0c0.1,0,0.2,0.1,0.2,0.2l0,0c0,0.1-0.1,0.2-0.2,0.2l0,0
			C48.8,74.3,48.7,74.2,48.7,74.1z M48.7,72.9c0-0.1,0.1-0.2,0.2-0.2l0,0c0.1,0,0.2,0.1,0.2,0.2l0,0c0,0.1-0.1,0.2-0.2,0.2l0,0
			C48.8,73.1,48.7,73,48.7,72.9z M48.7,71.7c0-0.1,0.1-0.2,0.2-0.2l0,0c0.1,0,0.2,0.1,0.2,0.2l0,0c0,0.1-0.1,0.2-0.2,0.2l0,0
			C48.8,71.9,48.7,71.8,48.7,71.7z M48.7,70.5c0-0.1,0.1-0.2,0.2-0.2l0,0c0.1,0,0.2,0.1,0.2,0.2l0,0c0,0.1-0.1,0.2-0.2,0.2l0,0
			C48.8,70.7,48.7,70.6,48.7,70.5z M48.7,69.2c0-0.1,0.1-0.2,0.2-0.2l0,0c0.1,0,0.2,0.1,0.2,0.2l0,0c0,0.1-0.1,0.2-0.2,0.2l0,0
			C48.8,69.4,48.7,69.4,48.7,69.2z M48.7,68c0-0.1,0.1-0.2,0.2-0.2l0,0c0.1,0,0.2,0.1,0.2,0.2l0,0c0,0.1-0.1,0.2-0.2,0.2l0,0
			C48.8,68.2,48.7,68.1,48.7,68z M48.7,66.8c0-0.1,0.1-0.2,0.2-0.2l0,0c0.1,0,0.2,0.1,0.2,0.2l0,0c0,0.1-0.1,0.2-0.2,0.2l0,0
			C48.8,67,48.7,66.9,48.7,66.8z"/>
	</g>
	<g id="XMLID_2210_">
		<path id="XMLID_2211_" class="st1" d="M48.9,81.5c-0.1,0-0.1,0-0.1-0.1c0,0-0.1-0.1-0.1-0.1c0,0,0,0,0,0c0,0,0,0,0,0c0,0,0,0,0,0
			c0,0,0,0,0,0c0.1-0.1,0.2-0.1,0.3,0c0,0,0,0,0,0c0,0,0,0,0,0c0,0,0,0,0,0c0,0,0,0,0,0c0,0.1,0,0.1-0.1,0.1
			C49,81.5,48.9,81.5,48.9,81.5z"/>
	</g>
</g>
<g id="XMLID_2198_">
	<g id="XMLID_2205_">
		<path id="XMLID_2206_" class="st1" d="M37.6,50.8c-1.8,0-3.5-1.1-5.1-2.2c-1-0.6-1.9-1.2-2.7-1.5L29.6,47l0.2-0.1
			c2.7-1.1,7-1.4,9.3,0c1,0.6,1.5,1.5,1.5,2.6l0,0l0,0C39.6,50.5,38.6,50.8,37.6,50.8z M30.1,47c0.8,0.3,1.6,0.9,2.5,1.5
			c2.4,1.6,5.1,3.4,7.8,1c-0.1-1-0.5-1.8-1.4-2.4C36.8,45.7,32.7,46,30.1,47z"/>
	</g>
	<g id="XMLID_2203_">
		<path id="XMLID_2204_" class="st1" d="M40,49.7c-1.5,0-3-0.7-4.5-1.3c-1.3-0.6-2.7-1.2-4.1-1.3l0-0.2c1.4,0.1,2.8,0.7,4.1,1.3
			c1.6,0.7,3.2,1.4,4.9,1.2l0,0.2C40.3,49.7,40.2,49.7,40,49.7z"/>
	</g>
	<g id="XMLID_2201_">
		<path id="XMLID_2202_" class="st1" d="M38.7,49.5c-1.1-0.3-1.4-0.9-1.7-1.4c-0.2-0.4-0.4-0.7-0.8-1.1l0.1-0.1
			c0.4,0.4,0.7,0.7,0.9,1.1c0.3,0.6,0.6,1,1.6,1.4L38.7,49.5z"/>
	</g>
	<g id="XMLID_2199_">
		<path id="XMLID_2200_" class="st1" d="M35.3,48.8c-0.7,0-1.4-0.3-1.9-0.5c-0.3-0.1-0.6-0.2-0.7-0.3l0-0.2c0.2,0,0.5,0.1,0.8,0.3
			c0.7,0.3,1.7,0.7,2.6,0.4l0.1,0.2C35.9,48.7,35.6,48.8,35.3,48.8z"/>
	</g>
</g>
<g id="XMLID_2187_">
	<g id="XMLID_2194_">
		<path id="XMLID_2195_" class="st1" d="M58.3,53.2C58.3,53.2,58.3,53.2,58.3,53.2c-1.2,0-2.1-0.5-2.7-1.4l0,0l0,0
			c1-3.6,4.4-3.5,7.4-3.4c1.2,0,2.3,0.1,3.1-0.1l0.2-0.1l-0.1,0.2C64.5,50.7,61.1,53.2,58.3,53.2z M55.8,51.7
			c0.6,0.8,1.4,1.2,2.5,1.3c0,0,0,0,0.1,0c2.6,0,5.9-2.3,7.5-4.6C65,48.6,64,48.6,63,48.5C60.1,48.5,56.8,48.4,55.8,51.7z"/>
	</g>
	<g id="XMLID_2192_">
		<path id="XMLID_2193_" class="st1" d="M55.8,51.8l-0.1-0.1c1.3-1,3.1-1.3,4.9-1.5c1.4-0.2,2.9-0.4,4.2-1.1l0.1,0.2
			c-1.3,0.7-2.8,0.9-4.2,1.1C58.8,50.6,57.1,50.8,55.8,51.8z"/>
	</g>
	<g id="XMLID_2190_">
		<path id="XMLID_2191_" class="st1" d="M60.7,51.8c-0.6-0.1-1-0.3-1.3-0.5c-0.6-0.3-1.1-0.6-2.1-0.3l0-0.2c1.1-0.3,1.6,0,2.2,0.3
			c0.4,0.2,0.7,0.4,1.3,0.5L60.7,51.8z"/>
	</g>
	<g id="XMLID_2188_">
		<path id="XMLID_2189_" class="st1" d="M60,50.4l-0.1-0.1c0.7-0.9,1.8-1,2.6-1.2c0.3,0,0.6-0.1,0.7-0.2l0.1,0.2
			c-0.2,0.1-0.5,0.1-0.8,0.2C61.7,49.4,60.6,49.6,60,50.4z"/>
	</g>
</g>
<g id="XMLID_2176_">
	<g id="XMLID_2183_">
		<path id="XMLID_2184_" class="st1" d="M58.9,57.9l-0.2,0c-2-0.2-4.5-1.5-5.3-3.2c-0.4-0.9-0.3-1.8,0.3-2.7l0,0l0,0
			c2.9-0.7,3.6,1.7,4.2,3.7c0.2,0.8,0.5,1.6,0.8,2.1L58.9,57.9z M53.9,52.2c-0.6,0.8-0.7,1.7-0.3,2.5c0.7,1.6,3.1,2.8,5.1,3.1
			c-0.3-0.5-0.5-1.2-0.7-2C57.3,53.8,56.6,51.5,53.9,52.2z"/>
	</g>
	<g id="XMLID_2181_">
		<path id="XMLID_2182_" class="st1" d="M57.8,57.3c-0.8-0.6-1.3-1.5-1.8-2.5c-0.6-1.1-1.2-2.2-2.2-2.7l0.1-0.1
			c1.1,0.5,1.7,1.6,2.3,2.7c0.5,0.9,1,1.8,1.7,2.4L57.8,57.3z"/>
	</g>
	<g id="XMLID_2179_">
		<path id="XMLID_2180_" class="st1" d="M54.9,55.5c-0.1-0.4,0-0.8,0-1.1c0.1-0.5,0.2-0.9-0.2-1.5l0.1-0.1c0.5,0.6,0.4,1.1,0.3,1.6
			c-0.1,0.3-0.1,0.7,0,1L54.9,55.5z"/>
	</g>
	<g id="XMLID_2177_">
		<path id="XMLID_2178_" class="st1" d="M57.5,56.2c-0.1-0.1-0.2-0.3-0.3-0.5c-0.3-0.5-0.6-1.1-1.4-1.2l0-0.1
			c0.8,0.1,1.2,0.8,1.5,1.3c0.1,0.2,0.2,0.4,0.3,0.4L57.5,56.2z"/>
	</g>
</g>
<g id="XMLID_2165_">
	<g id="XMLID_2172_">
		<path id="XMLID_2173_" class="st1" d="M49.6,39.1L49.6,39.1c-3.1-2.7-1.1-5.3,0.7-7.6c0.7-0.9,1.3-1.8,1.6-2.5l0.1-0.2l0.1,0.2
			c1.3,2.4,2,6.2,0.7,8.4C52.2,38.4,51.1,39.1,49.6,39.1L49.6,39.1z M52.1,29.1c-0.3,0.8-0.9,1.6-1.6,2.4c-1.7,2.2-3.7,4.8-0.8,7.3
			c1.3,0,2.3-0.6,3-1.7C53.9,35.1,53.3,31.5,52.1,29.1z"/>
	</g>
	<g id="XMLID_2170_">
		<path id="XMLID_2171_" class="st1" d="M49.5,39c-0.3-1.6,0.5-3.2,1.2-4.7c0.6-1.2,1.2-2.5,1.3-3.8l0.2,0c0,1.3-0.7,2.6-1.3,3.9
			c-0.8,1.6-1.5,3-1.2,4.6L49.5,39z"/>
	</g>
	<g id="XMLID_2168_">
		<path id="XMLID_2169_" class="st1" d="M49.8,37.3l-0.2-0.1c0.3-1,1-1.3,1.6-1.6c0.4-0.2,0.8-0.4,1.2-0.8l0.1,0.1
			c-0.4,0.4-0.8,0.6-1.3,0.8C50.6,36.1,50.1,36.4,49.8,37.3z"/>
	</g>
	<g id="XMLID_2166_">
		<path id="XMLID_2167_" class="st1" d="M50.5,34.9c-0.5-1-0.1-2,0.3-2.7c0.1-0.3,0.3-0.5,0.3-0.7l0.2,0c0,0.2-0.1,0.4-0.3,0.7
			c-0.3,0.7-0.8,1.5-0.3,2.5L50.5,34.9z"/>
	</g>
</g>
<g id="XMLID_2154_">
	<g id="XMLID_2161_">
		<path id="XMLID_2162_" class="st1" d="M33.4,56.3l0.1-0.2c1-2.3,3.5-5.1,5.9-5.6c1-0.2,1.9,0,2.5,0.7l0,0l0,0
			c-0.2,3.2-3.1,3.8-5.7,4.3c-1,0.2-1.9,0.4-2.6,0.7L33.4,56.3z M40,50.6c-0.2,0-0.4,0-0.6,0.1c-2.2,0.4-4.6,3-5.6,5.3
			c0.7-0.3,1.6-0.4,2.5-0.6c2.5-0.5,5.3-1,5.5-4C41.3,50.8,40.7,50.6,40,50.6z"/>
	</g>
	<g id="XMLID_2159_">
		<path id="XMLID_2160_" class="st1" d="M34.7,55.2L34.5,55c1-0.8,2.2-1.3,3.4-1.7c1.4-0.5,2.9-1.1,3.8-2.2l0.1,0.1
			c-1,1.1-2.5,1.7-3.9,2.2C36.8,53.9,35.6,54.4,34.7,55.2z"/>
	</g>
	<g id="XMLID_2157_">
		<path id="XMLID_2158_" class="st1" d="M39.6,52.6c-0.3,0-0.6-0.1-0.9-0.2c-0.3-0.1-0.7-0.2-1.2-0.2l0-0.2c0.5,0,0.9,0.1,1.2,0.2
			c0.5,0.2,1,0.3,1.8-0.1l0.1,0.2C40.3,52.5,39.9,52.6,39.6,52.6z"/>
	</g>
	<g id="XMLID_2155_">
		<path id="XMLID_2156_" class="st1" d="M36,55l-0.1-0.1c0.1-0.1,0.4-0.2,0.7-0.3c0.6-0.2,1.5-0.6,1.9-1.4l0.2,0.1
			c-0.4,0.9-1.3,1.2-2,1.5C36.4,54.8,36.1,54.9,36,55z"/>
	</g>
</g>
<g id="XMLID_2152_">
	<circle id="XMLID_2153_" class="st1" cx="58.4" cy="77.4" r="0.1"/>
</g>
<g id="XMLID_2139_">
	<g id="XMLID_2150_">
		<circle id="XMLID_2151_" class="st1" cx="58.8" cy="61.8" r="0.3"/>
	</g>
	<g id="XMLID_2148_">
		<circle id="XMLID_2149_" class="st1" cx="57.2" cy="64.6" r="0.1"/>
	</g>
	<g id="XMLID_2146_">
		<circle id="XMLID_2147_" class="st1" cx="46.9" cy="64.9" r="0.1"/>
	</g>
	<g id="XMLID_2144_">
		<circle id="XMLID_2145_" class="st1" cx="47.3" cy="81.8" r="0.3"/>
	</g>
	<g id="XMLID_2142_">
		<circle id="XMLID_2143_" class="st1" cx="37" cy="67.8" r="0.5"/>
	</g>
	<g id="XMLID_2140_">
		<circle id="XMLID_2141_" class="st1" cx="34.1" cy="78" r="0.1"/>
	</g>
</g>
<g id="XMLID_1363_">
	<g id="XMLID_1677_">
		<circle id="XMLID_2138_" class="st1" cx="38.5" cy="72.9" r="0.4"/>
	</g>
	<g id="XMLID_1366_">
		<circle id="XMLID_1367_" class="st1" cx="40.9" cy="78.7" r="0.1"/>
	</g>
	<g id="XMLID_1364_">
		<circle id="XMLID_1365_" class="st1" cx="43.7" cy="81.3" r="0.1"/>
	</g>
</g>
<g id="XMLID_1145_">
	<g id="XMLID_1361_">
		<circle id="XMLID_1362_" class="st1" cx="31.8" cy="19.1" r="0.3"/>
	</g>
	<g id="XMLID_1164_">
		<circle id="XMLID_1242_" class="st1" cx="41.3" cy="24.4" r="0.3"/>
	</g>
	<g id="XMLID_1162_">
		<circle id="XMLID_1163_" class="st1" cx="35.3" cy="24.6" r="0.1"/>
	</g>
	<g id="XMLID_1160_">
		<circle id="XMLID_1161_" class="st1" cx="29" cy="27.2" r="0.1"/>
	</g>
	<g id="XMLID_1158_">
		<circle id="XMLID_1159_" class="st1" cx="27.4" cy="28.3" r="0.3"/>
	</g>
	<g id="XMLID_1156_">
		<circle id="XMLID_1157_" class="st1" cx="29.4" cy="34.4" r="0.1"/>
	</g>
	<g id="XMLID_1154_">
		<circle id="XMLID_1155_" class="st1" cx="26" cy="41.5" r="0.3"/>
	</g>
	<g id="XMLID_1152_">
		<circle id="XMLID_1153_" class="st1" cx="30.8" cy="44.2" r="0.3"/>
	</g>
	<g id="XMLID_1150_">
		<circle id="XMLID_1151_" class="st1" cx="36.2" cy="49.7" r="0.4"/>
	</g>
	<g id="XMLID_1148_">
		<circle id="XMLID_1149_" class="st1" cx="38.8" cy="54.8" r="0"/>
	</g>
	<g id="XMLID_1146_">
		<circle id="XMLID_1147_" class="st1" cx="38.6" cy="59.5" r="0.3"/>
	</g>
</g>
<g id="XMLID_1096_">
	<g id="XMLID_1143_">
		<circle id="XMLID_1144_" class="st1" cx="63.8" cy="68.7" r="0.1"/>
	</g>
	<g id="XMLID_1141_">
		<circle id="XMLID_1142_" class="st1" cx="51.7" cy="66.2" r="0.1"/>
	</g>
	<g id="XMLID_1139_">
		<circle id="XMLID_1140_" class="st1" cx="56.2" cy="60.1" r="0.1"/>
	</g>
	<g id="XMLID_1137_">
		<circle id="XMLID_1138_" class="st1" cx="67.6" cy="60.5" r="0.2"/>
	</g>
	<g id="XMLID_1135_">
		<circle id="XMLID_1136_" class="st1" cx="67.5" cy="57.1" r="0.2"/>
	</g>
	<g id="XMLID_1133_">
		<circle id="XMLID_1134_" class="st1" cx="68" cy="57.3" r="0.2"/>
	</g>
	<g id="XMLID_1131_">
		<circle id="XMLID_1132_" class="st1" cx="64" cy="49.6" r="0.2"/>
	</g>
	<g id="XMLID_1129_">
		<circle id="XMLID_1130_" class="st1" cx="66.2" cy="47.3" r="0.3"/>
	</g>
	<g id="XMLID_1127_">
		<circle id="XMLID_1128_" class="st1" cx="61.1" cy="44.5" r="0.3"/>
	</g>
	<g id="XMLID_1125_">
		<circle id="XMLID_1126_" class="st1" cx="69.2" cy="46.1" r="0.2"/>
	</g>
	<g id="XMLID_1123_">
		<circle id="XMLID_1124_" class="st1" cx="73.5" cy="42.5" r="0.4"/>
	</g>
	<g id="XMLID_1121_">
		<circle id="XMLID_1122_" class="st1" cx="70" cy="38.5" r="0.3"/>
	</g>
	<g id="XMLID_1119_">
		<circle id="XMLID_1120_" class="st1" cx="62" cy="40.4" r="0.1"/>
	</g>
	<g id="XMLID_1117_">
		<circle id="XMLID_1118_" class="st1" cx="65.1" cy="36.4" r="0.2"/>
	</g>
	<g id="XMLID_1115_">
		<circle id="XMLID_1116_" class="st1" cx="66.5" cy="33.7" r="0.2"/>
	</g>
	<g id="XMLID_1113_">
		<circle id="XMLID_1114_" class="st1" cx="62.9" cy="31.9" r="0.3"/>
	</g>
	<g id="XMLID_1111_">
		<circle id="XMLID_1112_" class="st1" cx="58.7" cy="32" r="0.3"/>
	</g>
	<g id="XMLID_1109_">
		<circle id="XMLID_1110_" class="st1" cx="61.6" cy="25.9" r="0.3"/>
	</g>
	<g id="XMLID_1107_">
		<circle id="XMLID_1108_" class="st1" cx="63.3" cy="20.1" r="0.2"/>
	</g>
	<g id="XMLID_1105_">
		<circle id="XMLID_1106_" class="st1" cx="62" cy="16.4" r="0.3"/>
	</g>
	<g id="XMLID_1103_">
		<circle id="XMLID_1104_" class="st1" cx="56.5" cy="14.3" r="0.3"/>
	</g>
	<g id="XMLID_1101_">
		<circle id="XMLID_1102_" class="st1" cx="55.3" cy="7.9" r="0.1"/>
	</g>
	<g id="XMLID_1099_">
		<circle id="XMLID_1100_" class="st1" cx="51.7" cy="3.2" r="0.2"/>
	</g>
	<g id="XMLID_1097_">
		<circle id="XMLID_1098_" class="st1" cx="61.6" cy="2.1" r="0.3"/>
	</g>
</g>
<g id="XMLID_1071_">
	<g id="XMLID_1094_">
		<circle id="XMLID_1095_" class="st1" cx="47.8" cy="81.5" r="0.2"/>
	</g>
	<g id="XMLID_1092_">
		<circle id="XMLID_1093_" class="st1" cx="38.4" cy="84.8" r="0.1"/>
	</g>
	<g id="XMLID_1090_">
		<circle id="XMLID_1091_" class="st1" cx="42.8" cy="86.5" r="0.1"/>
	</g>
	<g id="XMLID_1088_">
		<circle id="XMLID_1089_" class="st1" cx="39.2" cy="98.9" r="0.5"/>
	</g>
	<g id="XMLID_1086_">
		<circle id="XMLID_1087_" class="st1" cx="45.4" cy="90.9" r="0.1"/>
	</g>
	<g id="XMLID_1084_">
		<circle id="XMLID_1085_" class="st1" cx="52.3" cy="95.1" r="0.2"/>
	</g>
	<g id="XMLID_1082_">
		<circle id="XMLID_1083_" class="st1" cx="60.8" cy="98.9" r="0.2"/>
	</g>
	<g id="XMLID_1080_">
		<circle id="XMLID_1081_" class="st1" cx="54.2" cy="87.9" r="0.4"/>
	</g>
	<g id="XMLID_1078_">
		<circle id="XMLID_1079_" class="st1" cx="50.7" cy="83.2" r="0.1"/>
	</g>
	<g id="XMLID_1076_">
		<circle id="XMLID_1077_" class="st1" cx="53.4" cy="78.2" r="0.1"/>
	</g>
	<g id="XMLID_1074_">
		<circle id="XMLID_1075_" class="st1" cx="52.9" cy="74.7" r="0.4"/>
	</g>
	<g id="XMLID_1072_">
		<circle id="XMLID_1073_" class="st1" cx="54.7" cy="66.6" r="0.2"/>
	</g>
</g>
</svg>
